SplineFontDB: 3.2
FontName: EggRollExpanded
FullName: Egg Roll Expanded
FamilyName: Egg Roll
Weight: Expanded
Copyright: 2019 Iconian Fonts - www.iconian.com
Version: 1.1; 2019
ItalicAngle: 0
UnderlinePosition: -175
UnderlineWidth: 50
Ascent: 800
Descent: 200
InvalidEm: 0
sfntRevision: 0x00010001
LayerCount: 2
Layer: 0 0 "Back" 1
Layer: 1 0 "Fore" 0
XUID: [1021 544 -9480482 16188622]
StyleMap: 0x0040
FSType: 0
OS2Version: 3
OS2_WeightWidthSlopeOnly: 0
OS2_UseTypoMetrics: 0
CreationTime: 1562333768
ModificationTime: 1759104292
PfmFamily: 81
TTFWeight: 700
TTFWidth: 7
LineGap: 30
VLineGap: 0
Panose: 0 0 0 0 0 0 0 0 0 0
OS2TypoAscent: 750
OS2TypoAOffset: 0
OS2TypoDescent: -170
OS2TypoDOffset: 0
OS2TypoLinegap: 30
OS2WinAscent: 882
OS2WinAOffset: 0
OS2WinDescent: 143
OS2WinDOffset: 0
HheadAscent: 882
HheadAOffset: 0
HheadDescent: -143
HheadDOffset: 0
OS2SubXSize: 100
OS2SubYSize: 100
OS2SubXOff: 0
OS2SubYOff: 140
OS2SupXSize: 100
OS2SupYSize: 100
OS2SupXOff: 0
OS2SupYOff: 140
OS2StrikeYSize: 50
OS2StrikeYPos: 250
OS2CapHeight: 706
OS2XHeight: 693
OS2Vendor: 'pyrs'
OS2CodePages: 00000001.00000000
OS2UnicodeRanges: 80000007.00000000.00000000.00000000
Lookup: 258 0 0 "'kern' Horizontal Kerning in Latin lookup 0" { "'kern' Horizontal Kerning in Latin lookup 0 subtable"  } ['kern' ('DFLT' <'dflt' > 'latn' <'dflt' > ) ]
MarkAttachClasses: 1
DEI: 91125
LangName: 1033 "" "" "" "" "" "Version 1.1; 2019" "" "" "" "Daniel Zadorozny" "" "" "http://www.iconian.com"
Encoding: UnicodeBmp
UnicodeInterp: none
NameList: AGL For New Fonts
DisplaySize: -48
AntiAlias: 1
FitToEm: 0
WinInfo: 64 16 4
BeginPrivate: 3
BlueValues 15 [-12 5 697 723]
BlueScale 6 0.0375
BlueShift 2 18
EndPrivate
BeginChars: 65540 223

StartChar: exclam
Encoding: 33 33 3
Width: 250
GlyphClass: 2
Flags: W
LayerCount: 2
Fore
SplineSet
231 80 m 2
 231 72.6669921875 230.49609375 67.99609375 229.49609375 65.99609375 c 0
 228.49609375 63.99609375 227.99609375 61.6630859375 227.99609375 58.99609375 c 0
 227.99609375 56.3291015625 227.49609375 53.3291015625 226.49609375 49.99609375 c 0
 225.49609375 46.6630859375 222.99609375 40.330078125 218.99609375 30.9970703125 c 0
 216.99609375 28.9970703125 215.663085938 26.6640625 214.99609375 23.9970703125 c 0
 214.329101562 21.330078125 212.99609375 18.330078125 210.99609375 14.9970703125 c 2
 208.99609375 9.9970703125 l 1
 201.49609375 -5.0029296875 l 2
 199.163085938 -9.669921875 194.330078125 -12.0029296875 186.997070312 -12.0029296875 c 0
 185.6640625 -12.0029296875 183.6640625 -11.8359375 180.997070312 -11.5029296875 c 0
 178.330078125 -11.169921875 176.330078125 -11.0029296875 174.997070312 -11.0029296875 c 0
 163.6640625 -9.669921875 149.497070312 -6.669921875 132.497070312 -2.0029296875 c 0
 115.497070312 2.6640625 99.330078125 6.6640625 83.9970703125 9.9970703125 c 1
 66.9970703125 34.9970703125 l 1
 68.9970703125 47.9970703125 l 1
 81.9970703125 102.997070312 l 2
 83.330078125 111.6640625 85.330078125 117.331054688 87.9970703125 119.998046875 c 0
 90.6640625 122.665039062 96.6640625 126.33203125 105.997070312 130.999023438 c 1
 140.997070312 123.999023438 l 1
 113.6640625 148.666015625 92.6640625 179.166015625 77.9970703125 215.499023438 c 0
 63.330078125 251.83203125 52.4970703125 290.165039062 45.4970703125 330.498046875 c 0
 38.4970703125 370.831054688 34.330078125 411.498046875 32.9970703125 452.498046875 c 0
 31.6640625 493.498046875 30.9970703125 530.998046875 30.9970703125 564.998046875 c 2
 30.9970703125 581.998046875 l 1
 33.9970703125 581.998046875 l 1
 33.9970703125 643.998046875 l 1
 36.4970703125 652.998046875 l 2
 38.1640625 658.998046875 40.3310546875 665.498046875 42.998046875 672.498046875 c 0
 45.6650390625 679.498046875 48.998046875 685.831054688 52.998046875 691.498046875 c 0
 56.998046875 697.165039062 60.998046875 699.998046875 64.998046875 699.998046875 c 2
 70.998046875 699.998046875 l 1
 222.998046875 662.998046875 l 1
 215.998046875 627.998046875 l 2
 211.998046875 609.331054688 207.998046875 592.498046875 203.998046875 577.498046875 c 0
 199.998046875 562.498046875 195.998046875 547.331054688 191.998046875 531.998046875 c 0
 187.998046875 516.665039062 183.831054688 499.83203125 179.498046875 481.499023438 c 0
 175.165039062 463.166015625 170.33203125 441.333007812 164.999023438 416 c 0
 162.33203125 400 160.33203125 384 158.999023438 368 c 0
 157.666015625 352 156.999023438 336 156.999023438 320 c 0
 156.999023438 290 158.33203125 261 160.999023438 233 c 0
 163.666015625 205 167.333007812 176 172 146 c 1
 172 120 l 1
 220 112 l 1
 231 93 l 1
 231 80 l 2
EndSplineSet
EndChar

StartChar: quotedbl
Encoding: 34 34 4
Width: 303
GlyphClass: 2
Flags: W
LayerCount: 2
Fore
SplineSet
52 590 m 1
 48.9990234375 605.997070312 l 2
 48.9990234375 618.6640625 45.666015625 628.1640625 38.9990234375 634.497070312 c 0
 32.33203125 640.830078125 25.33203125 649.997070312 17.9990234375 661.997070312 c 1
 17.9990234375 696.997070312 l 2
 18.666015625 699.6640625 21.3330078125 701.831054688 26 703.498046875 c 0
 30.6669921875 705.165039062 36 706.33203125 42 706.999023438 c 0
 48 707.666015625 54.1669921875 708.166015625 60.5 708.499023438 c 0
 66.8330078125 708.83203125 72 708.999023438 76 708.999023438 c 2
 81 708.999023438 l 1
 83 709.999023438 l 1
 121 705.999023438 l 2
 123 705.999023438 125.166992188 704.499023438 127.5 701.499023438 c 0
 129.833007812 698.499023438 131.833007812 695.166015625 133.5 691.499023438 c 0
 135.166992188 687.83203125 136.5 684.165039062 137.5 680.498046875 c 0
 138.5 676.831054688 139 674.6640625 139 673.997070312 c 2
 139 633.997070312 l 2
 135.666992188 616.6640625 131.666992188 602.331054688 127 590.998046875 c 0
 122.333007812 579.665039062 115.833007812 569.83203125 107.5 561.499023438 c 0
 99.1669921875 553.166015625 88.5 545.833007812 75.5 539.5 c 0
 62.5 533.166992188 46.3330078125 526.666992188 27 520 c 1
 52 590 l 1
194.999023438 589.997070312 m 1
 191.997070312 605.994140625 l 2
 191.997070312 617.994140625 188.497070312 627.327148438 181.497070312 633.994140625 c 0
 174.497070312 640.661132812 167.6640625 649.994140625 160.997070312 661.994140625 c 1
 160.997070312 696.994140625 l 2
 161.6640625 699.661132812 164.331054688 701.828125 168.998046875 703.495117188 c 0
 173.665039062 705.162109375 178.998046875 706.329101562 184.998046875 706.99609375 c 0
 190.998046875 707.663085938 197.165039062 708.163085938 203.498046875 708.49609375 c 0
 209.831054688 708.829101562 214.998046875 708.99609375 218.998046875 708.99609375 c 2
 222.998046875 708.99609375 l 1
 225.998046875 709.99609375 l 1
 266.998046875 705.99609375 l 2
 268.998046875 705.99609375 270.831054688 704.49609375 272.498046875 701.49609375 c 0
 274.165039062 698.49609375 275.83203125 695.163085938 277.499023438 691.49609375 c 0
 279.166015625 687.829101562 280.333007812 684.162109375 281 680.495117188 c 0
 281.666992188 676.828125 282 674.661132812 282 673.994140625 c 2
 282 633.994140625 l 2
 278.666992188 616.661132812 274.666992188 602.328125 270 590.995117188 c 0
 265.333007812 579.662109375 258.666015625 569.829101562 249.999023438 561.49609375 c 0
 241.33203125 553.163085938 230.499023438 545.830078125 217.499023438 539.497070312 c 0
 204.499023438 533.1640625 188.33203125 526.6640625 168.999023438 519.997070312 c 1
 194.999023438 589.997070312 l 1
EndSplineSet
EndChar

StartChar: numbersign
Encoding: 35 35 5
Width: 668
GlyphClass: 2
Flags: W
LayerCount: 2
Fore
SplineSet
153 414 m 2
 150.333007812 414 147.828125 413.833007812 145.495117188 413.5 c 0
 143.162109375 413.166992188 140.329101562 412.666992188 136.99609375 412 c 2
 16.99609375 403 l 1
 23.99609375 433 l 2
 23.99609375 439.666992188 23.8291015625 444.833984375 23.49609375 448.500976562 c 0
 23.1630859375 452.16796875 22.99609375 456.000976562 22.99609375 460.000976562 c 0
 22.99609375 463.333984375 22.8291015625 467.500976562 22.49609375 472.500976562 c 0
 22.1630859375 477.500976562 21.6630859375 484.333984375 20.99609375 493.000976562 c 0
 20.99609375 507.000976562 18.99609375 519.66796875 14.99609375 531.000976562 c 1
 170.99609375 497.000976562 l 1
 172.99609375 513.66796875 175.329101562 523.66796875 177.99609375 527.000976562 c 0
 178.663085938 529.000976562 180.163085938 534.000976562 182.49609375 542.000976562 c 0
 184.829101562 550.000976562 187.49609375 559.000976562 190.49609375 569.000976562 c 0
 193.49609375 579.000976562 196.663085938 588.66796875 199.99609375 598.000976562 c 0
 203.329101562 607.333984375 206.329101562 614.333984375 208.99609375 619.000976562 c 0
 211.663085938 624.333984375 214.49609375 631.500976562 217.49609375 640.500976562 c 0
 220.49609375 649.500976562 223.99609375 658.66796875 227.99609375 668.000976562 c 0
 231.99609375 677.333984375 236.329101562 686.166992188 240.99609375 694.5 c 0
 245.663085938 702.833007812 250.99609375 709 256.99609375 713 c 1
 256.99609375 595 l 2
 256.99609375 556.333007812 258.99609375 517.666015625 262.99609375 478.999023438 c 1
 278.99609375 484.999023438 l 1
 412.99609375 453.999023438 l 1
 414.329101562 461.33203125 415.49609375 467.499023438 416.49609375 472.499023438 c 0
 417.49609375 477.499023438 418.663085938 481.33203125 419.99609375 483.999023438 c 0
 420.663085938 485.999023438 422.330078125 491.666015625 424.997070312 500.999023438 c 0
 427.6640625 510.33203125 430.497070312 520.83203125 433.497070312 532.499023438 c 0
 436.497070312 544.166015625 439.6640625 555.333007812 442.997070312 566 c 0
 446.330078125 576.666992188 448.997070312 584.333984375 450.997070312 589.000976562 c 0
 453.6640625 594.333984375 456.6640625 601.500976562 459.997070312 610.500976562 c 0
 463.330078125 619.500976562 466.830078125 628.66796875 470.497070312 638.000976562 c 0
 474.1640625 647.333984375 478.331054688 656.166992188 482.998046875 664.5 c 0
 487.665039062 672.833007812 492.998046875 679 498.998046875 683 c 1
 489.998046875 565 l 2
 489.998046875 545.666992188 490.165039062 526.333984375 490.498046875 507.000976562 c 0
 490.831054688 487.66796875 491.6640625 468.334960938 492.997070312 449.001953125 c 1
 512.997070312 445.001953125 l 2
 520.997070312 441.668945312 529.997070312 437.8359375 539.997070312 433.502929688 c 0
 549.997070312 429.169921875 559.830078125 425.002929688 569.497070312 421.002929688 c 0
 579.1640625 417.002929688 587.831054688 413.002929688 595.498046875 409.002929688 c 0
 603.165039062 405.002929688 608.998046875 401.3359375 612.998046875 398.002929688 c 0
 614.998046875 396.002929688 618.165039062 393.169921875 622.498046875 389.502929688 c 2
 628.998046875 384.002929688 l 1
 642.998046875 374.002929688 l 1
 639.998046875 372.002929688 l 1
 494.998046875 379.002929688 l 1
 496.998046875 365.002929688 499.165039062 351.169921875 501.498046875 337.502929688 c 0
 503.831054688 323.8359375 506.998046875 310.002929688 510.998046875 296.002929688 c 1
 511.665039062 296.669921875 513.33203125 297.002929688 515.999023438 297.002929688 c 0
 518.666015625 297.002929688 520.333007812 297.3359375 521 298.002929688 c 2
 641 307.002929688 l 1
 634 277.002929688 l 2
 634 270.3359375 634.166992188 265.168945312 634.5 261.501953125 c 0
 634.833007812 257.834960938 635 254.001953125 635 250.001953125 c 0
 635 246.668945312 635.166992188 242.501953125 635.5 237.501953125 c 0
 635.833007812 232.501953125 636.333007812 225.668945312 637 217.001953125 c 0
 637 202.334960938 639 189.66796875 643 179.000976562 c 1
 537 202.000976562 l 1
 548.333007812 166.000976562 560 130.833984375 572 96.5009765625 c 0
 584 62.16796875 597 28.0009765625 611 -5.9990234375 c 0
 610.333007812 -7.9990234375 609.333007812 -9.4990234375 608 -10.4990234375 c 0
 606.666992188 -11.4990234375 604 -12.33203125 600 -12.9990234375 c 0
 596 -13.666015625 590.166992188 -14.166015625 582.5 -14.4990234375 c 0
 574.833007812 -14.83203125 564.333007812 -14.9990234375 551 -14.9990234375 c 2
 516 -14.9990234375 l 2
 489.333007812 -14.9990234375 467.833007812 -10.666015625 451.5 -1.9990234375 c 0
 435.166992188 6.66796875 424.333984375 25.0009765625 419.000976562 53.0009765625 c 0
 419.000976562 54.333984375 418.833984375 55.6669921875 418.500976562 57 c 0
 418.16796875 58.3330078125 418.000976562 59.666015625 418.000976562 60.9990234375 c 0
 416.66796875 69.666015625 415.000976562 80.166015625 413.000976562 92.4990234375 c 0
 411.000976562 104.83203125 409.000976562 116.999023438 407.000976562 128.999023438 c 0
 405.000976562 140.999023438 403.333984375 151.499023438 402.000976562 160.499023438 c 0
 400.66796875 169.499023438 400.000976562 174.999023438 400.000976562 176.999023438 c 2
 402.000976562 211.999023438 l 1
 306.000976562 231.999023438 l 1
 311.333984375 199.999023438 318.000976562 166.499023438 326.000976562 131.499023438 c 0
 334.000976562 96.4990234375 345.000976562 61.666015625 359.000976562 26.9990234375 c 0
 357.66796875 24.9990234375 356.16796875 23.33203125 354.500976562 21.9990234375 c 0
 352.833984375 20.666015625 349.500976562 19.4990234375 344.500976562 18.4990234375 c 0
 339.500976562 17.4990234375 332.500976562 16.666015625 323.500976562 15.9990234375 c 0
 314.500976562 15.33203125 302.000976562 14.6650390625 286.000976562 13.998046875 c 0
 272.66796875 13.998046875 260.000976562 14.8310546875 248.000976562 16.498046875 c 0
 236.000976562 18.1650390625 225.16796875 21.33203125 215.500976562 25.9990234375 c 0
 205.833984375 30.666015625 197.666992188 37.3330078125 191 46 c 0
 184.333007812 54.6669921875 179.666015625 66 176.999023438 80 c 0
 175.666015625 87.3330078125 173.833007812 98.3330078125 171.5 113 c 0
 169.166992188 127.666992188 167 142.5 165 157.5 c 0
 163 172.5 161.166992188 186.166992188 159.5 198.5 c 0
 157.833007812 210.833007812 157 218 157 220 c 2
 157 264 l 1
 155 265 l 2
 147 268.333007812 137.333007812 272 126 276 c 0
 114.666992188 280 103.666992188 284.166992188 93 288.5 c 0
 82.3330078125 292.833007812 72.5 297 63.5 301 c 0
 54.5 305 48.3330078125 308.666992188 45 312 c 0
 43 314 39.8330078125 316.833007812 35.5 320.5 c 2
 29 326 l 1
 15 336 l 1
 18 338 l 1
 157 331 l 1
 157 414 l 1
 153 414 l 2
388.995117188 313 m 1
 399.994140625 387.999023438 l 1
 393.494140625 388.999023438 l 2
 389.161132812 389.666015625 384.494140625 390.499023438 379.494140625 391.499023438 c 0
 374.494140625 392.499023438 369.661132812 393.33203125 364.994140625 393.999023438 c 0
 360.327148438 394.666015625 357.66015625 395.333007812 356.993164062 396 c 2
 286.993164062 407 l 1
 263.993164062 408 l 1
 266.66015625 394 269.16015625 380.333007812 271.493164062 367 c 0
 273.826171875 353.666992188 276.993164062 340 280.993164062 326 c 1
 281.66015625 326.666992188 283.327148438 327 285.994140625 327 c 0
 288.661132812 327 290.328125 327.333007812 290.995117188 328 c 2
 388.995117188 313 l 1
EndSplineSet
EndChar

StartChar: dollar
Encoding: 36 36 6
Width: 536
GlyphClass: 2
Flags: W
LayerCount: 2
Fore
SplineSet
342 658 m 1
 341.999023438 618.005859375 l 1
 349.33203125 618.672851562 356.665039062 619.172851562 363.998046875 619.505859375 c 0
 371.331054688 619.838867188 378.998046875 620.005859375 386.998046875 620.005859375 c 0
 396.331054688 620.005859375 405.498046875 612.338867188 414.498046875 597.005859375 c 0
 423.498046875 581.672851562 431.498046875 564.005859375 438.498046875 544.005859375 c 0
 445.498046875 524.005859375 450.998046875 504.505859375 454.998046875 485.505859375 c 0
 458.998046875 466.505859375 460.998046875 453.005859375 460.998046875 445.005859375 c 1
 456.998046875 446.005859375 l 1
 426.998046875 460.672851562 397.998046875 472.672851562 369.998046875 482.005859375 c 0
 341.998046875 491.338867188 310.665039062 496.005859375 275.998046875 496.005859375 c 0
 242.665039062 496.005859375 213.83203125 493.005859375 189.499023438 487.005859375 c 0
 165.166015625 481.005859375 138.999023438 469.338867188 110.999023438 452.005859375 c 1
 107.999023438 445.005859375 l 2
 107.999023438 443.672851562 108.33203125 443.005859375 108.999023438 443.005859375 c 0
 116.999023438 439.005859375 127.666015625 436.505859375 140.999023438 435.505859375 c 0
 154.33203125 434.505859375 170.999023438 433.672851562 190.999023438 433.005859375 c 0
 193.666015625 433.005859375 197.999023438 432.838867188 203.999023438 432.505859375 c 0
 209.999023438 432.172851562 216.499023438 431.672851562 223.499023438 431.005859375 c 0
 230.499023438 430.338867188 237.166015625 429.505859375 243.499023438 428.505859375 c 0
 249.83203125 427.505859375 254.33203125 426.672851562 256.999023438 426.005859375 c 0
 269.666015625 420.005859375 282.333007812 415.672851562 295 413.005859375 c 0
 307.666992188 410.338867188 321 406.338867188 335 401.005859375 c 0
 369 388.338867188 398.5 372.338867188 423.5 353.005859375 c 0
 448.5 333.672851562 472.666992188 310.005859375 496 282.005859375 c 0
 497.333007812 280.005859375 500.666015625 276.172851562 505.999023438 270.505859375 c 0
 511.33203125 264.838867188 513.999023438 261.338867188 513.999023438 260.005859375 c 0
 519.33203125 251.338867188 521.999023438 244.671875 521.999023438 240.004882812 c 0
 521.999023438 239.337890625 521.83203125 238.170898438 521.499023438 236.50390625 c 2
 519.999023438 229.00390625 l 2
 507.999023438 183.670898438 486.83203125 150.00390625 456.499023438 128.00390625 c 0
 426.166015625 106.00390625 390.333007812 91.00390625 349 83.00390625 c 1
 340 48.00390625 l 1
 336 23.00390625 l 2
 332.666992188 9.00390625 329.333984375 -2.49609375 326.000976562 -11.49609375 c 0
 322.66796875 -20.49609375 318.834960938 -28.49609375 314.501953125 -35.49609375 c 0
 310.168945312 -42.49609375 305.3359375 -49.49609375 300.002929688 -56.49609375 c 0
 294.669921875 -63.49609375 288.336914062 -71.99609375 281.00390625 -81.99609375 c 1
 279.670898438 -68.6630859375 278.50390625 -57.49609375 277.50390625 -48.49609375 c 0
 276.50390625 -39.49609375 275.00390625 -29.99609375 273.00390625 -19.99609375 c 0
 271.00390625 -9.99609375 268.670898438 1.3369140625 266.00390625 14.00390625 c 0
 263.336914062 26.6708984375 259.669921875 43.6708984375 255.002929688 65.00390625 c 1
 217.002929688 74.00390625 l 2
 213.669921875 74.00390625 210.669921875 74.1708984375 208.002929688 74.50390625 c 0
 205.3359375 74.8369140625 203.3359375 75.00390625 202.002929688 75.00390625 c 2
 196.002929688 75.00390625 l 2
 193.3359375 75.00390625 188.002929688 75.3369140625 180.002929688 76.00390625 c 0
 172.002929688 76.6708984375 164.3359375 77.6708984375 157.002929688 79.00390625 c 0
 153.002929688 79.00390625 150.002929688 79.3369140625 148.002929688 80.00390625 c 0
 146.002929688 80.6708984375 140.3359375 82.00390625 131.002929688 84.00390625 c 0
 127.002929688 85.3369140625 123.669921875 86.169921875 121.002929688 86.5029296875 c 0
 118.3359375 86.8359375 115.668945312 87.6689453125 113.001953125 89.001953125 c 0
 110.334960938 89.001953125 105.66796875 89.8349609375 99.0009765625 91.501953125 c 2
 85.0009765625 95.001953125 l 2
 83.66796875 96.3349609375 80.0009765625 98.3349609375 74.0009765625 101.001953125 c 0
 68.0009765625 103.668945312 63.0009765625 105.668945312 59.0009765625 107.001953125 c 2
 48.0009765625 111.001953125 l 2
 41.333984375 115.668945312 34.333984375 119.8359375 27.0009765625 123.502929688 c 0
 19.66796875 127.169921875 16.0009765625 132.002929688 16.0009765625 138.002929688 c 0
 16.0009765625 148.669921875 17.833984375 161.336914062 21.5009765625 176.00390625 c 0
 25.16796875 190.670898438 30.0009765625 205.170898438 36.0009765625 219.50390625 c 0
 42.0009765625 233.836914062 49.0009765625 247.169921875 57.0009765625 259.502929688 c 0
 65.0009765625 271.8359375 73.333984375 281.668945312 82.0009765625 289.001953125 c 1
 85.0009765625 289.001953125 l 1
 95.0009765625 283.001953125 104.500976562 274.001953125 113.500976562 262.001953125 c 0
 122.500976562 250.001953125 131.66796875 240.334960938 141.000976562 233.001953125 c 0
 153.66796875 220.334960938 169.000976562 208.334960938 187.000976562 197.001953125 c 0
 205.000976562 185.668945312 224.16796875 175.668945312 244.500976562 167.001953125 c 0
 264.833984375 158.334960938 285.666992188 151.501953125 307 146.501953125 c 0
 328.333007812 141.501953125 349 139.001953125 369 139.001953125 c 0
 373 139.001953125 375 140.668945312 375 144.001953125 c 0
 375 171.334960938 369.5 196.834960938 358.5 220.501953125 c 0
 347.5 244.168945312 333.166992188 265.501953125 315.5 284.501953125 c 0
 297.833007812 303.501953125 277.5 320.168945312 254.5 334.501953125 c 0
 231.5 348.834960938 208 360.66796875 184 370.000976562 c 0
 156 380.66796875 127.666992188 387.66796875 99 391.000976562 c 0
 70.3330078125 394.333984375 41.666015625 396.000976562 12.9990234375 396.000976562 c 1
 12.9990234375 404.000976562 14.666015625 411.833984375 17.9990234375 419.500976562 c 0
 21.33203125 427.16796875 24.9990234375 434.334960938 28.9990234375 441.001953125 c 0
 53.666015625 481.001953125 83.4990234375 513.834960938 118.499023438 539.501953125 c 0
 153.499023438 565.168945312 192.999023438 584.668945312 236.999023438 598.001953125 c 1
 234.33203125 604.001953125 232.999023438 611.001953125 232.999023438 619.001953125 c 1
 233.666015625 618.334960938 232.333007812 622.834960938 229 632.501953125 c 0
 225.666992188 642.168945312 222 652.668945312 218 664.001953125 c 0
 214 675.334960938 210.5 685.66796875 207.5 695.000976562 c 0
 204.5 704.333984375 203.333007812 708.666992188 204 708 c 2
 220 709 l 2
 229.333007812 709 237.5 708.5 244.5 707.5 c 0
 251.5 706.5 257.666992188 706 263 706 c 0
 268.333007812 706 273 707 277 709 c 2
 358 728 l 1
 354 703 l 1
 342 658 l 1
EndSplineSet
EndChar

StartChar: percent
Encoding: 37 37 7
Width: 548
GlyphClass: 2
Flags: W
LayerCount: 2
Fore
SplineSet
281 308 m 1
 267.666992188 300.666992188 257 290.50390625 249 277.50390625 c 0
 241 264.50390625 234.666992188 249.836914062 230 233.50390625 c 0
 225.333007812 217.170898438 222.333007812 199.837890625 221 181.504882812 c 0
 219.666992188 163.171875 219 145.004882812 219 127.004882812 c 0
 219 111.671875 219.166992188 96.5048828125 219.5 81.5048828125 c 0
 219.833007812 66.5048828125 220.666015625 53.0048828125 221.999023438 41.0048828125 c 2
 224.999023438 14.0048828125 l 1
 218.499023438 7.5048828125 l 2
 216.166015625 5.171875 214.333007812 3.671875 213 3.0048828125 c 2
 203 3.0048828125 l 2
 189.666992188 3.0048828125 175.5 5.837890625 160.5 11.5048828125 c 0
 145.5 17.171875 130.5 24.171875 115.5 32.5048828125 c 0
 100.5 40.837890625 86.3330078125 49.5048828125 73 58.5048828125 c 0
 59.6669921875 67.5048828125 48.333984375 75.337890625 39.0009765625 82.0048828125 c 2
 33.0009765625 87.0048828125 l 1
 30.0009765625 103.004882812 l 2
 30.0009765625 114.337890625 33.16796875 127.670898438 39.5009765625 143.00390625 c 0
 45.833984375 158.336914062 53.833984375 173.669921875 63.5009765625 189.002929688 c 0
 73.16796875 204.3359375 83.66796875 219.002929688 95.0009765625 233.002929688 c 0
 106.333984375 247.002929688 117.000976562 258.3359375 127.000976562 267.002929688 c 0
 171.66796875 309.669921875 206.66796875 346.669921875 232.000976562 378.002929688 c 0
 257.333984375 409.3359375 276.166992188 437.002929688 288.5 461.002929688 c 0
 300.833007812 485.002929688 308.333007812 506.169921875 311 524.502929688 c 0
 313.666992188 542.8359375 315 560.668945312 315 578.001953125 c 0
 315 596.668945312 314.333007812 614.3359375 313 631.002929688 c 0
 311.666992188 647.669921875 310.333984375 662.669921875 309.000976562 676.002929688 c 0
 307.66796875 677.3359375 307.000976562 680.668945312 307.000976562 686.001953125 c 2
 307.000976562 696.001953125 l 1
 313.500976562 702.501953125 l 2
 315.833984375 704.834960938 317.666992188 706.334960938 319 707.001953125 c 2
 329 708.001953125 l 2
 342.333007812 708.001953125 356 705.501953125 370 700.501953125 c 0
 384 695.501953125 397.666992188 689.168945312 411 681.501953125 c 0
 424.333007812 673.834960938 437.333007812 665.834960938 450 657.501953125 c 0
 462.666992188 649.168945312 474 641.668945312 484 635.001953125 c 0
 485.333007812 634.334960938 486.166015625 633.66796875 486.499023438 633.000976562 c 0
 486.83203125 632.333984375 487.665039062 631.666992188 488.998046875 631 c 0
 490.998046875 628.333007812 492.831054688 626.666015625 494.498046875 625.999023438 c 0
 496.165039062 625.33203125 497.33203125 624.665039062 497.999023438 623.998046875 c 2
 498.999023438 607.998046875 l 2
 498.999023438 596.665039062 495.999023438 583.33203125 489.999023438 567.999023438 c 0
 483.999023438 552.666015625 476.33203125 537.333007812 466.999023438 522 c 0
 457.666015625 506.666992188 447.333007812 492 436 478 c 0
 424.666992188 464 413.666992188 452.666992188 403 444 c 2
 281 308 l 1
245 604.00390625 m 0
 245 566.00390625 236.669921875 530.334960938 220.002929688 497.001953125 c 0
 203.3359375 463.668945312 182.3359375 431.668945312 157.002929688 401.001953125 c 1
 148.002929688 393.001953125 l 1
 147.502929688 392.501953125 l 2
 147.169921875 392.168945312 146.336914062 392.001953125 145.00390625 392.001953125 c 0
 144.336914062 392.001953125 143.836914062 392.168945312 143.50390625 392.501953125 c 2
 143.00390625 393.001953125 l 2
 138.336914062 393.668945312 131.669921875 395.8359375 123.002929688 399.502929688 c 0
 114.3359375 403.169921875 105.668945312 407.169921875 97.001953125 411.502929688 c 0
 88.3349609375 415.8359375 80.8349609375 420.3359375 74.501953125 425.002929688 c 0
 68.1689453125 429.669921875 65.001953125 433.669921875 65.001953125 437.002929688 c 0
 65.001953125 440.3359375 67.001953125 442.668945312 71.001953125 444.001953125 c 0
 75.001953125 445.334960938 77.001953125 448.001953125 77.001953125 452.001953125 c 0
 77.001953125 452.668945312 76.8349609375 453.501953125 76.501953125 454.501953125 c 2
 76.001953125 456.001953125 l 1
 57.3349609375 481.334960938 42.16796875 506.834960938 30.5009765625 532.501953125 c 0
 18.833984375 558.168945312 13.0009765625 586.001953125 13.0009765625 616.001953125 c 0
 13.0009765625 646.001953125 18.833984375 672.501953125 30.5009765625 695.501953125 c 0
 42.16796875 718.501953125 64.0009765625 737.001953125 96.0009765625 751.001953125 c 2
 107.000976562 756.001953125 l 1
 178.000976562 709.001953125 l 1
 184.000976562 714.001953125 l 1
 188.000976562 722.001953125 l 2
 189.333984375 724.668945312 190.000976562 727.3359375 190.000976562 730.002929688 c 0
 190.000976562 732.002929688 189.833984375 733.8359375 189.500976562 735.502929688 c 0
 189.16796875 737.169921875 189.000976562 739.669921875 189.000976562 743.002929688 c 1
 199.66796875 735.669921875 208.66796875 726.336914062 216.000976562 715.00390625 c 0
 223.333984375 703.670898438 229.166992188 691.50390625 233.5 678.50390625 c 0
 237.833007812 665.50390625 240.833007812 652.50390625 242.5 639.50390625 c 0
 244.166992188 626.50390625 245 614.670898438 245 604.00390625 c 0
160.002929688 635.001953125 m 2
 160.002929688 648.001953125 l 1
 159.002929688 652.001953125 l 2
 157.669921875 655.334960938 156.669921875 657.66796875 156.002929688 659.000976562 c 0
 155.3359375 660.333984375 153.002929688 661.000976562 149.002929688 661.000976562 c 0
 138.3359375 661.000976562 129.8359375 657.16796875 123.502929688 649.500976562 c 0
 117.169921875 641.833984375 112.502929688 632.500976562 109.502929688 621.500976562 c 0
 106.502929688 610.500976562 104.502929688 599.16796875 103.502929688 587.500976562 c 0
 102.502929688 575.833984375 102.002929688 566.000976562 102.002929688 558.000976562 c 2
 102.002929688 545.000976562 l 2
 102.002929688 539.000976562 102.502929688 533.333984375 103.502929688 528.000976562 c 0
 104.502929688 522.66796875 107.669921875 520.000976562 113.002929688 520.000976562 c 0
 121.002929688 520.000976562 127.8359375 524.66796875 133.502929688 534.000976562 c 0
 139.169921875 543.333984375 144.002929688 554.333984375 148.002929688 567.000976562 c 0
 152.002929688 579.66796875 155.002929688 592.334960938 157.002929688 605.001953125 c 0
 159.002929688 617.668945312 160.002929688 627.668945312 160.002929688 635.001953125 c 2
531.002929688 173.001953125 m 0
 531.002929688 135.001953125 522.502929688 99.333984375 505.502929688 66.0009765625 c 0
 488.502929688 32.66796875 467.669921875 0.66796875 443.002929688 -29.9990234375 c 1
 433.002929688 -37.9990234375 l 1
 432.502929688 -38.4990234375 l 2
 432.169921875 -38.83203125 431.669921875 -38.9990234375 431.002929688 -38.9990234375 c 0
 430.3359375 -38.9990234375 429.8359375 -38.83203125 429.502929688 -38.4990234375 c 2
 429.002929688 -37.9990234375 l 2
 423.669921875 -37.33203125 416.669921875 -35.1650390625 408.002929688 -31.498046875 c 0
 399.3359375 -27.8310546875 390.8359375 -23.8310546875 382.502929688 -19.498046875 c 0
 374.169921875 -15.1650390625 366.836914062 -10.6650390625 360.50390625 -5.998046875 c 0
 354.170898438 -1.3310546875 351.00390625 2.6689453125 351.00390625 6.001953125 c 0
 351.00390625 9.3349609375 353.00390625 11.66796875 357.00390625 13.0009765625 c 0
 361.00390625 14.333984375 363.00390625 17.0009765625 363.00390625 21.0009765625 c 0
 363.00390625 21.66796875 362.670898438 22.5009765625 362.00390625 23.5009765625 c 2
 361.00390625 25.0009765625 l 2
 342.336914062 50.333984375 327.336914062 75.833984375 316.00390625 101.500976562 c 0
 304.670898438 127.16796875 299.00390625 155.000976562 299.00390625 185.000976562 c 0
 299.00390625 215.000976562 304.836914062 241.500976562 316.50390625 264.500976562 c 0
 328.170898438 287.500976562 350.00390625 306.000976562 382.00390625 320.000976562 c 2
 393.00390625 325.000976562 l 1
 463.00390625 278.000976562 l 1
 469.00390625 283.000976562 l 2
 473.00390625 287.66796875 475.00390625 293.000976562 475.00390625 299.000976562 c 0
 475.00390625 301.000976562 474.836914062 302.833984375 474.50390625 304.500976562 c 0
 474.170898438 306.16796875 474.00390625 308.66796875 474.00390625 312.000976562 c 1
 484.670898438 304.66796875 493.670898438 295.334960938 501.00390625 284.001953125 c 0
 508.336914062 272.668945312 514.169921875 260.501953125 518.502929688 247.501953125 c 0
 522.8359375 234.501953125 526.002929688 221.501953125 528.002929688 208.501953125 c 0
 530.002929688 195.501953125 531.002929688 183.668945312 531.002929688 173.001953125 c 0
445.002929688 204.000976562 m 2
 445.002929688 217.000976562 l 1
 444.002929688 221.000976562 l 2
 443.3359375 224.333984375 442.668945312 226.666992188 442.001953125 228 c 0
 441.334960938 229.333007812 439.001953125 230 435.001953125 230 c 0
 423.668945312 230 415.001953125 226.166992188 409.001953125 218.5 c 0
 403.001953125 210.833007812 398.334960938 201.5 395.001953125 190.5 c 0
 391.668945312 179.5 389.668945312 168.166992188 389.001953125 156.5 c 0
 388.334960938 144.833007812 388.001953125 135 388.001953125 127 c 2
 388.001953125 114 l 2
 388.001953125 108 388.501953125 102.333007812 389.501953125 97 c 0
 390.501953125 91.6669921875 393.668945312 89 399.001953125 89 c 0
 407.001953125 89 413.834960938 93.6669921875 419.501953125 103 c 0
 425.168945312 112.333007812 429.8359375 123.333007812 433.502929688 136 c 0
 437.169921875 148.666992188 440.002929688 161.333984375 442.002929688 174.000976562 c 0
 444.002929688 186.66796875 445.002929688 196.66796875 445.002929688 204.000976562 c 2
EndSplineSet
EndChar

StartChar: ampersand
Encoding: 38 38 8
Width: 634
GlyphClass: 2
Flags: W
LayerCount: 2
Fore
SplineSet
481 349 m 2
 483.666992188 349 486.168945312 349.169921875 488.501953125 349.502929688 c 0
 490.834960938 349.8359375 493.66796875 350.3359375 497.000976562 351.002929688 c 2
 611.000976562 360.002929688 l 1
 604.000976562 330.002929688 l 2
 604.000976562 323.3359375 604.16796875 318.168945312 604.500976562 314.501953125 c 0
 604.833984375 310.834960938 605.000976562 307.001953125 605.000976562 303.001953125 c 0
 605.000976562 299.668945312 605.16796875 295.501953125 605.500976562 290.501953125 c 0
 605.833984375 285.501953125 606.333984375 278.668945312 607.000976562 270.001953125 c 0
 607.000976562 255.334960938 609.000976562 242.66796875 613.000976562 232.000976562 c 1
 543.000976562 248.000976562 l 1
 548.333984375 236.66796875 552.333984375 223.334960938 555.000976562 208.001953125 c 0
 557.66796875 192.668945312 559.000976562 178.3359375 559.000976562 165.002929688 c 0
 559.000976562 127.669921875 557.333984375 98.669921875 554.000976562 78.0029296875 c 0
 550.66796875 57.3359375 543.334960938 42.0029296875 532.001953125 32.0029296875 c 0
 520.668945312 22.0029296875 504.3359375 16.0029296875 483.002929688 14.0029296875 c 0
 461.669921875 12.0029296875 433.002929688 11.0029296875 397.002929688 11.0029296875 c 2
 378.002929688 11.0029296875 l 1
 369.002929688 11.0029296875 l 2
 363.002929688 11.0029296875 359.669921875 11.3359375 359.002929688 12.0029296875 c 2
 300.002929688 63.0029296875 l 1
 263.002929688 -11.9970703125 l 1
 216.3359375 0.0029296875 177.668945312 18.0029296875 147.001953125 42.0029296875 c 0
 130.334960938 53.3359375 114.501953125 68.1689453125 99.501953125 86.501953125 c 0
 84.501953125 104.834960938 71.1689453125 124.501953125 59.501953125 145.501953125 c 0
 47.8349609375 166.501953125 38.66796875 188.001953125 32.0009765625 210.001953125 c 0
 25.333984375 232.001953125 22.0009765625 252.001953125 22.0009765625 270.001953125 c 0
 22.0009765625 307.334960938 33.333984375 333.66796875 56.0009765625 349.000976562 c 0
 78.66796875 364.333984375 107.334960938 373.333984375 142.001953125 376.000976562 c 1
 128.668945312 387.333984375 116.501953125 398.166992188 105.501953125 408.5 c 0
 94.501953125 418.833007812 85.001953125 429.5 77.001953125 440.5 c 0
 69.001953125 451.5 62.8349609375 463.166992188 58.501953125 475.5 c 0
 54.1689453125 487.833007812 52.001953125 501.666015625 52.001953125 516.999023438 c 2
 52.001953125 519.999023438 l 2
 52.001953125 546.666015625 57.3349609375 568.999023438 68.001953125 586.999023438 c 0
 78.6689453125 604.999023438 93.501953125 619.499023438 112.501953125 630.499023438 c 0
 131.501953125 641.499023438 154.001953125 649.33203125 180.001953125 653.999023438 c 0
 206.001953125 658.666015625 234.001953125 660.999023438 264.001953125 660.999023438 c 2
 301.001953125 663.999023438 l 1
 366.001953125 608.999023438 l 1
 412.001953125 692.999023438 l 1
 431.001953125 686.999023438 l 1
 446.334960938 676.999023438 462.834960938 665.33203125 480.501953125 651.999023438 c 0
 498.168945312 638.666015625 514.3359375 625.333007812 529.002929688 612 c 0
 543.669921875 598.666992188 555.836914062 585.833984375 565.50390625 573.500976562 c 0
 575.170898438 561.16796875 580.00390625 550.66796875 580.00390625 542.000976562 c 0
 580.00390625 538.66796875 577.50390625 536.16796875 572.50390625 534.500976562 c 0
 567.50390625 532.833984375 561.50390625 531.500976562 554.50390625 530.500976562 c 0
 547.50390625 529.500976562 539.836914062 528.333984375 531.50390625 527.000976562 c 0
 523.170898438 525.66796875 516.00390625 523.66796875 510.00390625 521.000976562 c 2
 420.00390625 454.000976562 l 1
 416.00390625 462.000976562 406.670898438 470.333984375 392.00390625 479.000976562 c 0
 377.336914062 487.66796875 360.669921875 498.66796875 342.002929688 512.000976562 c 1
 357.002929688 563.000976562 l 1
 349.002929688 563.000976562 l 2
 335.002929688 562.333984375 319.502929688 561.166992188 302.502929688 559.5 c 0
 285.502929688 557.833007812 269.8359375 554.833007812 255.502929688 550.5 c 0
 241.169921875 546.166992188 229.169921875 540 219.502929688 532 c 0
 209.8359375 524 205.002929688 513 205.002929688 499 c 0
 205.002929688 487 208.669921875 475.5 216.002929688 464.5 c 0
 223.3359375 453.5 232.668945312 443.166992188 244.001953125 433.5 c 0
 255.334960938 423.833007812 268.16796875 414.833007812 282.500976562 406.5 c 0
 296.833984375 398.166992188 310.666992188 391 324 385 c 0
 328.666992188 383.666992188 342 379.5 364 372.5 c 0
 386 365.5 411 358.333007812 439 351 c 1
 481 349 l 2
366.001953125 106.002929688 m 1
 379.001953125 104.00390625 l 1
 389.668945312 108.00390625 396.668945312 113.00390625 400.001953125 119.00390625 c 0
 403.334960938 125.00390625 405.001953125 131.670898438 405.001953125 139.00390625 c 0
 405.001953125 146.336914062 404.168945312 155.669921875 402.501953125 167.002929688 c 0
 400.834960938 178.3359375 400.001953125 188.002929688 400.001953125 196.002929688 c 0
 400.001953125 208.002929688 397.001953125 219.169921875 391.001953125 229.502929688 c 0
 385.001953125 239.8359375 377.168945312 249.668945312 367.501953125 259.001953125 c 0
 357.834960938 268.334960938 346.66796875 277.001953125 334.000976562 285.001953125 c 0
 321.333984375 293.001953125 308.333984375 300.334960938 295.000976562 307.001953125 c 0
 287.66796875 309.001953125 280.500976562 311.168945312 273.500976562 313.501953125 c 0
 266.500976562 315.834960938 259.333984375 318.334960938 252.000976562 321.001953125 c 1
 244.000976562 319.001953125 235.833984375 316.001953125 227.500976562 312.001953125 c 0
 219.16796875 308.001953125 211.334960938 303.168945312 204.001953125 297.501953125 c 0
 196.668945312 291.834960938 190.668945312 285.334960938 186.001953125 278.001953125 c 0
 181.334960938 270.668945312 179.001953125 263.001953125 179.001953125 255.001953125 c 0
 179.001953125 229.668945312 188.001953125 206.8359375 206.001953125 186.502929688 c 0
 224.001953125 166.169921875 245.668945312 148.669921875 271.001953125 134.002929688 c 1
 366.001953125 106.002929688 l 1
EndSplineSet
EndChar

StartChar: quotesingle
Encoding: 39 39 9
Width: 195
GlyphClass: 2
Flags: W
LayerCount: 2
Fore
SplineSet
66 592 m 1
 63.9990234375 606.998046875 l 2
 63.9990234375 618.998046875 59.83203125 628.331054688 51.4990234375 634.998046875 c 0
 43.166015625 641.665039062 34.3330078125 650.998046875 25 662.998046875 c 1
 25 696.998046875 l 2
 25.6669921875 699.665039062 28.6669921875 701.665039062 34 702.998046875 c 0
 39.3330078125 704.331054688 45.666015625 705.498046875 52.9990234375 706.498046875 c 0
 60.33203125 707.498046875 67.83203125 708.165039062 75.4990234375 708.498046875 c 0
 83.166015625 708.831054688 89.666015625 708.998046875 94.9990234375 708.998046875 c 2
 100.999023438 708.998046875 l 1
 104.999023438 709.998046875 l 1
 150.999023438 705.998046875 l 2
 153.666015625 705.998046875 156.166015625 704.331054688 158.499023438 700.998046875 c 0
 160.83203125 697.665039062 162.999023438 693.998046875 164.999023438 689.998046875 c 0
 166.999023438 685.998046875 168.666015625 682.331054688 169.999023438 678.998046875 c 2
 171.999023438 673.998046875 l 2
 171.999023438 670.665039062 171.83203125 664.33203125 171.499023438 654.999023438 c 0
 171.166015625 645.666015625 170.333007812 638.999023438 169 634.999023438 c 0
 165 617.666015625 160.333007812 603.333007812 155 592 c 0
 149.666992188 580.666992188 142.166992188 571 132.5 563 c 0
 122.833007812 555 110.333007812 548 95 542 c 0
 79.6669921875 536 60 529.666992188 36 523 c 1
 66 592 l 1
EndSplineSet
EndChar

StartChar: parenleft
Encoding: 40 40 10
Width: 369
GlyphClass: 2
Flags: W
LayerCount: 2
Fore
SplineSet
159 234 m 0
 159 228.666992188 161.163085938 217.166992188 165.49609375 199.5 c 0
 169.829101562 181.833007812 175.829101562 162 183.49609375 140 c 0
 191.163085938 118 199.830078125 95.5 209.497070312 72.5 c 0
 219.1640625 49.5 229.331054688 30 239.998046875 14 c 0
 240.665039062 10.6669921875 241.33203125 8.6669921875 241.999023438 8 c 0
 242.666015625 7.3330078125 242.999023438 7.666015625 242.999023438 8.9990234375 c 1
 242.999023438 5.666015625 240.33203125 2.8330078125 234.999023438 0.5 c 0
 229.666015625 -1.8330078125 224.999023438 -3 220.999023438 -3 c 0
 218.33203125 -3 214.83203125 -2.5 210.499023438 -1.5 c 0
 206.166015625 -0.5 201.833007812 0.6669921875 197.5 2 c 0
 193.166992188 3.3330078125 189.166992188 5.166015625 185.5 7.4990234375 c 0
 181.833007812 9.83203125 179.333007812 12.33203125 178 14.9990234375 c 0
 158 52.9990234375 138.5 88.33203125 119.5 120.999023438 c 0
 100.5 153.666015625 83.8330078125 186.166015625 69.5 218.499023438 c 0
 55.1669921875 250.83203125 43.6669921875 284.499023438 35 319.499023438 c 0
 26.3330078125 354.499023438 22 393.666015625 22 436.999023438 c 0
 22 497.666015625 34.6669921875 550.166015625 60 594.499023438 c 0
 85.3330078125 638.83203125 129.333007812 676.33203125 192 706.999023438 c 1
 214 715.999023438 l 1
 354 623.999023438 l 1
 346 617.999023438 l 2
 342 615.33203125 333 608.33203125 319 596.999023438 c 0
 305 585.666015625 288.666992188 569.833007812 270 549.5 c 0
 251.333007812 529.166992188 231.833007812 503.833984375 211.5 473.500976562 c 0
 191.166992188 443.16796875 173 408.000976562 157 368.000976562 c 0
 156.333007812 364.66796875 155.833007812 359.16796875 155.5 351.500976562 c 0
 155.166992188 343.833984375 155 333.666992188 155 321 c 0
 155 310.333007812 155.333007812 297.833007812 156 283.5 c 0
 156.666992188 269.166992188 157.666992188 252.666992188 159 234 c 0
EndSplineSet
EndChar

StartChar: parenright
Encoding: 41 41 11
Width: 376
GlyphClass: 2
Flags: W
LayerCount: 2
Fore
SplineSet
215 480 m 0
 215 485.333007812 212.668945312 496.83203125 208.001953125 514.499023438 c 0
 203.334960938 532.166015625 197.16796875 552.166015625 189.500976562 574.499023438 c 0
 181.833984375 596.83203125 173.166992188 619.33203125 163.5 641.999023438 c 0
 153.833007812 664.666015625 143.666015625 683.999023438 132.999023438 699.999023438 c 0
 132.33203125 703.33203125 131.83203125 705.33203125 131.499023438 705.999023438 c 0
 131.166015625 706.666015625 130.999023438 706.333007812 130.999023438 705 c 1
 130.999023438 708.333007812 133.499023438 711.166015625 138.499023438 713.499023438 c 0
 143.499023438 715.83203125 148.33203125 716.999023438 152.999023438 716.999023438 c 0
 155.666015625 716.999023438 159.166015625 716.499023438 163.499023438 715.499023438 c 0
 167.83203125 714.499023438 172.165039062 713.33203125 176.498046875 711.999023438 c 0
 180.831054688 710.666015625 184.831054688 708.833007812 188.498046875 706.5 c 0
 192.165039062 704.166992188 194.665039062 701.666992188 195.998046875 699 c 0
 215.998046875 661 235.331054688 625.833007812 253.998046875 593.5 c 0
 272.665039062 561.166992188 289.33203125 528.666992188 303.999023438 496 c 0
 318.666015625 463.333007812 330.333007812 429.5 339 394.5 c 0
 347.666992188 359.5 352 320.333007812 352 277 c 0
 352 216.333007812 339.166992188 163.833007812 313.5 119.5 c 0
 287.833007812 75.1669921875 243.666015625 37.6669921875 180.999023438 7 c 2
 159.999023438 -2 l 1
 18.9990234375 90 l 1
 27.9990234375 96 l 2
 31.33203125 98.6669921875 39.9990234375 105.666992188 53.9990234375 117 c 0
 67.9990234375 128.333007812 84.33203125 144.166015625 102.999023438 164.499023438 c 0
 121.666015625 184.83203125 141.166015625 209.999023438 161.499023438 239.999023438 c 0
 181.83203125 269.999023438 199.999023438 305.33203125 215.999023438 345.999023438 c 0
 216.666015625 349.33203125 217.333007812 354.83203125 218 362.499023438 c 0
 218.666992188 370.166015625 219 380.333007812 219 393 c 0
 219 403.666992188 218.666992188 416.166992188 218 430.5 c 0
 217.333007812 444.833007812 216.333007812 461.333007812 215 480 c 0
EndSplineSet
EndChar

StartChar: asterisk
Encoding: 42 42 12
Width: 323
GlyphClass: 2
Flags: W
LayerCount: 2
Fore
SplineSet
213 617 m 1
 290.997070312 563.997070312 l 1
 263.997070312 552.997070312 l 1
 245.997070312 537.997070312 l 2
 243.330078125 535.330078125 240.830078125 532.330078125 238.497070312 528.997070312 c 0
 236.1640625 525.6640625 232.331054688 521.331054688 226.998046875 515.998046875 c 0
 222.998046875 512.665039062 218.998046875 508.998046875 214.998046875 504.998046875 c 0
 210.998046875 500.998046875 207.665039062 496.665039062 204.998046875 491.998046875 c 1
 149.998046875 572.998046875 l 1
 129.998046875 559.998046875 l 2
 118.665039062 553.998046875 108.498046875 549.165039062 99.498046875 545.498046875 c 0
 90.498046875 541.831054688 81.998046875 538.831054688 73.998046875 536.498046875 c 0
 65.998046875 534.165039062 57.8310546875 531.998046875 49.498046875 529.998046875 c 0
 41.1650390625 527.998046875 31.6650390625 525.665039062 20.998046875 522.998046875 c 1
 27.6650390625 529.665039062 33.33203125 535.83203125 37.9990234375 541.499023438 c 0
 42.666015625 547.166015625 47.3330078125 552.999023438 52 558.999023438 c 0
 56.6669921875 564.999023438 61.6669921875 571.499023438 67 578.499023438 c 0
 72.3330078125 585.499023438 79 593.666015625 87 602.999023438 c 2
 106 624.999023438 l 1
 89 647.999023438 l 2
 86.3330078125 653.33203125 83.5 659.499023438 80.5 666.499023438 c 2
 71.5 687.499023438 l 2
 68.5 694.499023438 66 700.999023438 64 706.999023438 c 0
 62 712.999023438 61 717.999023438 61 721.999023438 c 2
 61 737.999023438 l 1
 65 750.999023438 l 1
 70 749.999023438 l 1
 150 671.999023438 l 1
 165 690.999023438 l 1
 199 748.999023438 l 1
 226 729.499023438 l 2
 232 725.166015625 238.666992188 722.333007812 246 721 c 2
 304 692 l 1
 289 675 l 1
 252 647 l 1
 252 644 l 1
 213 617 l 1
EndSplineSet
EndChar

StartChar: plus
Encoding: 43 43 13
Width: 447
GlyphClass: 2
Flags: W
LayerCount: 2
Fore
SplineSet
286 407 m 1
 288.666992188 407 290.99609375 407.166992188 292.99609375 407.5 c 0
 294.99609375 407.833007812 297.663085938 408.333007812 300.99609375 409 c 2
 420.99609375 418 l 1
 410.99609375 388 l 2
 410.99609375 381.333007812 411.163085938 376.166015625 411.49609375 372.499023438 c 0
 411.829101562 368.83203125 411.99609375 364.999023438 411.99609375 360.999023438 c 0
 411.99609375 357.666015625 412.163085938 353.499023438 412.49609375 348.499023438 c 0
 412.829101562 343.499023438 413.329101562 336.666015625 413.99609375 327.999023438 c 0
 413.99609375 321.33203125 414.99609375 314.665039062 416.99609375 307.998046875 c 0
 418.99609375 301.331054688 421.329101562 295.331054688 423.99609375 289.998046875 c 1
 276.99609375 319.998046875 l 1
 273.99609375 294.998046875 l 2
 267.329101562 266.998046875 259.829101562 239.831054688 251.49609375 213.498046875 c 0
 243.163085938 187.165039062 232.330078125 163.665039062 218.997070312 142.998046875 c 1
 216.997070312 169.665039062 214.330078125 198.165039062 210.997070312 228.498046875 c 0
 207.6640625 258.831054688 201.331054688 294.998046875 191.998046875 336.998046875 c 1
 154.998046875 345.998046875 l 2
 146.998046875 349.331054688 137.331054688 352.998046875 125.998046875 356.998046875 c 0
 114.665039062 360.998046875 103.665039062 365.165039062 92.998046875 369.498046875 c 0
 82.3310546875 373.831054688 72.498046875 377.998046875 63.498046875 381.998046875 c 0
 54.498046875 385.998046875 48.3310546875 389.665039062 44.998046875 392.998046875 c 0
 42.998046875 394.998046875 39.8310546875 397.331054688 35.498046875 399.998046875 c 2
 28.998046875 403.998046875 l 1
 14.998046875 416.998046875 l 1
 17.998046875 418.998046875 l 1
 177.998046875 408.998046875 l 1
 176.665039062 412.998046875 175.33203125 417.498046875 173.999023438 422.498046875 c 0
 172.666015625 427.498046875 171.666015625 432.665039062 170.999023438 437.998046875 c 1
 171.666015625 437.331054688 170.333007812 441.331054688 167 449.998046875 c 0
 163.666992188 458.665039062 160 468.33203125 156 478.999023438 c 0
 152 489.666015625 148.333007812 499.333007812 145 508 c 0
 141.666992188 516.666992188 140.666992188 520.666992188 142 520 c 0
 160.666992188 521.333007812 174.5 522.333007812 183.5 523 c 0
 192.5 523.666992188 201 525.666992188 209 529 c 2
 286 547 l 1
 292 522 l 1
 289 464 l 1
 292 461 l 1
 286 407 l 1
EndSplineSet
EndChar

StartChar: comma
Encoding: 44 44 14
Width: 204
GlyphClass: 2
Flags: W
LayerCount: 2
Fore
SplineSet
51 -36 m 2
 57.6669921875 -23.3330078125 60.9990234375 -10.666015625 60.9990234375 2.0009765625 c 0
 60.9990234375 10.66796875 59.83203125 17.66796875 57.4990234375 23.0009765625 c 0
 55.166015625 28.333984375 51.9990234375 33.1669921875 47.9990234375 37.5 c 0
 43.9990234375 41.8330078125 39.33203125 46.666015625 33.9990234375 51.9990234375 c 0
 28.666015625 57.33203125 22.9990234375 63.9990234375 16.9990234375 71.9990234375 c 1
 24.9990234375 87.9990234375 l 2
 25.666015625 90.666015625 29.3330078125 92.9990234375 36 94.9990234375 c 0
 42.6669921875 96.9990234375 50.1669921875 98.666015625 58.5 99.9990234375 c 0
 66.8330078125 101.33203125 75.3330078125 102.33203125 84 102.999023438 c 0
 92.6669921875 103.666015625 99.6669921875 103.999023438 105 103.999023438 c 2
 111 103.999023438 l 1
 114 104.999023438 l 1
 163 98.9990234375 l 2
 167.666992188 98.9990234375 171.666992188 95.4990234375 175 88.4990234375 c 0
 178.333007812 81.4990234375 181.333007812 77.33203125 184 75.9990234375 c 0
 185.333007812 75.9990234375 186 75.666015625 186 74.9990234375 c 2
 186 73.9990234375 l 2
 186.666992188 73.33203125 187 71.33203125 187 67.9990234375 c 2
 187 65.9990234375 l 1
 188.333007812 65.9990234375 189 64.33203125 189 60.9990234375 c 0
 189 57.666015625 188.666992188 54.4990234375 188 51.4990234375 c 0
 187.333007812 48.4990234375 186.666015625 44.9990234375 185.999023438 40.9990234375 c 0
 181.999023438 23.666015625 176.666015625 9.4990234375 169.999023438 -1.5009765625 c 0
 163.33203125 -12.5009765625 153.83203125 -22.5009765625 141.499023438 -31.5009765625 c 0
 129.166015625 -40.5009765625 113.333007812 -49.66796875 94 -59.0009765625 c 0
 74.6669921875 -68.333984375 50.6669921875 -79.6669921875 22 -93 c 1
 51 -36 l 2
EndSplineSet
EndChar

StartChar: hyphen
Encoding: 45 45 15
Width: 357
GlyphClass: 2
Flags: W
LayerCount: 2
Fore
SplineSet
29 280 m 1
 31 286 33.333984375 292.831054688 36.0009765625 300.498046875 c 0
 38.66796875 308.165039062 40.0009765625 315.998046875 40.0009765625 323.998046875 c 2
 40.0009765625 343.998046875 l 2
 40.0009765625 349.331054688 40.16796875 353.831054688 40.5009765625 357.498046875 c 0
 40.833984375 361.165039062 41.0009765625 364.665039062 41.0009765625 367.998046875 c 2
 41.0009765625 383.998046875 l 1
 27.0009765625 413.998046875 l 1
 106.000976562 409.998046875 l 2
 107.333984375 409.998046875 109.000976562 409.665039062 111.000976562 408.998046875 c 0
 113.000976562 408.331054688 114.333984375 407.998046875 115.000976562 407.998046875 c 0
 122.333984375 406.665039062 128.166992188 405.83203125 132.5 405.499023438 c 0
 136.833007812 405.166015625 143.333007812 404.999023438 152 404.999023438 c 2
 173 404.999023438 l 1
 333 431.999023438 l 2
 333 432.666015625 332.333007812 431.333007812 331 428 c 0
 329.666992188 424.666992188 328.166992188 421 326.5 417 c 0
 324.833007812 413 323 409 321 405 c 0
 319 401 317.666992188 398.666992188 317 398 c 0
 310.333007812 390.666992188 302.333007812 383 293 375 c 0
 283.666992188 367 271 359.666992188 255 353 c 2
 29 280 l 1
EndSplineSet
EndChar

StartChar: period
Encoding: 46 46 16
Width: 204
GlyphClass: 2
Flags: W
LayerCount: 2
Fore
SplineSet
181 70 m 2
 181 62.6669921875 180.669921875 57.9970703125 180.002929688 55.9970703125 c 0
 179.3359375 53.9970703125 179.002929688 51.6640625 179.002929688 48.9970703125 c 0
 179.002929688 46.330078125 178.502929688 43.330078125 177.502929688 39.9970703125 c 0
 176.502929688 36.6640625 173.669921875 30.3310546875 169.002929688 20.998046875 c 0
 167.669921875 18.998046875 166.669921875 16.6650390625 166.002929688 13.998046875 c 0
 165.3359375 11.3310546875 164.002929688 8.3310546875 162.002929688 4.998046875 c 2
 160.002929688 -0.001953125 l 2
 157.3359375 -5.3349609375 154.668945312 -10.3349609375 152.001953125 -15.001953125 c 0
 149.334960938 -19.6689453125 144.66796875 -22.001953125 138.000976562 -22.001953125 c 0
 136.66796875 -22.001953125 134.500976562 -21.8349609375 131.500976562 -21.501953125 c 0
 128.500976562 -21.1689453125 126.66796875 -21.001953125 126.000976562 -21.001953125 c 0
 114.66796875 -19.6689453125 100.500976562 -16.6689453125 83.5009765625 -12.001953125 c 0
 66.5009765625 -7.3349609375 50.333984375 -3.3349609375 35.0009765625 -0.001953125 c 1
 18.0009765625 24.998046875 l 1
 19.0009765625 37.998046875 l 1
 33.0009765625 92.998046875 l 2
 34.333984375 101.665039062 36.1669921875 107.33203125 38.5 109.999023438 c 0
 40.8330078125 112.666015625 47 116.333007812 57 121 c 1
 171 102 l 1
 181 83 l 1
 181 70 l 2
EndSplineSet
EndChar

StartChar: slash
Encoding: 47 47 17
Width: 495
GlyphClass: 2
Flags: W
LayerCount: 2
Fore
SplineSet
264 308 m 1
 250.666992188 300.666992188 239.998046875 290.500976562 231.998046875 277.500976562 c 0
 223.998046875 264.500976562 217.665039062 249.833984375 212.998046875 233.500976562 c 0
 208.331054688 217.16796875 205.331054688 199.834960938 203.998046875 181.501953125 c 0
 202.665039062 163.168945312 201.998046875 145.001953125 201.998046875 127.001953125 c 0
 201.998046875 111.668945312 202.165039062 96.501953125 202.498046875 81.501953125 c 0
 202.831054688 66.501953125 203.6640625 53.001953125 204.997070312 41.001953125 c 2
 207.997070312 14.001953125 l 1
 201.497070312 7.501953125 l 2
 199.1640625 5.1689453125 197.331054688 3.6689453125 195.998046875 3.001953125 c 2
 185.998046875 3.001953125 l 2
 173.331054688 3.001953125 159.498046875 5.8349609375 144.498046875 11.501953125 c 0
 129.498046875 17.1689453125 114.498046875 24.1689453125 99.498046875 32.501953125 c 0
 84.498046875 40.8349609375 70.1650390625 49.501953125 56.498046875 58.501953125 c 0
 42.8310546875 67.501953125 31.3310546875 75.3349609375 21.998046875 82.001953125 c 2
 15.998046875 87.001953125 l 1
 12.998046875 103.001953125 l 2
 12.998046875 114.334960938 16.1650390625 127.66796875 22.498046875 143.000976562 c 0
 28.8310546875 158.333984375 36.8310546875 173.666992188 46.498046875 189 c 0
 56.1650390625 204.333007812 66.83203125 219 78.4990234375 233 c 0
 90.166015625 247 100.999023438 258.333007812 110.999023438 267 c 0
 155.666015625 309.666992188 190.499023438 346.666992188 215.499023438 378 c 0
 240.499023438 409.333007812 259.166015625 437 271.499023438 461 c 0
 283.83203125 485 291.33203125 506.166992188 293.999023438 524.5 c 0
 296.666015625 542.833007812 297.999023438 560.666015625 297.999023438 577.999023438 c 0
 297.999023438 596.666015625 297.33203125 614.333007812 295.999023438 631 c 0
 294.666015625 647.666992188 293.333007812 662.666992188 292 676 c 0
 291.333007812 676.666992188 291 680 291 686 c 2
 291 696 l 2
 292.333007812 698 294.166015625 700.166992188 296.499023438 702.5 c 0
 298.83203125 704.833007812 300.999023438 706.333007812 302.999023438 707 c 2
 311.999023438 708 l 2
 325.33203125 708 338.999023438 705.5 352.999023438 700.5 c 0
 366.999023438 695.5 380.666015625 689.166992188 393.999023438 681.5 c 0
 407.33203125 673.833007812 420.33203125 665.833007812 432.999023438 657.5 c 0
 445.666015625 649.166992188 456.999023438 641.666992188 466.999023438 635 c 0
 468.999023438 634.333007812 470.166015625 633.666015625 470.499023438 632.999023438 c 0
 470.83203125 632.33203125 471.33203125 631.665039062 471.999023438 630.998046875 c 0
 474.666015625 628.331054688 476.666015625 625.998046875 477.999023438 623.998046875 c 0
 479.33203125 621.998046875 480.999023438 616.665039062 482.999023438 607.998046875 c 0
 482.999023438 596.665039062 479.999023438 583.33203125 473.999023438 567.999023438 c 0
 467.999023438 552.666015625 460.33203125 537.333007812 450.999023438 522 c 0
 441.666015625 506.666992188 431.333007812 492 420 478 c 0
 408.666992188 464 397.666992188 452.666992188 387 444 c 2
 264 308 l 1
EndSplineSet
EndChar

StartChar: zero
Encoding: 48 48 18
Width: 506
GlyphClass: 2
Flags: W
LayerCount: 2
Fore
SplineSet
485 423 m 0
 485 385 480.5 348.169921875 471.5 312.502929688 c 0
 462.5 276.8359375 450.166992188 242.168945312 434.5 208.501953125 c 0
 418.833007812 174.834960938 400.5 142.16796875 379.5 110.500976562 c 0
 358.5 78.833984375 335.666992188 47.6669921875 311 17 c 1
 291 0 l 1
 289.5 -0.5 l 2
 288.5 -0.8330078125 287.333007812 -1 286 -1 c 0
 285.333007812 -1 284.333007812 -0.8330078125 283 -0.5 c 2
 281 0 l 2
 271.666992188 2 258.333984375 6.5 241.000976562 13.5 c 0
 223.66796875 20.5 206.500976562 28.5 189.500976562 37.5 c 0
 172.500976562 46.5 157.66796875 55.6669921875 145.000976562 65 c 0
 132.333984375 74.3330078125 126.000976562 82 126.000976562 88 c 0
 126.000976562 91.3330078125 127.16796875 94.166015625 129.500976562 96.4990234375 c 0
 131.833984375 98.83203125 134.500976562 100.999023438 137.500976562 102.999023438 c 0
 140.500976562 104.999023438 143.16796875 106.999023438 145.500976562 108.999023438 c 0
 147.833984375 110.999023438 149.000976562 113.999023438 149.000976562 117.999023438 c 0
 149.000976562 119.33203125 148.833984375 120.999023438 148.500976562 122.999023438 c 0
 148.16796875 124.999023438 148.000976562 126.33203125 148.000976562 126.999023438 c 0
 111.333984375 176.999023438 81.333984375 228.166015625 58.0009765625 280.499023438 c 0
 34.66796875 332.83203125 23.0009765625 388.33203125 23.0009765625 446.999023438 c 0
 23.0009765625 476.999023438 25.66796875 505.33203125 31.0009765625 531.999023438 c 0
 36.333984375 558.666015625 45.333984375 583.333007812 58.0009765625 606 c 0
 70.66796875 628.666992188 87.66796875 649.333984375 109.000976562 668.000976562 c 0
 130.333984375 686.66796875 157.000976562 703.000976562 189.000976562 717.000976562 c 2
 209.000976562 726.000976562 l 1
 352.000976562 633.000976562 l 2
 352.66796875 632.333984375 354.16796875 633.166992188 356.500976562 635.5 c 2
 363.000976562 642 l 2
 371.000976562 652.666992188 375.000976562 663.666992188 375.000976562 675 c 0
 375.000976562 678.333007812 374.66796875 682 374.000976562 686 c 0
 373.333984375 690 372.666992188 694.666992188 372 700 c 1
 394 685.333007812 412.333007812 666.5 427 643.5 c 0
 441.666992188 620.5 453.166992188 596.166992188 461.5 570.5 c 0
 469.833007812 544.833007812 475.833007812 519 479.5 493 c 0
 483.166992188 467 485 443.666992188 485 423 c 0
365 516.002929688 m 2
 365.000976562 559.001953125 l 1
 364.000976562 570.001953125 l 2
 359.333984375 578.668945312 355.000976562 585.3359375 351.000976562 590.002929688 c 0
 347.000976562 594.669921875 339.333984375 597.002929688 328.000976562 597.002929688 c 0
 302.000976562 597.002929688 279.66796875 591.502929688 261.000976562 580.502929688 c 0
 242.333984375 569.502929688 226.666992188 555.002929688 214 537.002929688 c 0
 201.333007812 519.002929688 191.166015625 498.8359375 183.499023438 476.502929688 c 0
 175.83203125 454.169921875 169.83203125 431.502929688 165.499023438 408.502929688 c 0
 161.166015625 385.502929688 158.333007812 363.3359375 157 342.002929688 c 0
 155.666992188 320.669921875 155 302.336914062 155 287.00390625 c 0
 155 283.00390625 154.833007812 277.170898438 154.5 269.50390625 c 0
 154.166992188 261.836914062 154 253.336914062 154 244.00390625 c 0
 154 235.336914062 154.5 226.669921875 155.5 218.002929688 c 0
 156.5 209.3359375 158.333007812 201.502929688 161 194.502929688 c 0
 163.666992188 187.502929688 167.5 181.669921875 172.5 177.002929688 c 0
 177.5 172.3359375 184 170.002929688 192 170.002929688 c 0
 211.333007812 170.002929688 229 176.669921875 245 190.002929688 c 0
 261 203.3359375 275.333007812 220.502929688 288 241.502929688 c 0
 300.666992188 262.502929688 311.833984375 286.002929688 321.500976562 312.002929688 c 0
 331.16796875 338.002929688 339.16796875 363.8359375 345.500976562 389.502929688 c 0
 351.833984375 415.169921875 356.666992188 439.169921875 360 461.502929688 c 0
 363.333007812 483.8359375 365 502.002929688 365 516.002929688 c 2
EndSplineSet
EndChar

StartChar: one
Encoding: 49 49 19
Width: 232
GlyphClass: 2
Flags: W
LayerCount: 2
Fore
SplineSet
203 489 m 2
 203 452.333007812 201.333007812 410.66796875 198 364.000976562 c 0
 194.666992188 317.333984375 187.666992188 271.000976562 177 225.000976562 c 0
 166.333007812 179.000976562 151 135.66796875 131 95.0009765625 c 0
 111 54.333984375 84.3330078125 22.0009765625 51 -1.9990234375 c 1
 51 39.0009765625 l 1
 58 74.0009765625 l 1
 58 309.000976562 l 1
 57 316.000976562 l 2
 53.6669921875 336.000976562 50.6669921875 360.000976562 48 388.000976562 c 0
 45.3330078125 416.000976562 42.5 444.66796875 39.5 474.000976562 c 0
 36.5 503.333984375 33.6669921875 531.666992188 31 559 c 0
 28.3330078125 586.333007812 25.3330078125 609.333007812 22 628 c 2
 10 663 l 1
 162 700 l 1
 168 700 l 2
 172 700 175.5 697.166992188 178.5 691.5 c 0
 181.5 685.833007812 184 679.5 186 672.5 c 0
 188 665.5 189.5 659 190.5 653 c 2
 192 644 l 2
 196.666992188 624 199.666992188 608 201 596 c 0
 202.333007812 584 203 572.333007812 203 561 c 2
 203 489 l 2
EndSplineSet
EndChar

StartChar: two
Encoding: 50 50 20
Width: 527
GlyphClass: 2
Flags: W
LayerCount: 2
Fore
SplineSet
509 80 m 0
 509 72.6669921875 505.334960938 66.49609375 498.001953125 61.49609375 c 0
 490.668945312 56.49609375 483.668945312 51.3291015625 477.001953125 45.99609375 c 2
 466.001953125 39.99609375 l 2
 461.334960938 38.6630859375 456.16796875 36.330078125 450.500976562 32.9970703125 c 0
 444.833984375 29.6640625 441.000976562 27.3310546875 439.000976562 25.998046875 c 0
 437.000976562 24.6650390625 432.833984375 22.998046875 426.500976562 20.998046875 c 0
 420.16796875 18.998046875 415.66796875 17.998046875 413.000976562 17.998046875 c 0
 410.333984375 15.998046875 407.666992188 14.6650390625 405 13.998046875 c 0
 402.333007812 13.3310546875 399 12.3310546875 395 10.998046875 c 0
 385.666992188 8.998046875 380 7.6650390625 378 6.998046875 c 0
 376 6.3310546875 373 5.6640625 369 4.9970703125 c 0
 361.666992188 3.6640625 354 2.4970703125 346 1.4970703125 c 0
 338 0.4970703125 332.666992188 -0.0029296875 330 -0.0029296875 c 2
 324 -0.0029296875 l 2
 320.666992188 -0.0029296875 310 -1.0029296875 292 -3.0029296875 c 2
 198 -3.0029296875 l 2
 178 -3.0029296875 158.333007812 -2.0029296875 139 -0.0029296875 c 0
 119.666992188 1.9970703125 102 6.830078125 86 14.4970703125 c 0
 70 22.1640625 56 33.6640625 44 48.9970703125 c 0
 32 64.330078125 23 85.6630859375 17 112.99609375 c 1
 16.5 121.99609375 l 2
 16.1669921875 127.99609375 16 131.663085938 16 132.99609375 c 2
 16.5 133.99609375 l 2
 16.8330078125 134.663085938 17 135.330078125 17 135.997070312 c 2
 25 155.997070312 l 2
 25 157.997070312 27.6669921875 162.6640625 33 169.997070312 c 0
 38.3330078125 177.330078125 41.666015625 182.330078125 42.9990234375 184.997070312 c 0
 54.33203125 201.6640625 65.9990234375 221.331054688 77.9990234375 243.998046875 c 0
 89.9990234375 266.665039062 102.666015625 289.33203125 115.999023438 311.999023438 c 0
 129.33203125 334.666015625 143.165039062 355.333007812 157.498046875 374 c 0
 171.831054688 392.666992188 186.998046875 406 202.998046875 414 c 0
 216.998046875 420.666992188 228.498046875 425.666992188 237.498046875 429 c 0
 246.498046875 432.333007812 256.998046875 437.666015625 268.998046875 444.999023438 c 0
 271.665039062 445.666015625 276.165039062 446.833007812 282.498046875 448.5 c 0
 288.831054688 450.166992188 295.498046875 451.833984375 302.498046875 453.500976562 c 0
 309.498046875 455.16796875 316.165039062 456.66796875 322.498046875 458.000976562 c 0
 328.831054688 459.333984375 332.998046875 460.000976562 334.998046875 460.000976562 c 2
 350.998046875 461.000976562 l 2
 362.998046875 461.000976562 374.998046875 461.66796875 386.998046875 463.000976562 c 0
 398.998046875 464.333984375 408.998046875 467.666992188 416.998046875 473 c 0
 417.665039062 473 417.998046875 473.666992188 417.998046875 475 c 2
 414.998046875 484 l 1
 410.998046875 488 l 2
 396.998046875 498 383.831054688 506.833007812 371.498046875 514.5 c 0
 359.165039062 522.166992188 346.665039062 528.5 333.998046875 533.5 c 0
 321.331054688 538.5 308.331054688 542.333007812 294.998046875 545 c 0
 281.665039062 547.666992188 266.665039062 549 249.998046875 549 c 0
 232.665039062 549 216.498046875 546.333007812 201.498046875 541 c 0
 186.498046875 535.666992188 171.831054688 528.833984375 157.498046875 520.500976562 c 0
 143.165039062 512.16796875 128.83203125 503.16796875 114.499023438 493.500976562 c 0
 100.166015625 483.833984375 85.666015625 474.666992188 70.9990234375 466 c 0
 70.9990234375 465.333007812 70.33203125 464.833007812 68.9990234375 464.5 c 2
 66.9990234375 464 l 1
 66.9990234375 474 67.83203125 491.333007812 69.4990234375 516 c 0
 71.166015625 540.666992188 73.8330078125 566 77.5 592 c 0
 81.1669921875 618 86 641 92 661 c 0
 98 681 105.666992188 691 115 691 c 0
 151 691 187.333007812 687.5 224 680.5 c 0
 260.666992188 673.5 296 661.666992188 330 645 c 0
 364 628.333007812 395.333007812 606.666015625 424 579.999023438 c 0
 452.666992188 553.33203125 476.666992188 520.33203125 496 480.999023438 c 1
 497 477.999023438 l 2
 501 470.666015625 504.333007812 461.499023438 507 450.499023438 c 0
 509.666992188 439.499023438 511 429.33203125 511 419.999023438 c 1
 451 419.999023438 394.666992188 406.666015625 342 379.999023438 c 0
 294 356.666015625 260.833007812 320.166015625 242.5 270.499023438 c 0
 224.166992188 220.83203125 215 159.665039062 215 86.998046875 c 0
 215 83.6650390625 217 81.998046875 221 81.998046875 c 0
 241 81.998046875 258 85.1650390625 272 91.498046875 c 0
 286 97.8310546875 298.666992188 106.331054688 310 116.998046875 c 0
 321.333007812 127.665039062 332.333007812 140.165039062 343 154.498046875 c 0
 353.666992188 168.831054688 365.666992188 183.998046875 379 199.998046875 c 0
 383 204.665039062 387.5 211.165039062 392.5 219.498046875 c 0
 397.5 227.831054688 402.833007812 236.498046875 408.5 245.498046875 c 0
 414.166992188 254.498046875 419.666992188 262.831054688 425 270.498046875 c 0
 430.333007812 278.165039062 435 283.998046875 439 287.998046875 c 1
 443 287.998046875 l 1
 451 279.331054688 459 266.331054688 467 248.998046875 c 0
 475 231.665039062 482 212.83203125 488 192.499023438 c 0
 494 172.166015625 499 151.833007812 503 131.5 c 0
 507 111.166992188 509 94 509 80 c 0
EndSplineSet
EndChar

StartChar: three
Encoding: 51 51 21
Width: 508
GlyphClass: 2
Flags: W
LayerCount: 2
Fore
SplineSet
335 365 m 1
 296.333007812 352.333007812 258.330078125 341.33203125 220.997070312 331.999023438 c 0
 183.6640625 322.666015625 144.997070312 313.999023438 104.997070312 305.999023438 c 1
 106.330078125 311.999023438 107.163085938 318.666015625 107.49609375 325.999023438 c 0
 107.829101562 333.33203125 107.99609375 340.999023438 107.99609375 348.999023438 c 0
 107.99609375 368.999023438 106.99609375 388.999023438 104.99609375 408.999023438 c 2
 99.99609375 458.999023438 l 1
 101.99609375 465.999023438 l 1
 180.99609375 453.999023438 l 2
 191.663085938 452.666015625 205.830078125 451.499023438 223.497070312 450.499023438 c 0
 241.1640625 449.499023438 259.6640625 448.999023438 278.997070312 448.999023438 c 2
 375.997070312 463.999023438 l 1
 376.6640625 469.33203125 377.1640625 474.33203125 377.497070312 478.999023438 c 0
 377.830078125 483.666015625 377.997070312 488.666015625 377.997070312 493.999023438 c 0
 377.997070312 511.999023438 377.497070312 525.999023438 376.497070312 535.999023438 c 0
 375.497070312 545.999023438 372.330078125 553.499023438 366.997070312 558.499023438 c 0
 361.6640625 563.499023438 353.497070312 566.499023438 342.497070312 567.499023438 c 0
 331.497070312 568.499023438 315.6640625 568.999023438 294.997070312 568.999023438 c 0
 251.6640625 568.999023438 212.497070312 563.83203125 177.497070312 553.499023438 c 0
 142.497070312 543.166015625 106.997070312 527.333007812 70.9970703125 506 c 1
 66.9970703125 505 l 2
 61.6640625 505 55.8310546875 509.833007812 49.498046875 519.5 c 0
 43.1650390625 529.166992188 37.33203125 540 31.9990234375 552 c 0
 26.666015625 564 22.166015625 575.5 18.4990234375 586.5 c 0
 14.83203125 597.5 12.9990234375 604.333007812 12.9990234375 607 c 2
 11.9990234375 611 l 1
 11.9990234375 664 l 2
 11.9990234375 675.333007812 13.33203125 683.333007812 15.9990234375 688 c 0
 16.666015625 690.666992188 18.3330078125 692 21 692 c 0
 37 695.333007812 49.1669921875 697.333007812 57.5 698 c 0
 65.8330078125 698.666992188 76.666015625 699 89.9990234375 699 c 0
 141.999023438 699 189.33203125 689.5 231.999023438 670.5 c 0
 274.666015625 651.5 315.333007812 628 354 600 c 0
 354.666992188 599.333007812 355 599.333007812 355 600 c 0
 355 600.666992188 355.666992188 601 357 601 c 0
 359.666992188 601 361 603 361 607 c 2
 358 664 l 1
 362.666992188 664 366.666992188 660.833007812 370 654.5 c 0
 373.333007812 648.166992188 376.5 640.833984375 379.5 632.500976562 c 0
 382.5 624.16796875 385.166992188 616.16796875 387.5 608.500976562 c 0
 389.833007812 600.833984375 392.666015625 596.000976562 395.999023438 594.000976562 c 2
 426.999023438 563.000976562 l 2
 436.999023438 553.000976562 444.666015625 541.333984375 449.999023438 528.000976562 c 1
 442.666015625 531.333984375 437.833007812 534.000976562 435.5 536.000976562 c 0
 433.166992188 538.000976562 427.333984375 539.000976562 418.000976562 539.000976562 c 1
 418.000976562 535.000976562 l 2
 421.333984375 523.66796875 424.333984375 513.16796875 427.000976562 503.500976562 c 0
 429.66796875 493.833984375 431.66796875 484.000976562 433.000976562 474.000976562 c 1
 460.000976562 478.000976562 l 2
 461.333984375 479.333984375 466.833984375 480.333984375 476.500976562 481.000976562 c 0
 486.16796875 481.66796875 495.000976562 482.000976562 503.000976562 482.000976562 c 2
 516.000976562 482.000976562 l 1
 520.000976562 480.000976562 l 1
 523.000976562 470.000976562 l 1
 516.500976562 464.000976562 l 2
 512.16796875 460.000976562 509.334960938 457.000976562 508.001953125 455.000976562 c 2
 467.001953125 424.000976562 l 2
 467.001953125 423.333984375 466.834960938 421.166992188 466.501953125 417.5 c 0
 466.168945312 413.833007812 466.001953125 410.333007812 466.001953125 407 c 0
 466.001953125 397.666992188 465.001953125 390.666992188 463.001953125 386 c 1
 444.001953125 383 l 1
 444.001953125 377 l 2
 444.001953125 341 441.001953125 305.833007812 435.001953125 271.5 c 0
 429.001953125 237.166992188 416.334960938 203 397.001953125 169 c 0
 384.334960938 145 367.001953125 122.666992188 345.001953125 102 c 0
 323.001953125 81.3330078125 298.168945312 63.3330078125 270.501953125 48 c 0
 242.834960938 32.6669921875 213.501953125 20.6669921875 182.501953125 12 c 0
 151.501953125 3.3330078125 120.668945312 -1 90.001953125 -1 c 0
 86.001953125 -1 83.6689453125 -0.3330078125 83.001953125 1 c 0
 82.3349609375 2.3330078125 81.001953125 4.666015625 79.001953125 7.9990234375 c 2
 77.001953125 12.9990234375 l 2
 74.3349609375 25.666015625 71.001953125 39.9990234375 67.001953125 55.9990234375 c 0
 63.001953125 71.9990234375 59.1689453125 88.166015625 55.501953125 104.499023438 c 0
 51.8349609375 120.83203125 48.66796875 136.999023438 46.0009765625 152.999023438 c 0
 43.333984375 168.999023438 42.0009765625 183.666015625 42.0009765625 196.999023438 c 2
 42.0009765625 201.999023438 l 1
 94.0009765625 204.666015625 142.500976562 213.333007812 187.500976562 228 c 0
 232.500976562 242.666992188 272.000976562 268 306.000976562 304 c 0
 315.333984375 314.666992188 323.666992188 325.166992188 331 335.5 c 0
 338.333007812 345.833007812 344.333007812 356.333007812 349 367 c 1
 335 365 l 1
EndSplineSet
EndChar

StartChar: four
Encoding: 52 52 22
Width: 575
GlyphClass: 2
Flags: W
LayerCount: 2
Fore
SplineSet
36 400 m 0
 36 426 36.4990234375 450.502929688 37.4990234375 473.502929688 c 0
 38.4990234375 496.502929688 40.166015625 519.169921875 42.4990234375 541.502929688 c 0
 44.83203125 563.8359375 47.9990234375 586.168945312 51.9990234375 608.501953125 c 0
 55.9990234375 630.834960938 60.9990234375 654.334960938 66.9990234375 679.001953125 c 0
 66.9990234375 680.334960938 67.33203125 681.16796875 67.9990234375 681.500976562 c 0
 68.666015625 681.833984375 68.9990234375 682.333984375 68.9990234375 683.000976562 c 2
 69.9990234375 687.000976562 l 2
 71.33203125 693.000976562 72.6650390625 696.66796875 73.998046875 698.000976562 c 0
 75.3310546875 699.333984375 79.6640625 700.000976562 86.9970703125 700.000976562 c 0
 88.330078125 700.000976562 90.330078125 699.833984375 92.9970703125 699.500976562 c 0
 95.6640625 699.16796875 97.6640625 699.000976562 98.9970703125 699.000976562 c 0
 103.6640625 698.333984375 112.1640625 696.833984375 124.497070312 694.500976562 c 0
 136.830078125 692.16796875 150.163085938 689.500976562 164.49609375 686.500976562 c 0
 178.829101562 683.500976562 192.829101562 680.500976562 206.49609375 677.500976562 c 0
 220.163085938 674.500976562 230.330078125 672.000976562 236.997070312 670.000976562 c 0
 238.330078125 670.000976562 239.330078125 669.833984375 239.997070312 669.500976562 c 2
 240.997070312 669.000976562 l 1
 242.997070312 649.000976562 l 2
 242.997070312 645.66796875 243.1640625 642.66796875 243.497070312 640.000976562 c 0
 243.830078125 637.333984375 243.997070312 635.333984375 243.997070312 634.000976562 c 0
 243.997070312 630.66796875 243.6640625 628.16796875 242.997070312 626.500976562 c 0
 242.330078125 624.833984375 241.330078125 622.833984375 239.997070312 620.500976562 c 0
 238.6640625 618.16796875 237.331054688 614.66796875 235.998046875 610.000976562 c 0
 234.665039062 605.333984375 233.33203125 598.333984375 231.999023438 589.000976562 c 0
 230.666015625 583.000976562 228.499023438 570.333984375 225.499023438 551.000976562 c 0
 222.499023438 531.66796875 219.33203125 511.16796875 215.999023438 489.500976562 c 0
 212.666015625 467.833984375 209.499023438 447.333984375 206.499023438 428.000976562 c 0
 203.499023438 408.66796875 201.666015625 396.000976562 200.999023438 390.000976562 c 1
 210.999023438 390.000976562 l 2
 220.999023438 390.000976562 232.83203125 390.833984375 246.499023438 392.500976562 c 0
 260.166015625 394.16796875 273.833007812 396.834960938 287.5 400.501953125 c 0
 301.166992188 404.168945312 313.833984375 409.168945312 325.500976562 415.501953125 c 0
 337.16796875 421.834960938 346.000976562 429.66796875 352.000976562 439.000976562 c 1
 352.000976562 484.000976562 l 2
 352.000976562 516.000976562 350.66796875 549.000976562 348.000976562 583.000976562 c 0
 345.333984375 617.000976562 339.333984375 652.333984375 330.000976562 689.000976562 c 1
 341.000976562 690.000976562 l 2
 357.000976562 690.000976562 371.16796875 685.000976562 383.500976562 675.000976562 c 0
 395.833984375 665.000976562 406.666992188 652.66796875 416 638.000976562 c 0
 425.333007812 623.333984375 434 607.000976562 442 589.000976562 c 0
 450 571.000976562 458 554.333984375 466 539.000976562 c 0
 474 523.66796875 482.666992188 510.334960938 492 499.001953125 c 0
 501.333007812 487.668945312 512.333007812 481.001953125 525 479.001953125 c 2
 529 479.001953125 l 2
 539 479.001953125 546.333007812 480.334960938 551 483.001953125 c 1
 541 400.001953125 l 1
 561 329.001953125 l 2
 561.666992188 328.334960938 562 325.66796875 562 321.000976562 c 2
 562 315.000976562 l 1
 520 315.000976562 l 1
 520.666992188 309.000976562 521.666992188 298.16796875 523 282.500976562 c 0
 524.333007812 266.833984375 525.5 250.333984375 526.5 233.000976562 c 0
 527.5 215.66796875 528.5 199.000976562 529.5 183.000976562 c 0
 530.5 167.000976562 531 156.000976562 531 150.000976562 c 2
 531 124.000976562 l 2
 531 112.66796875 530.833007812 102.500976562 530.5 93.5009765625 c 0
 530.166992188 84.5009765625 529.5 75.5009765625 528.5 66.5009765625 c 0
 527.5 57.5009765625 526.333007812 47.833984375 525 37.5009765625 c 0
 523.666992188 27.16796875 522 14.66796875 520 0.0009765625 c 1
 496 0.0009765625 l 2
 491.333007812 0.0009765625 483.666015625 0.16796875 472.999023438 0.5009765625 c 0
 462.33203125 0.833984375 450.33203125 1.6669921875 436.999023438 3 c 0
 423.666015625 4.3330078125 409.833007812 5.8330078125 395.5 7.5 c 0
 381.166992188 9.1669921875 368.166992188 11.5 356.5 14.5 c 0
 344.833007812 17.5 335.333007812 21 328 25 c 0
 320.666992188 29 317 33.6669921875 317 39 c 2
 318 50 l 2
 318 54 319.166992188 60.6669921875 321.5 70 c 0
 323.833007812 79.3330078125 326 86 328 90 c 2
 373 300 l 1
 215 300 l 2
 195.666992188 302.666992188 178.666992188 304.5 164 305.5 c 0
 149.333007812 306.5 135.666015625 307.5 122.999023438 308.5 c 0
 110.33203125 309.5 97.9990234375 310.833007812 85.9990234375 312.5 c 0
 73.9990234375 314.166992188 60.9990234375 316.666992188 46.9990234375 320 c 0
 45.666015625 320 42.8330078125 322 38.5 326 c 0
 34.1669921875 330 29.6669921875 334.5 25 339.5 c 0
 20.3330078125 344.5 16 349 12 353 c 2
 5 360 l 1
 4.5 361.5 l 2
 4.1669921875 362.5 4 363.333007812 4 364 c 0
 4 365.333007812 4.1669921875 366.5 4.5 367.5 c 2
 5 369 l 2
 7 373 11.8330078125 378.5 19.5 385.5 c 0
 27.1669921875 392.5 32.6669921875 397.333007812 36 400 c 0
EndSplineSet
EndChar

StartChar: five
Encoding: 53 53 23
Width: 525
GlyphClass: 2
Flags: W
LayerCount: 2
Fore
SplineSet
507 610 m 0
 507 581.333007812 500.16796875 553.3359375 486.500976562 526.002929688 c 0
 472.833984375 498.669921875 457.666992188 476.336914062 441 459.00390625 c 1
 437 459.00390625 l 1
 427.666992188 466.336914062 418.5 477.50390625 409.5 492.50390625 c 0
 400.5 507.50390625 392 520.00390625 384 530.00390625 c 0
 370 546.00390625 355.5 559.170898438 340.5 569.50390625 c 0
 325.5 579.836914062 309.833007812 587.836914062 293.5 593.50390625 c 0
 277.166992188 599.170898438 259.833984375 603.00390625 241.500976562 605.00390625 c 0
 223.16796875 607.00390625 203.66796875 608.00390625 183.000976562 608.00390625 c 0
 179.000976562 608.00390625 177.000976562 606.336914062 177.000976562 603.00390625 c 0
 177.000976562 567.670898438 180.16796875 537.00390625 186.500976562 511.00390625 c 0
 192.833984375 485.00390625 202.166992188 462.50390625 214.5 443.50390625 c 0
 226.833007812 424.50390625 242 408.170898438 260 394.50390625 c 0
 278 380.836914062 299 368.336914062 323 357.00390625 c 0
 351 343.670898438 379.166992188 334.670898438 407.5 330.00390625 c 0
 435.833007812 325.336914062 464 323.00390625 492 323.00390625 c 1
 492 317.670898438 491.666992188 311.50390625 491 304.50390625 c 0
 490.333007812 297.50390625 489.333007812 290.336914062 488 283.00390625 c 0
 486.666992188 275.670898438 485 268.50390625 483 261.50390625 c 0
 481 254.50390625 479 249.00390625 477 245.00390625 c 0
 438.333007812 166.336914062 388 105.669921875 326 63.0029296875 c 0
 264 20.3359375 196.666992188 -0.9970703125 124 -0.9970703125 c 0
 114 -0.9970703125 104.666992188 8.669921875 96 28.0029296875 c 0
 87.3330078125 47.3359375 79.666015625 69.6689453125 72.9990234375 95.001953125 c 0
 66.33203125 120.334960938 60.9990234375 145.16796875 56.9990234375 169.500976562 c 0
 52.9990234375 193.833984375 50.9990234375 211.000976562 50.9990234375 221.000976562 c 1
 52.4990234375 220.500976562 l 2
 53.4990234375 220.16796875 53.9990234375 219.66796875 53.9990234375 219.000976562 c 0
 83.33203125 201.000976562 111.665039062 186.000976562 138.998046875 174.000976562 c 0
 166.331054688 162.000976562 196.998046875 156.000976562 230.998046875 156.000976562 c 0
 247.665039062 156.000976562 262.498046875 159.000976562 275.498046875 165.000976562 c 0
 288.498046875 171.000976562 300.998046875 178.66796875 312.998046875 188.000976562 c 0
 324.998046875 197.333984375 336.998046875 207.666992188 348.998046875 219 c 0
 360.998046875 230.333007812 374.331054688 241.333007812 388.998046875 252 c 1
 390.998046875 261 l 2
 390.998046875 262.333007812 390.665039062 263 389.998046875 263 c 0
 382.665039062 268.333007812 372.83203125 271.666015625 360.499023438 272.999023438 c 0
 348.166015625 274.33203125 335.999023438 274.999023438 323.999023438 274.999023438 c 0
 317.999023438 274.999023438 310.666015625 275.499023438 301.999023438 276.499023438 c 0
 293.33203125 277.499023438 284.999023438 278.499023438 276.999023438 279.499023438 c 0
 268.999023438 280.499023438 261.83203125 281.499023438 255.499023438 282.499023438 c 0
 249.166015625 283.499023438 244.999023438 284.33203125 242.999023438 284.999023438 c 0
 223.666015625 291.666015625 204.499023438 298.999023438 185.499023438 306.999023438 c 0
 166.499023438 314.999023438 148.33203125 324.33203125 130.999023438 334.999023438 c 0
 113.666015625 345.666015625 97.166015625 358.499023438 81.4990234375 373.499023438 c 0
 65.83203125 388.499023438 51.6650390625 406.33203125 38.998046875 426.999023438 c 0
 36.998046875 429.666015625 33.498046875 434.666015625 28.498046875 441.999023438 c 0
 23.498046875 449.33203125 20.998046875 453.999023438 20.998046875 455.999023438 c 2
 11.998046875 473.999023438 l 1
 11.998046875 534.999023438 l 1
 40.998046875 664.999023438 l 2
 44.3310546875 678.33203125 47.1640625 687.33203125 49.4970703125 691.999023438 c 0
 51.830078125 696.666015625 55.6630859375 698.999023438 60.99609375 698.999023438 c 0
 68.3291015625 698.999023438 77.49609375 697.666015625 88.49609375 694.999023438 c 0
 99.49609375 692.33203125 115.663085938 690.999023438 136.99609375 690.999023438 c 2
 321.99609375 690.999023438 l 1
 327.99609375 689.999023438 l 2
 330.663085938 689.999023438 335.830078125 689.499023438 343.497070312 688.499023438 c 0
 351.1640625 687.499023438 358.6640625 686.33203125 365.997070312 684.999023438 c 0
 370.6640625 684.33203125 373.831054688 683.665039062 375.498046875 682.998046875 c 0
 377.165039062 682.331054688 382.998046875 680.998046875 392.998046875 678.998046875 c 0
 396.998046875 677.665039062 400.331054688 676.665039062 402.998046875 675.998046875 c 0
 405.665039062 675.331054688 408.33203125 673.998046875 410.999023438 671.998046875 c 0
 412.999023438 671.998046875 417.166015625 670.998046875 423.499023438 668.998046875 c 0
 429.83203125 666.998046875 434.33203125 665.331054688 436.999023438 663.998046875 c 0
 438.999023438 662.665039062 442.83203125 660.33203125 448.499023438 656.999023438 c 0
 454.166015625 653.666015625 458.999023438 651.333007812 462.999023438 650 c 2
 473.999023438 644 l 2
 480.666015625 638.666992188 487.833007812 633.5 495.5 628.5 c 0
 503.166992188 623.5 507 617.333007812 507 610 c 0
EndSplineSet
EndChar

StartChar: six
Encoding: 54 54 24
Width: 534
GlyphClass: 2
Flags: W
LayerCount: 2
Fore
SplineSet
267 374 m 0
 301 394 333.334960938 406.66796875 364.001953125 412.000976562 c 0
 394.668945312 417.333984375 425.668945312 421.000976562 457.001953125 423.000976562 c 2
 471.001953125 424.000976562 l 1
 473.668945312 414.000976562 477.001953125 404.000976562 481.001953125 394.000976562 c 0
 485.001953125 384.000976562 489.001953125 373.833984375 493.001953125 363.500976562 c 0
 497.001953125 353.16796875 500.334960938 343.000976562 503.001953125 333.000976562 c 0
 505.668945312 323.000976562 507.001953125 313.000976562 507.001953125 303.000976562 c 2
 507.001953125 278.000976562 l 1
 497.001953125 173.000976562 l 1
 529.001953125 173.000976562 l 1
 529.001953125 159.000976562 524.668945312 143.833984375 516.001953125 127.500976562 c 0
 507.334960938 111.16796875 496.501953125 95.16796875 483.501953125 79.5009765625 c 0
 470.501953125 63.833984375 456.668945312 49.0009765625 442.001953125 35.0009765625 c 0
 427.334960938 21.0009765625 414.334960938 9.333984375 403.001953125 0.0009765625 c 1
 396.334960938 3.333984375 391.834960938 9.0009765625 389.501953125 17.0009765625 c 0
 387.168945312 25.0009765625 385.001953125 31.66796875 383.001953125 37.0009765625 c 1
 359.001953125 35.0009765625 337.001953125 34.0009765625 317.001953125 34.0009765625 c 0
 215.001953125 34.0009765625 140.668945312 56.66796875 94.001953125 102.000976562 c 0
 47.3349609375 147.333984375 24.001953125 218.000976562 24.001953125 314.000976562 c 0
 24.001953125 367.333984375 31.8349609375 416.000976562 47.501953125 460.000976562 c 0
 63.1689453125 504.000976562 89.3359375 548.000976562 126.002929688 592.000976562 c 1
 118.669921875 594.000976562 113.669921875 596.000976562 111.002929688 598.000976562 c 0
 108.3359375 600.000976562 107.002929688 602.66796875 107.002929688 606.000976562 c 0
 107.002929688 609.333984375 107.8359375 613.833984375 109.502929688 619.500976562 c 0
 111.169921875 625.16796875 112.002929688 632.66796875 112.002929688 642.000976562 c 2
 112.002929688 646.000976562 l 1
 126.669921875 652.000976562 140.502929688 658.500976562 153.502929688 665.500976562 c 0
 166.502929688 672.500976562 179.502929688 678.833984375 192.502929688 684.500976562 c 0
 205.502929688 690.16796875 218.669921875 695.000976562 232.002929688 699.000976562 c 0
 245.3359375 703.000976562 260.002929688 705.000976562 276.002929688 705.000976562 c 0
 284.002929688 705.000976562 292.002929688 704.000976562 300.002929688 702.000976562 c 2
 327.002929688 696.000976562 l 1
 325.002929688 694.000976562 323.8359375 690.16796875 323.502929688 684.500976562 c 0
 323.169921875 678.833984375 322.669921875 675.000976562 322.002929688 673.000976562 c 2
 322.002929688 665.000976562 l 1
 346.502929688 658.000976562 l 2
 358.169921875 654.66796875 370.502929688 651.16796875 383.502929688 647.500976562 c 0
 396.502929688 643.833984375 408.8359375 640.166992188 420.502929688 636.5 c 0
 432.169921875 632.833007812 440.336914062 630 445.00390625 628 c 0
 456.336914062 624 467.50390625 619.333007812 478.50390625 614 c 0
 489.50390625 608.666992188 499.00390625 601.333984375 507.00390625 592.000976562 c 1
 490.336914062 574.66796875 477.669921875 557.66796875 469.002929688 541.000976562 c 0
 460.3359375 524.333984375 449.668945312 506.000976562 437.001953125 486.000976562 c 1
 427.001953125 486.000976562 l 1
 421.001953125 491.333984375 410.668945312 499.333984375 396.001953125 510.000976562 c 0
 381.334960938 520.66796875 365.16796875 531.334960938 347.500976562 542.001953125 c 0
 329.833984375 552.668945312 312.166992188 562.001953125 294.5 570.001953125 c 0
 276.833007812 578.001953125 261.666015625 582.001953125 248.999023438 582.001953125 c 0
 243.666015625 582.001953125 240.666015625 581.668945312 239.999023438 581.001953125 c 0
 228.666015625 579.001953125 218.499023438 570.001953125 209.499023438 554.001953125 c 0
 200.499023438 538.001953125 192.83203125 520.001953125 186.499023438 500.001953125 c 0
 180.166015625 480.001953125 175.333007812 460.334960938 172 441.001953125 c 0
 168.666992188 421.668945312 167 407.668945312 167 399.001953125 c 0
 167 383.001953125 168 367.168945312 170 351.501953125 c 0
 172 335.834960938 175.333007812 320.66796875 180 306.000976562 c 1
 194.5 320.500976562 l 2
 200.833007812 326.833984375 208 333.333984375 216 340.000976562 c 0
 224 346.66796875 232.5 353.16796875 241.5 359.500976562 c 0
 250.5 365.833984375 259 370.666992188 267 374 c 0
371.001953125 159.000976562 m 1
 371.001953125 182.333984375 366.001953125 205.833984375 356.001953125 229.500976562 c 0
 346.001953125 253.16796875 334.334960938 276.000976562 321.001953125 298.000976562 c 1
 268.001953125 289.000976562 l 1
 208.001953125 251.000976562 l 1
 215.334960938 233.66796875 223.501953125 219.000976562 232.501953125 207.000976562 c 0
 241.501953125 195.000976562 252.334960938 185.500976562 265.001953125 178.500976562 c 0
 277.668945312 171.500976562 292.501953125 166.500976562 309.501953125 163.500976562 c 0
 326.501953125 160.500976562 347.001953125 159.000976562 371.001953125 159.000976562 c 1
EndSplineSet
EndChar

StartChar: seven
Encoding: 55 55 25
Width: 552
GlyphClass: 2
Flags: W
LayerCount: 2
Fore
SplineSet
258 26 m 2
 245.333007812 9.3330078125 231.334960938 1.00390625 216.001953125 1.00390625 c 0
 207.334960938 1.00390625 196.66796875 3.8369140625 184.000976562 9.50390625 c 0
 171.333984375 15.1708984375 158.000976562 22.6708984375 144.000976562 32.00390625 c 0
 130.000976562 41.3369140625 116.16796875 52.3369140625 102.500976562 65.00390625 c 0
 88.833984375 77.6708984375 76.6669921875 91.00390625 66 105.00390625 c 1
 73 129.00390625 l 2
 75 131.00390625 77.1669921875 132.836914062 79.5 134.50390625 c 0
 81.8330078125 136.170898438 83.666015625 137.670898438 84.9990234375 139.00390625 c 0
 98.33203125 150.336914062 111.165039062 161.50390625 123.498046875 172.50390625 c 0
 135.831054688 183.50390625 148.331054688 196.170898438 160.998046875 210.50390625 c 0
 173.665039062 224.836914062 187.33203125 241.669921875 201.999023438 261.002929688 c 0
 216.666015625 280.3359375 233.166015625 303.8359375 251.499023438 331.502929688 c 0
 269.83203125 359.169921875 290.33203125 392.002929688 312.999023438 430.002929688 c 0
 335.666015625 468.002929688 361.666015625 512.669921875 390.999023438 564.002929688 c 0
 390.999023438 565.3359375 386.999023438 566.002929688 378.999023438 566.002929688 c 2
 358.999023438 566.002929688 l 2
 340.999023438 566.002929688 316.999023438 563.669921875 286.999023438 559.002929688 c 0
 256.999023438 554.3359375 225.666015625 548.668945312 192.999023438 542.001953125 c 0
 160.33203125 535.334960938 129.165039062 528.001953125 99.498046875 520.001953125 c 0
 69.8310546875 512.001953125 46.3310546875 504.668945312 28.998046875 498.001953125 c 1
 28.998046875 650.001953125 l 2
 28.998046875 650.668945312 31.3310546875 652.168945312 35.998046875 654.501953125 c 0
 40.6650390625 656.834960938 44.998046875 658.66796875 48.998046875 660.000976562 c 0
 59.6650390625 664.66796875 71.83203125 669.000976562 85.4990234375 673.000976562 c 0
 99.166015625 677.000976562 110.999023438 679.333984375 120.999023438 680.000976562 c 2
 132.999023438 680.000976562 l 2
 138.33203125 680.000976562 145.83203125 680.333984375 155.499023438 681.000976562 c 0
 165.166015625 681.66796875 179.333007812 682.000976562 198 682.000976562 c 0
 219.333007812 682.000976562 246.333007812 681.16796875 279 679.500976562 c 0
 311.666992188 677.833984375 344.666992188 673.833984375 378 667.500976562 c 0
 411.333007812 661.16796875 442.333007812 652.16796875 471 640.500976562 c 0
 499.666992188 628.833984375 521 613.000976562 535 593.000976562 c 1
 525 576.000976562 l 2
 499 532.66796875 479.666992188 497.66796875 467 471.000976562 c 0
 454.333007812 444.333984375 445 421.833984375 439 403.500976562 c 0
 433 385.16796875 429 369.16796875 427 355.500976562 c 0
 425 341.833984375 421.666992188 326.166992188 417 308.5 c 0
 412.333007812 290.833007812 405 269 395 243 c 0
 385 217 369.333007812 183 348 141 c 1
 258 26 l 2
EndSplineSet
EndChar

StartChar: eight
Encoding: 56 56 26
Width: 609
GlyphClass: 2
Flags: W
LayerCount: 2
Fore
SplineSet
263 -12 m 1
 216.333007812 0 177.666992188 18.0009765625 147 42.0009765625 c 0
 130.333007812 53.333984375 114.5 67.6669921875 99.5 85 c 0
 84.5 102.333007812 71.1669921875 120.833007812 59.5 140.5 c 0
 47.8330078125 160.166992188 38.666015625 180.5 31.9990234375 201.5 c 0
 25.33203125 222.5 21.9990234375 242 21.9990234375 260 c 0
 21.9990234375 297.333007812 33.33203125 323.666015625 55.9990234375 338.999023438 c 0
 78.666015625 354.33203125 107.333007812 363.33203125 142 365.999023438 c 1
 128.666992188 377.33203125 116.5 388.165039062 105.5 398.498046875 c 0
 94.5 408.831054688 85 419.498046875 77 430.498046875 c 0
 69 441.498046875 62.8330078125 453.165039062 58.5 465.498046875 c 0
 54.1669921875 477.831054688 52 491.6640625 52 506.997070312 c 2
 52 509.997070312 l 2
 52 536.6640625 57.3330078125 560.6640625 68 581.997070312 c 0
 78.6669921875 603.330078125 93.5 621.497070312 112.5 636.497070312 c 0
 131.5 651.497070312 154 662.997070312 180 670.997070312 c 0
 206 678.997070312 234 682.997070312 264 682.997070312 c 2
 301 685.997070312 l 1
 366 573.997070312 l 1
 412 648.997070312 l 1
 421 642.997070312 l 2
 441.666992188 629.6640625 462 615.997070312 482 601.997070312 c 0
 502 587.997070312 520 572.830078125 536 556.497070312 c 0
 552 540.1640625 564.833007812 522.331054688 574.5 502.998046875 c 0
 584.166992188 483.665039062 589 461.998046875 589 437.998046875 c 0
 589 400.665039062 577.666992188 374.33203125 555 358.999023438 c 0
 532.333007812 343.666015625 503.666015625 334.666015625 468.999023438 331.999023438 c 1
 495.666015625 308.666015625 517.333007812 282.999023438 534 254.999023438 c 0
 550.666992188 226.999023438 559 196.999023438 559 164.999023438 c 0
 559 135.666015625 554 111.333007812 544 92 c 0
 534 72.6669921875 520 57.1669921875 502 45.5 c 0
 484 33.8330078125 462.833007812 25.5 438.5 20.5 c 0
 414.166992188 15.5 387.666992188 12.6669921875 359 12 c 1
 294 63 l 1
 263 -12 l 1
349.000976562 553.000976562 m 2
 335.000976562 552.333984375 319.5078125 551.16796875 302.5078125 549.500976562 c 0
 285.5078125 547.833984375 269.840820312 544.833984375 255.5078125 540.500976562 c 0
 241.174804688 536.16796875 229.174804688 530.000976562 219.5078125 522.000976562 c 0
 209.840820312 514.000976562 205.0078125 503.000976562 205.0078125 489.000976562 c 0
 205.0078125 477.000976562 208.674804688 465.500976562 216.0078125 454.500976562 c 0
 223.340820312 443.500976562 232.673828125 433.16796875 244.006835938 423.500976562 c 0
 255.33984375 413.833984375 268.172851562 404.833984375 282.505859375 396.500976562 c 0
 296.838867188 388.16796875 310.671875 381.000976562 324.004882812 375.000976562 c 0
 332.004882812 372.333984375 339.671875 369.833984375 347.004882812 367.500976562 c 0
 354.337890625 365.16796875 361.670898438 363.000976562 369.00390625 361.000976562 c 0
 377.00390625 363.000976562 384.170898438 367.333984375 390.50390625 374.000976562 c 0
 396.836914062 380.66796875 402.169921875 388.334960938 406.502929688 397.001953125 c 0
 410.8359375 405.668945312 414.168945312 415.001953125 416.501953125 425.001953125 c 0
 418.834960938 435.001953125 420.001953125 444.334960938 420.001953125 453.001953125 c 0
 420.001953125 462.334960938 417.668945312 469.66796875 413.001953125 475.000976562 c 0
 408.334960938 480.333984375 402.16796875 485.000976562 394.500976562 489.000976562 c 0
 386.833984375 493.000976562 378.333984375 497.16796875 369.000976562 501.500976562 c 0
 359.66796875 505.833984375 350.66796875 511.333984375 342.000976562 518.000976562 c 1
 357.000976562 553.000976562 l 1
 349.000976562 553.000976562 l 2
313.0078125 104.001953125 m 1
 323.0078125 108.001953125 333.176757812 113.00390625 343.509765625 119.00390625 c 0
 353.842773438 125.00390625 363.17578125 131.670898438 371.508789062 139.00390625 c 0
 379.841796875 146.336914062 386.674804688 154.00390625 392.0078125 162.00390625 c 0
 397.340820312 170.00390625 400.0078125 178.00390625 400.0078125 186.00390625 c 0
 400.0078125 198.00390625 397.0078125 209.170898438 391.0078125 219.50390625 c 0
 385.0078125 229.836914062 377.174804688 239.669921875 367.5078125 249.002929688 c 0
 357.840820312 258.3359375 346.673828125 267.002929688 334.006835938 275.002929688 c 0
 321.33984375 283.002929688 308.33984375 290.3359375 295.006835938 297.002929688 c 0
 287.673828125 299.002929688 280.506835938 301.169921875 273.506835938 303.502929688 c 0
 266.506835938 305.8359375 259.33984375 308.3359375 252.006835938 311.002929688 c 1
 244.006835938 309.002929688 235.83984375 306.002929688 227.506835938 302.002929688 c 0
 219.173828125 298.002929688 211.340820312 293.169921875 204.0078125 287.502929688 c 0
 196.674804688 281.8359375 190.674804688 275.3359375 186.0078125 268.002929688 c 0
 181.340820312 260.669921875 179.0078125 253.002929688 179.0078125 245.002929688 c 0
 179.0078125 232.3359375 183.674804688 221.168945312 193.0078125 211.501953125 c 0
 202.340820312 201.834960938 213.673828125 193.001953125 227.006835938 185.001953125 c 0
 240.33984375 177.001953125 254.83984375 169.501953125 270.506835938 162.501953125 c 0
 286.173828125 155.501953125 300.340820312 148.334960938 313.0078125 141.001953125 c 1
 313.0078125 104.001953125 l 1
EndSplineSet
EndChar

StartChar: nine
Encoding: 57 57 27
Width: 572
GlyphClass: 2
Flags: W
LayerCount: 2
Fore
SplineSet
463 48 m 1
 447 32.6669921875 429.004882812 20.330078125 409.004882812 10.9970703125 c 0
 389.004882812 1.6640625 361.004882812 -3.0029296875 325.004882812 -3.0029296875 c 0
 310.337890625 -3.0029296875 293.670898438 -2.0029296875 275.00390625 -0.0029296875 c 1
 238.00390625 28.9970703125 l 1
 286.00390625 54.330078125 323.170898438 85.830078125 349.50390625 123.497070312 c 0
 375.836914062 161.1640625 393.00390625 203.331054688 401.00390625 249.998046875 c 1
 401.00390625 252.998046875 l 2
 401.00390625 263.665039062 391.670898438 270.998046875 373.00390625 274.998046875 c 0
 332.336914062 282.998046875 291.669921875 291.498046875 251.002929688 300.498046875 c 0
 210.3359375 309.498046875 175.002929688 322.665039062 145.002929688 339.998046875 c 0
 129.002929688 351.998046875 113.3359375 365.165039062 98.0029296875 379.498046875 c 0
 82.669921875 393.831054688 69.0029296875 408.998046875 57.0029296875 424.998046875 c 0
 45.0029296875 440.998046875 35.3359375 457.831054688 28.0029296875 475.498046875 c 0
 20.669921875 493.165039062 17.0029296875 511.665039062 17.0029296875 530.998046875 c 0
 17.0029296875 561.665039062 25.0029296875 586.33203125 41.0029296875 604.999023438 c 0
 57.0029296875 623.666015625 77.669921875 637.999023438 103.002929688 647.999023438 c 0
 128.3359375 657.999023438 156.668945312 664.666015625 188.001953125 667.999023438 c 0
 219.334960938 671.33203125 250.001953125 672.999023438 280.001953125 672.999023438 c 0
 294.668945312 672.999023438 308.668945312 672.83203125 322.001953125 672.499023438 c 0
 335.334960938 672.166015625 348.001953125 671.666015625 360.001953125 670.999023438 c 1
 401.001953125 696.999023438 l 1
 405.001953125 692.999023438 412.334960938 687.999023438 423.001953125 681.999023438 c 0
 433.668945312 675.999023438 444.501953125 670.166015625 455.501953125 664.499023438 c 0
 466.501953125 658.83203125 476.334960938 653.83203125 485.001953125 649.499023438 c 2
 498.001953125 642.999023438 l 2
 498.001953125 639.666015625 498.834960938 634.333007812 500.501953125 627 c 0
 502.168945312 619.666992188 504.001953125 611.833984375 506.001953125 603.500976562 c 0
 508.001953125 595.16796875 509.834960938 587.000976562 511.501953125 579.000976562 c 0
 513.168945312 571.000976562 514.001953125 565.000976562 514.001953125 561.000976562 c 0
 514.001953125 557.66796875 513.001953125 556.000976562 511.001953125 556.000976562 c 0
 506.334960938 556.000976562 504.001953125 556.333984375 504.001953125 557.000976562 c 0
 504.001953125 558.333984375 500.334960938 559.000976562 493.001953125 559.000976562 c 1
 493.001953125 541.66796875 494.334960938 522.66796875 497.001953125 502.000976562 c 0
 499.668945312 481.333984375 502.668945312 460.666992188 506.001953125 440 c 0
 509.334960938 419.333007812 512.66796875 399.5 516.000976562 380.5 c 0
 519.333984375 361.5 521.666992188 345 523 331 c 1
 568 314 l 1
 568 306 l 1
 563.333007812 304 555.833007812 299.833007812 545.5 293.5 c 0
 535.166992188 287.166992188 527.666992188 282.666992188 523 280 c 0
 521.666992188 280 519.833984375 279 517.500976562 277 c 0
 515.16796875 275 514.000976562 273.333007812 514.000976562 272 c 0
 511.333984375 230.666992188 506.166992188 193 498.5 159 c 0
 490.833007812 125 479 88 463 48 c 1
382.004882812 506.99609375 m 0
 382.004882812 510.329101562 381.838867188 515.161132812 381.505859375 521.494140625 c 0
 381.172851562 527.827148438 381.005859375 533.66015625 381.005859375 538.993164062 c 2
 381.005859375 560.993164062 l 1
 360.005859375 577.993164062 l 1
 349.005859375 578.993164062 l 2
 341.672851562 579.66015625 335.33984375 579.993164062 330.006835938 579.993164062 c 2
 319.006835938 579.993164062 l 2
 305.006835938 579.993164062 290.673828125 579.326171875 276.006835938 577.993164062 c 0
 261.33984375 576.66015625 248.172851562 573.493164062 236.505859375 568.493164062 c 0
 224.838867188 563.493164062 215.338867188 556.326171875 208.005859375 546.993164062 c 0
 200.672851562 537.66015625 197.005859375 525.327148438 197.005859375 509.994140625 c 0
 197.005859375 493.994140625 203.005859375 478.661132812 215.005859375 463.994140625 c 0
 227.005859375 449.327148438 241.838867188 435.827148438 259.505859375 423.494140625 c 0
 277.172851562 411.161132812 296.172851562 400.161132812 316.505859375 390.494140625 c 0
 336.838867188 380.827148438 355.338867188 372.994140625 372.005859375 366.994140625 c 0
 375.338867188 365.661132812 378.171875 364.828125 380.504882812 364.495117188 c 0
 382.837890625 364.162109375 385.337890625 363.329101562 388.004882812 361.99609375 c 0
 396.004882812 371.99609375 400.004882812 384.663085938 400.004882812 399.99609375 c 2
 396.004882812 454.99609375 l 2
 396.004882812 464.99609375 393.671875 474.49609375 389.004882812 483.49609375 c 0
 384.337890625 492.49609375 382.004882812 500.329101562 382.004882812 506.99609375 c 0
EndSplineSet
EndChar

StartChar: colon
Encoding: 58 58 28
Width: 204
GlyphClass: 2
Flags: W
LayerCount: 2
Fore
SplineSet
181 70 m 2
 181 62.6669921875 180.66796875 57.9970703125 180.000976562 55.9970703125 c 0
 179.333984375 53.9970703125 179.000976562 51.6640625 179.000976562 48.9970703125 c 0
 179.000976562 46.330078125 178.500976562 43.330078125 177.500976562 39.9970703125 c 0
 176.500976562 36.6640625 173.66796875 30.3310546875 169.000976562 20.998046875 c 0
 167.66796875 18.998046875 166.66796875 16.6650390625 166.000976562 13.998046875 c 0
 165.333984375 11.3310546875 164.000976562 8.3310546875 162.000976562 4.998046875 c 2
 156.000976562 -6.001953125 l 2
 153.333984375 -10.001953125 151.000976562 -13.6689453125 149.000976562 -17.001953125 c 0
 147.000976562 -20.3349609375 143.333984375 -22.001953125 138.000976562 -22.001953125 c 0
 136.66796875 -22.001953125 134.500976562 -21.8349609375 131.500976562 -21.501953125 c 0
 128.500976562 -21.1689453125 126.66796875 -21.001953125 126.000976562 -21.001953125 c 0
 114.66796875 -19.6689453125 100.500976562 -16.6689453125 83.5009765625 -12.001953125 c 0
 66.5009765625 -7.3349609375 50.333984375 -3.3349609375 35.0009765625 -0.001953125 c 1
 18.0009765625 24.998046875 l 1
 19.0009765625 37.998046875 l 1
 33.0009765625 92.998046875 l 2
 34.333984375 101.665039062 36.1669921875 107.33203125 38.5 109.999023438 c 0
 40.8330078125 112.666015625 47 116.333007812 57 121 c 1
 171 102 l 1
 181 83 l 1
 181 70 l 2
181.000976562 384.997070312 m 2
 181.000976562 377.6640625 180.668945312 372.994140625 180.001953125 370.994140625 c 0
 179.334960938 368.994140625 179.001953125 366.661132812 179.001953125 363.994140625 c 0
 179.001953125 361.327148438 178.501953125 358.327148438 177.501953125 354.994140625 c 0
 176.501953125 351.661132812 173.668945312 345.328125 169.001953125 335.995117188 c 0
 167.668945312 333.995117188 166.668945312 331.662109375 166.001953125 328.995117188 c 0
 165.334960938 326.328125 164.001953125 323.328125 162.001953125 319.995117188 c 2
 156.001953125 308.995117188 l 2
 153.334960938 304.995117188 151.001953125 301.328125 149.001953125 297.995117188 c 0
 147.001953125 294.662109375 143.334960938 292.995117188 138.001953125 292.995117188 c 0
 136.668945312 292.995117188 134.501953125 293.162109375 131.501953125 293.495117188 c 0
 128.501953125 293.828125 126.668945312 293.995117188 126.001953125 293.995117188 c 0
 114.668945312 295.328125 100.501953125 298.328125 83.501953125 302.995117188 c 0
 66.501953125 307.662109375 50.3349609375 311.662109375 35.001953125 314.995117188 c 1
 18.001953125 339.995117188 l 1
 19.001953125 352.995117188 l 1
 33.001953125 407.995117188 l 2
 34.3349609375 416.662109375 36.16796875 422.329101562 38.5009765625 424.99609375 c 0
 40.833984375 427.663085938 47.0009765625 431.330078125 57.0009765625 435.997070312 c 1
 171.000976562 416.997070312 l 1
 181.000976562 397.997070312 l 1
 181.000976562 384.997070312 l 2
EndSplineSet
EndChar

StartChar: semicolon
Encoding: 59 59 29
Width: 210
GlyphClass: 2
Flags: W
LayerCount: 2
Fore
SplineSet
183 385 m 2
 183 377.666992188 182.499023438 372.997070312 181.499023438 370.997070312 c 0
 180.499023438 368.997070312 179.999023438 366.6640625 179.999023438 363.997070312 c 0
 179.999023438 361.330078125 179.499023438 358.330078125 178.499023438 354.997070312 c 0
 177.499023438 351.6640625 174.999023438 345.331054688 170.999023438 335.998046875 c 0
 168.999023438 333.998046875 167.666015625 331.665039062 166.999023438 328.998046875 c 0
 166.33203125 326.331054688 164.999023438 323.331054688 162.999023438 319.998046875 c 2
 160.999023438 314.998046875 l 1
 153.499023438 299.998046875 l 2
 151.166015625 295.331054688 146.333007812 292.998046875 139 292.998046875 c 0
 137.666992188 292.998046875 135.666992188 293.165039062 133 293.498046875 c 0
 130.333007812 293.831054688 128.333007812 293.998046875 127 293.998046875 c 0
 115.666992188 295.331054688 101.5 298.331054688 84.5 302.998046875 c 0
 67.5 307.665039062 51.3330078125 311.665039062 36 314.998046875 c 1
 19 339.998046875 l 1
 21 352.998046875 l 1
 34 407.998046875 l 2
 35.3330078125 416.665039062 37.3330078125 422.33203125 40 424.999023438 c 0
 42.6669921875 427.666015625 48.6669921875 431.333007812 58 436 c 1
 172 417 l 1
 183 398 l 1
 183 385 l 2
50.9990234375 -36.0029296875 m 2
 57.666015625 -23.3359375 60.9990234375 -10.6708984375 60.9990234375 1.99609375 c 0
 60.9990234375 10.6630859375 59.83203125 17.6630859375 57.4990234375 22.99609375 c 0
 55.166015625 28.3291015625 52.166015625 33.3291015625 48.4990234375 37.99609375 c 0
 44.83203125 42.6630859375 40.33203125 47.49609375 34.9990234375 52.49609375 c 0
 29.666015625 57.49609375 23.9990234375 63.99609375 17.9990234375 71.99609375 c 1
 26.9990234375 87.99609375 l 2
 27.666015625 90.6630859375 31.166015625 92.99609375 37.4990234375 94.99609375 c 0
 43.83203125 96.99609375 50.9990234375 98.6630859375 58.9990234375 99.99609375 c 0
 66.9990234375 101.329101562 75.33203125 102.329101562 83.9990234375 102.99609375 c 0
 92.666015625 103.663085938 99.666015625 103.99609375 104.999023438 103.99609375 c 2
 110.999023438 103.99609375 l 1
 113.999023438 104.99609375 l 1
 162.999023438 98.99609375 l 2
 167.666015625 98.99609375 171.666015625 95.49609375 174.999023438 88.49609375 c 0
 178.33203125 81.49609375 181.33203125 77.3291015625 183.999023438 75.99609375 c 0
 185.33203125 75.99609375 185.999023438 75.6630859375 185.999023438 74.99609375 c 2
 185.999023438 73.99609375 l 2
 186.666015625 73.3291015625 186.999023438 71.3291015625 186.999023438 67.99609375 c 2
 186.999023438 65.99609375 l 1
 188.33203125 65.99609375 188.999023438 64.3291015625 188.999023438 60.99609375 c 0
 188.999023438 57.6630859375 188.666015625 54.49609375 187.999023438 51.49609375 c 0
 187.33203125 48.49609375 186.665039062 44.99609375 185.998046875 40.99609375 c 0
 181.998046875 23.6630859375 176.665039062 9.49609375 169.998046875 -1.50390625 c 0
 163.331054688 -12.50390625 153.831054688 -22.50390625 141.498046875 -31.50390625 c 0
 129.165039062 -40.50390625 113.33203125 -49.6708984375 93.9990234375 -59.00390625 c 0
 74.666015625 -68.3369140625 50.666015625 -79.669921875 21.9990234375 -93.0029296875 c 1
 50.9990234375 -36.0029296875 l 2
EndSplineSet
EndChar

StartChar: less
Encoding: 60 60 30
Width: 408
GlyphClass: 2
Flags: W
LayerCount: 2
Fore
SplineSet
215 407 m 1
 257.000976562 372.999023438 l 1
 258.000976562 368.999023438 l 2
 260.000976562 364.33203125 261.833984375 360.33203125 263.500976562 356.999023438 c 0
 265.16796875 353.666015625 268.334960938 347.999023438 273.001953125 339.999023438 c 0
 281.001953125 323.999023438 288.834960938 308.499023438 296.501953125 293.499023438 c 0
 304.168945312 278.499023438 311.001953125 264.666015625 317.001953125 251.999023438 c 0
 323.001953125 239.33203125 327.834960938 228.165039062 331.501953125 218.498046875 c 0
 335.168945312 208.831054688 337.001953125 200.998046875 337.001953125 194.998046875 c 2
 337.001953125 186.998046875 l 2
 337.001953125 177.665039062 335.168945312 164.33203125 331.501953125 146.999023438 c 0
 327.834960938 129.666015625 323.834960938 112.333007812 319.501953125 95 c 0
 315.168945312 77.6669921875 311.001953125 62.1669921875 307.001953125 48.5 c 0
 303.001953125 34.8330078125 300.668945312 27.3330078125 300.001953125 26 c 2
 273.001953125 8 l 1
 271.001953125 14 269.668945312 25.5 269.001953125 42.5 c 0
 268.334960938 59.5 267.66796875 77.5 267.000976562 96.5 c 0
 266.333984375 115.5 265.500976562 133.666992188 264.500976562 151 c 0
 263.500976562 168.333007812 261.66796875 180.666015625 259.000976562 187.999023438 c 2
 255.000976562 205.999023438 l 2
 252.333984375 211.999023438 245.333984375 220.33203125 234.000976562 230.999023438 c 0
 222.66796875 241.666015625 210.834960938 252.166015625 198.501953125 262.499023438 c 0
 186.168945312 272.83203125 175.001953125 281.83203125 165.001953125 289.499023438 c 0
 155.001953125 297.166015625 150.001953125 301.333007812 150.001953125 302 c 2
 137.001953125 311 l 2
 121.001953125 321 108.501953125 328.333007812 99.501953125 333 c 0
 90.501953125 337.666992188 82.001953125 341.166992188 74.001953125 343.5 c 0
 66.001953125 345.833007812 57.3349609375 347.666015625 48.001953125 348.999023438 c 0
 38.6689453125 350.33203125 25.6689453125 352.665039062 9.001953125 355.998046875 c 1
 -6.998046875 373.998046875 l 1
 103.001953125 406.998046875 l 2
 116.334960938 414.331054688 127.16796875 424.1640625 135.500976562 436.497070312 c 0
 143.833984375 448.830078125 150.333984375 462.830078125 155.000976562 478.497070312 c 0
 159.66796875 494.1640625 162.834960938 510.497070312 164.501953125 527.497070312 c 0
 166.168945312 544.497070312 167.001953125 561.330078125 167.001953125 577.997070312 c 0
 167.001953125 582.6640625 170.168945312 592.1640625 176.501953125 606.497070312 c 0
 182.834960938 620.830078125 189.834960938 635.330078125 197.501953125 649.997070312 c 0
 205.168945312 664.6640625 212.168945312 677.831054688 218.501953125 689.498046875 c 2
 228.001953125 706.998046875 l 1
 238.001953125 707.998046875 l 2
 250.668945312 707.998046875 263.668945312 705.331054688 277.001953125 699.998046875 c 0
 290.334960938 694.665039062 303.334960938 688.33203125 316.001953125 680.999023438 c 0
 328.668945312 673.666015625 340.8359375 665.666015625 352.502929688 656.999023438 c 0
 364.169921875 648.33203125 374.669921875 640.665039062 384.002929688 633.998046875 c 2
 394.002929688 623.998046875 l 1
 395.002929688 607.998046875 l 2
 395.002929688 596.665039062 389.669921875 583.33203125 379.002929688 567.999023438 c 0
 368.3359375 552.666015625 355.668945312 537.333007812 341.001953125 522 c 0
 326.334960938 506.666992188 311.16796875 492 295.500976562 478 c 0
 279.833984375 464 266.666992188 452.666992188 256 444 c 0
 251.333007812 440.666992188 245.833007812 435.666992188 239.5 429 c 0
 233.166992188 422.333007812 225 415 215 407 c 1
EndSplineSet
EndChar

StartChar: equal
Encoding: 61 61 31
Width: 460
GlyphClass: 2
Flags: W
LayerCount: 2
Fore
SplineSet
294 296 m 2
 296.666992188 296 299.166992188 296.168945312 301.5 296.501953125 c 0
 303.833007812 296.834960938 306.666015625 297.334960938 309.999023438 298.001953125 c 2
 429.999023438 307.001953125 l 1
 422.999023438 277.001953125 l 2
 422.999023438 270.334960938 423.166015625 265.16796875 423.499023438 261.500976562 c 0
 423.83203125 257.833984375 423.999023438 254.000976562 423.999023438 250.000976562 c 0
 423.999023438 246.66796875 424.166015625 242.500976562 424.499023438 237.500976562 c 0
 424.83203125 232.500976562 425.33203125 225.66796875 425.999023438 217.000976562 c 0
 425.999023438 210.333984375 426.33203125 203.666992188 426.999023438 197 c 0
 427.666015625 190.333007812 429.333007812 184.333007812 432 179 c 1
 174 235 l 2
 166 238.333007812 156.333007812 242 145 246 c 0
 133.666992188 250 122.666992188 254.166992188 112 258.5 c 0
 101.333007812 262.833007812 91.5 267 82.5 271 c 0
 73.5 275 67.3330078125 278.666992188 64 282 c 0
 62 284 58.8330078125 286.833007812 54.5 290.5 c 2
 48 296 l 1
 34 306 l 1
 37 308 l 1
 294 296 l 2
171 399.001953125 m 2
 168.333007812 399.001953125 165.83203125 398.833984375 163.499023438 398.500976562 c 0
 161.166015625 398.16796875 158.333007812 397.66796875 155 397.000976562 c 2
 35 388.000976562 l 1
 42 418.000976562 l 2
 42 424.66796875 41.8330078125 429.834960938 41.5 433.501953125 c 0
 41.1669921875 437.168945312 41 441.001953125 41 445.001953125 c 0
 41 448.334960938 40.8330078125 452.501953125 40.5 457.501953125 c 0
 40.1669921875 462.501953125 39.6669921875 469.334960938 39 478.001953125 c 0
 39 492.001953125 37 504.668945312 33 516.001953125 c 1
 291 460.001953125 l 2
 299 456.668945312 308.666992188 453.001953125 320 449.001953125 c 0
 331.333007812 445.001953125 342.333007812 440.834960938 353 436.501953125 c 0
 363.666992188 432.168945312 373.5 428.001953125 382.5 424.001953125 c 0
 391.5 420.001953125 397.666992188 416.334960938 401 413.001953125 c 0
 403 411.001953125 406.166992188 408.168945312 410.5 404.501953125 c 2
 417 399.001953125 l 1
 431 389.001953125 l 1
 427 387.001953125 l 1
 171 399.001953125 l 2
EndSplineSet
EndChar

StartChar: greater
Encoding: 62 62 32
Width: 364
GlyphClass: 2
Flags: W
LayerCount: 2
Fore
SplineSet
357 369 m 1
 358.00390625 365.000976562 l 1
 297.00390625 308.000976562 l 2
 283.670898438 300.66796875 271.170898438 290.500976562 259.50390625 277.500976562 c 0
 247.836914062 264.500976562 237.50390625 249.833984375 228.50390625 233.500976562 c 0
 219.50390625 217.16796875 212.336914062 199.834960938 207.00390625 181.501953125 c 0
 201.670898438 163.168945312 199.00390625 145.001953125 199.00390625 127.001953125 c 0
 199.00390625 111.668945312 199.170898438 96.501953125 199.50390625 81.501953125 c 0
 199.836914062 66.501953125 201.00390625 53.001953125 203.00390625 41.001953125 c 2
 205.00390625 14.001953125 l 2
 203.670898438 12.001953125 201.837890625 9.8349609375 199.504882812 7.501953125 c 0
 197.171875 5.1689453125 195.004882812 3.6689453125 193.004882812 3.001953125 c 2
 184.004882812 3.001953125 l 2
 170.671875 3.001953125 156.504882812 5.8349609375 141.504882812 11.501953125 c 0
 126.504882812 17.1689453125 111.504882812 24.1689453125 96.5048828125 32.501953125 c 0
 81.5048828125 40.8349609375 67.337890625 49.501953125 54.0048828125 58.501953125 c 0
 40.671875 67.501953125 29.0048828125 75.3349609375 19.0048828125 82.001953125 c 1
 11.0048828125 103.001953125 l 1
 11.0048828125 114.334960938 15.837890625 127.66796875 25.5048828125 143.000976562 c 0
 35.171875 158.333984375 46.671875 173.666992188 60.0048828125 189 c 0
 73.337890625 204.333007812 87.337890625 219 102.004882812 233 c 0
 116.671875 247 129.004882812 258.333007812 139.004882812 267 c 0
 143.671875 270.333007812 151.171875 276.5 161.504882812 285.5 c 0
 171.837890625 294.5 183.004882812 304 195.004882812 314 c 1
 187.004882812 320 178.504882812 325.666992188 169.504882812 331 c 0
 160.504882812 336.333007812 152.171875 341.5 144.504882812 346.5 c 0
 136.837890625 351.5 130.170898438 356 124.50390625 360 c 0
 118.836914062 364 115.669921875 367.666992188 115.002929688 371 c 2
 115.002929688 374 l 2
 114.3359375 376 111.668945312 379.5 107.001953125 384.5 c 0
 102.334960938 389.5 97.501953125 395 92.501953125 401 c 0
 87.501953125 407 82.6689453125 412.833007812 78.001953125 418.5 c 0
 73.3349609375 424.166992188 70.66796875 429 70.0009765625 433 c 2
 70.0009765625 524 l 2
 70.0009765625 532.666992188 71.66796875 545.666992188 75.0009765625 563 c 0
 78.333984375 580.333007812 82.1669921875 597.666015625 86.5 614.999023438 c 0
 90.8330078125 632.33203125 95 647.83203125 99 661.499023438 c 0
 103 675.166015625 105.666992188 682.666015625 107 683.999023438 c 2
 135 701.999023438 l 1
 137 695.999023438 138.333007812 684.499023438 139 667.499023438 c 0
 139.666992188 650.499023438 140.166992188 632.499023438 140.5 613.499023438 c 0
 140.833007812 594.499023438 141.5 576.33203125 142.5 558.999023438 c 0
 143.5 541.666015625 145.333007812 529.666015625 148 522.999023438 c 2
 153 504.999023438 l 2
 155.666992188 498.999023438 162.166992188 490.83203125 172.5 480.499023438 c 0
 182.833007812 470.166015625 193.833007812 460.333007812 205.5 451 c 0
 217.166992188 441.666992188 227.666992188 433.5 237 426.5 c 2
 251 416 l 1
 263 407 l 1
 357 369 l 1
EndSplineSet
EndChar

StartChar: question
Encoding: 63 63 33
Width: 542
GlyphClass: 2
Flags: W
LayerCount: 2
Fore
SplineSet
16 610 m 0
 16 617.333007812 19.66796875 623.5 27.0009765625 628.5 c 0
 34.333984375 633.5 41.333984375 638.666992188 48.0009765625 644 c 2
 59.0009765625 650 l 2
 63.0009765625 651.333007812 68.0009765625 653.666015625 74.0009765625 656.999023438 c 0
 80.0009765625 660.33203125 83.66796875 662.665039062 85.0009765625 663.998046875 c 0
 87.66796875 665.331054688 92.16796875 666.998046875 98.5009765625 668.998046875 c 0
 104.833984375 670.998046875 109.333984375 671.998046875 112.000976562 671.998046875 c 0
 114.66796875 673.998046875 117.16796875 675.331054688 119.500976562 675.998046875 c 2
 130.000976562 678.998046875 l 2
 139.333984375 680.998046875 145.000976562 682.331054688 147.000976562 682.998046875 c 0
 149.000976562 683.665039062 152.000976562 684.33203125 156.000976562 684.999023438 c 0
 163.333984375 686.33203125 171.000976562 687.499023438 179.000976562 688.499023438 c 0
 187.000976562 689.499023438 192.333984375 689.999023438 195.000976562 689.999023438 c 2
 201.000976562 689.999023438 l 2
 203.000976562 689.999023438 206.16796875 690.166015625 210.500976562 690.499023438 c 0
 214.833984375 690.83203125 219.000976562 690.999023438 223.000976562 690.999023438 c 2
 233.000976562 690.999023438 l 2
 265.66796875 690.999023438 296.334960938 687.499023438 325.001953125 680.499023438 c 0
 353.668945312 673.499023438 380.168945312 661.999023438 404.501953125 645.999023438 c 0
 428.834960938 629.999023438 450.66796875 608.666015625 470.000976562 581.999023438 c 0
 489.333984375 555.33203125 505.666992188 522.33203125 519 482.999023438 c 0
 521.666992188 478.33203125 523 468.999023438 523 454.999023438 c 0
 523 437.666015625 518.666992188 420.333007812 510 403 c 0
 501.333007812 385.666992188 490.166015625 368.333984375 476.499023438 351.000976562 c 0
 462.83203125 333.66796875 447.165039062 316.500976562 429.498046875 299.500976562 c 0
 411.831054688 282.500976562 393.998046875 266.333984375 375.998046875 251.000976562 c 0
 369.998046875 246.333984375 363.831054688 242.833984375 357.498046875 240.500976562 c 0
 351.165039062 238.16796875 344.498046875 236.16796875 337.498046875 234.500976562 c 0
 330.498046875 232.833984375 323.831054688 231.000976562 317.498046875 229.000976562 c 0
 311.165039062 227.000976562 304.998046875 224.000976562 298.998046875 220.000976562 c 2
 136.998046875 194.000976562 l 1
 84.998046875 201.000976562 l 2
 77.6650390625 202.333984375 73.1650390625 206.000976562 71.498046875 212.000976562 c 0
 69.8310546875 218.000976562 68.998046875 225.000976562 68.998046875 233.000976562 c 2
 69.998046875 258.000976562 l 1
 97.998046875 258.000976562 126.165039062 260.333984375 154.498046875 265.000976562 c 0
 182.831054688 269.66796875 210.998046875 278.66796875 238.998046875 292.000976562 c 0
 262.998046875 303.333984375 283.498046875 319.166992188 300.498046875 339.5 c 0
 317.498046875 359.833007812 331.165039062 383.666015625 341.498046875 410.999023438 c 0
 351.831054688 438.33203125 359.498046875 468.33203125 364.498046875 500.999023438 c 0
 369.498046875 533.666015625 371.998046875 567.666015625 371.998046875 602.999023438 c 0
 371.998046875 606.33203125 369.998046875 607.999023438 365.998046875 607.999023438 c 0
 345.998046875 607.999023438 325.331054688 604.666015625 303.998046875 597.999023438 c 0
 282.665039062 591.33203125 261.998046875 582.499023438 241.998046875 571.499023438 c 0
 221.998046875 560.499023438 202.998046875 547.666015625 184.998046875 532.999023438 c 0
 166.998046875 518.33203125 151.331054688 502.999023438 137.998046875 486.999023438 c 0
 130.665039062 476.999023438 122.33203125 464.499023438 112.999023438 449.499023438 c 0
 103.666015625 434.499023438 94.3330078125 423.33203125 85 415.999023438 c 1
 82 415.999023438 l 1
 73.3330078125 424.666015625 65 436.999023438 57 452.999023438 c 0
 49 468.999023438 42 486.33203125 36 504.999023438 c 0
 30 523.666015625 25.1669921875 542.333007812 21.5 561 c 0
 17.8330078125 579.666992188 16 596 16 610 c 0
229.000976562 81 m 2
 229.000976562 73.6669921875 228.833984375 69.1689453125 228.500976562 67.501953125 c 0
 228.16796875 65.8349609375 228.000976562 63.66796875 228.000976562 61.0009765625 c 0
 228.000976562 59.0009765625 227.500976562 56.333984375 226.500976562 53.0009765625 c 0
 225.500976562 49.66796875 223.000976562 43.66796875 219.000976562 35.0009765625 c 0
 217.000976562 33.0009765625 215.833984375 30.833984375 215.500976562 28.5009765625 c 0
 215.16796875 26.16796875 214.334960938 23.3349609375 213.001953125 20.001953125 c 2
 207.001953125 10.001953125 l 1
 200.001953125 -0.498046875 l 2
 198.001953125 -3.498046875 195.001953125 -4.998046875 191.001953125 -4.998046875 c 0
 189.001953125 -4.998046875 186.668945312 -4.8310546875 184.001953125 -4.498046875 c 0
 181.334960938 -4.1650390625 179.66796875 -3.998046875 179.000976562 -3.998046875 c 0
 169.000976562 -2.6650390625 156.16796875 0.16796875 140.500976562 4.5009765625 c 0
 124.833984375 8.833984375 110.000976562 12.6669921875 96.0009765625 16 c 1
 81.0009765625 39 l 1
 82.0009765625 51 l 1
 94.0009765625 103 l 2
 95.333984375 111 96.833984375 116.333007812 98.5009765625 119 c 0
 100.16796875 121.666992188 105.66796875 125 115.000976562 129 c 1
 220.000976562 111 l 1
 229.000976562 93 l 1
 229.000976562 81 l 2
EndSplineSet
EndChar

StartChar: at
Encoding: 64 64 34
Width: 537
GlyphClass: 2
Flags: W
LayerCount: 2
Fore
SplineSet
511 367 m 0
 511 329 502.673828125 294.837890625 486.006835938 264.504882812 c 0
 469.33984375 234.171875 448.672851562 203.671875 424.005859375 173.004882812 c 1
 414.005859375 165.004882812 l 1
 413.505859375 164.504882812 l 2
 413.172851562 164.171875 412.672851562 164.004882812 412.005859375 164.004882812 c 0
 411.338867188 164.004882812 410.671875 164.171875 410.004882812 164.504882812 c 2
 409.004882812 165.004882812 l 2
 404.337890625 165.671875 396.837890625 167.838867188 386.504882812 171.505859375 c 0
 376.171875 175.172851562 365.671875 179.172851562 355.004882812 183.505859375 c 0
 344.337890625 187.838867188 335.004882812 192.338867188 327.004882812 197.005859375 c 0
 319.004882812 201.672851562 315.004882812 205.672851562 315.004882812 209.005859375 c 0
 315.004882812 212.338867188 316.504882812 214.671875 319.504882812 216.004882812 c 0
 322.504882812 217.337890625 324.004882812 220.004882812 324.004882812 224.004882812 c 0
 324.004882812 224.671875 324.171875 225.504882812 324.504882812 226.504882812 c 2
 325.004882812 228.004882812 l 1
 315.004882812 243.004882812 l 2
 298.337890625 265.004882812 283.837890625 286.671875 271.504882812 308.004882812 c 0
 259.171875 329.337890625 253.004882812 353.004882812 253.004882812 379.004882812 c 0
 253.004882812 409.004882812 263.337890625 434.504882812 284.004882812 455.504882812 c 0
 304.671875 476.504882812 331.004882812 494.004882812 363.004882812 508.004882812 c 2
 373.004882812 513.004882812 l 1
 431.004882812 489.004882812 l 1
 437.004882812 494.004882812 l 1
 421.671875 510.671875 408.504882812 524.171875 397.504882812 534.504882812 c 0
 386.504882812 544.837890625 376.337890625 554.670898438 367.004882812 564.00390625 c 1
 331.671875 564.00390625 301.171875 556.50390625 275.504882812 541.50390625 c 0
 249.837890625 526.50390625 228.670898438 507.00390625 212.00390625 483.00390625 c 0
 195.336914062 459.00390625 183.00390625 431.836914062 175.00390625 401.50390625 c 0
 167.00390625 371.170898438 163.00390625 341.00390625 163.00390625 311.00390625 c 0
 163.00390625 301.670898438 164.670898438 285.50390625 168.00390625 262.50390625 c 0
 171.336914062 239.50390625 176.169921875 215.50390625 182.502929688 190.50390625 c 0
 188.8359375 165.50390625 196.668945312 143.170898438 206.001953125 123.50390625 c 0
 215.334960938 103.836914062 225.66796875 93.00390625 237.000976562 91.00390625 c 0
 237.66796875 90.3369140625 240.334960938 90.00390625 245.001953125 90.00390625 c 0
 257.001953125 90.00390625 267.501953125 91.6708984375 276.501953125 95.00390625 c 0
 285.501953125 98.3369140625 293.501953125 102.50390625 300.501953125 107.50390625 c 0
 307.501953125 112.50390625 313.834960938 117.836914062 319.501953125 123.50390625 c 0
 325.168945312 129.170898438 331.001953125 134.670898438 337.001953125 140.00390625 c 1
 347.001953125 140.00390625 l 1
 359.668945312 120.00390625 373.168945312 101.50390625 387.501953125 84.50390625 c 0
 401.834960938 67.50390625 419.66796875 53.3369140625 441.000976562 42.00390625 c 1
 437.000976562 37.3369140625 433.833984375 34.169921875 431.500976562 32.5029296875 c 0
 429.16796875 30.8359375 426.834960938 29.6689453125 424.501953125 29.001953125 c 0
 422.168945312 28.3349609375 419.501953125 27.8349609375 416.501953125 27.501953125 c 0
 413.501953125 27.1689453125 409.001953125 26.001953125 403.001953125 24.001953125 c 0
 398.334960938 22.001953125 392.16796875 19.8349609375 384.500976562 17.501953125 c 0
 376.833984375 15.1689453125 368.833984375 13.001953125 360.500976562 11.001953125 c 0
 352.16796875 9.001953125 344.16796875 7.001953125 336.500976562 5.001953125 c 0
 328.833984375 3.001953125 322.666992188 1.3349609375 318 0.001953125 c 1
 318 -7.998046875 l 2
 318.666992188 -9.998046875 320 -14.6650390625 322 -21.998046875 c 0
 324 -29.3310546875 326 -33.998046875 328 -35.998046875 c 1
 297 -41.998046875 l 2
 289 -43.998046875 282 -44.998046875 276 -44.998046875 c 2
 273 -44.998046875 l 2
 259 -43.6650390625 246.666992188 -39.83203125 236 -33.4990234375 c 0
 225.333007812 -27.166015625 214.5 -18.8330078125 203.5 -8.5 c 0
 192.5 1.8330078125 180.666992188 14 168 28 c 0
 155.333007812 42 140.333007812 57 123 73 c 0
 104.333007812 95 88.5 119.833007812 75.5 147.5 c 0
 62.5 175.166992188 52 204 44 234 c 0
 36 264 30.1669921875 294 26.5 324 c 0
 22.8330078125 354 21 382.333007812 21 409 c 0
 21 505.666992188 44.1669921875 576.5 90.5 621.5 c 0
 136.833007812 666.5 211 689 313 689 c 0
 333 689 355 688 379 686 c 1
 381 691.333007812 383.333007812 695.833007812 386 699.5 c 0
 388.666992188 703.166992188 393.333984375 706.666992188 400.000976562 710 c 1
 411.333984375 700.666992188 424.166992188 689 438.5 675 c 0
 452.833007812 661 466.5 646.166992188 479.5 630.5 c 0
 492.5 614.833007812 503.5 598.833007812 512.5 582.5 c 0
 521.5 566.166992188 526 551 526 537 c 1
 493 537 l 1
 503 429 l 2
 506.333007812 418.333007812 508.5 407.833007812 509.5 397.5 c 0
 510.5 387.166992188 511 377 511 367 c 0
413.006835938 391.004882812 m 2
 413.006835938 404.00390625 l 1
 412.006835938 408.00390625 l 2
 411.33984375 411.336914062 410.672851562 413.669921875 410.005859375 415.002929688 c 0
 409.338867188 416.3359375 406.671875 417.002929688 402.004882812 417.002929688 c 0
 391.337890625 417.002929688 382.837890625 415.169921875 376.504882812 411.502929688 c 0
 370.171875 407.8359375 365.338867188 403.002929688 362.005859375 397.002929688 c 0
 358.672851562 391.002929688 356.505859375 384.169921875 355.505859375 376.502929688 c 0
 354.505859375 368.8359375 354.005859375 361.002929688 354.005859375 353.002929688 c 2
 354.005859375 340.002929688 l 2
 354.005859375 336.669921875 354.672851562 331.836914062 356.005859375 325.50390625 c 0
 357.338867188 319.170898438 359.005859375 312.837890625 361.005859375 306.504882812 c 0
 363.005859375 300.171875 365.338867188 294.504882812 368.005859375 289.504882812 c 0
 370.672851562 284.504882812 373.33984375 282.004882812 376.006835938 282.004882812 c 0
 384.006835938 282.004882812 390.506835938 286.337890625 395.506835938 295.004882812 c 0
 400.506835938 303.671875 404.173828125 314.004882812 406.506835938 326.004882812 c 0
 408.83984375 338.004882812 410.506835938 350.004882812 411.506835938 362.004882812 c 0
 412.506835938 374.004882812 413.006835938 383.671875 413.006835938 391.004882812 c 2
EndSplineSet
EndChar

StartChar: A
Encoding: 65 65 35
Width: 544
GlyphClass: 2
Flags: W
LayerCount: 2
Fore
SplineSet
409 166 m 1
 403.666992188 163.333007812 397.498046875 158.669921875 390.498046875 152.002929688 c 0
 383.498046875 145.3359375 376.165039062 138.502929688 368.498046875 131.502929688 c 0
 360.831054688 124.502929688 352.998046875 118.3359375 344.998046875 113.002929688 c 0
 336.998046875 107.669921875 329.665039062 105.002929688 322.998046875 105.002929688 c 2
 320.998046875 105.002929688 l 2
 319.665039062 105.002929688 318.33203125 105.169921875 316.999023438 105.502929688 c 2
 314.999023438 106.002929688 l 1
 202.999023438 187.002929688 l 1
 200.999023438 178.002929688 l 2
 200.999023438 168.002929688 203.499023438 155.502929688 208.499023438 140.502929688 c 0
 213.499023438 125.502929688 217.666015625 113.669921875 220.999023438 105.002929688 c 0
 221.666015625 101.002929688 223.666015625 94.169921875 226.999023438 84.5029296875 c 0
 230.33203125 74.8359375 233.999023438 64.5029296875 237.999023438 53.5029296875 c 0
 241.999023438 42.5029296875 245.666015625 32.3359375 248.999023438 23.0029296875 c 0
 252.33203125 13.669921875 254.665039062 7.669921875 255.998046875 5.0029296875 c 2
 252.998046875 -2.9970703125 l 1
 242.998046875 -2.9970703125 l 2
 234.998046875 -2.9970703125 225.165039062 -2.830078125 213.498046875 -2.4970703125 c 0
 201.831054688 -2.1640625 192.331054688 -1.3310546875 184.998046875 0.001953125 c 2
 168.998046875 3.001953125 l 2
 153.665039062 5.001953125 137.33203125 7.501953125 119.999023438 10.501953125 c 0
 102.666015625 13.501953125 86.8330078125 17.501953125 72.5 22.501953125 c 0
 58.1669921875 27.501953125 46.1669921875 34.1689453125 36.5 42.501953125 c 0
 26.8330078125 50.8349609375 22 61.001953125 22 73.001953125 c 2
 31 263.001953125 l 2
 29 267.668945312 24.5 271.668945312 17.5 275.001953125 c 0
 10.5 278.334960938 3.6669921875 280.66796875 -3 282.000976562 c 0
 -6.3330078125 282.66796875 -11 285.66796875 -17 291.000976562 c 0
 -23 296.333984375 -29.5 302.333984375 -36.5 309.000976562 c 0
 -43.5 315.66796875 -50.3330078125 321.834960938 -57 327.501953125 c 0
 -63.6669921875 333.168945312 -69 336.668945312 -73 338.001953125 c 1
 -70.3330078125 338.668945312 -68.5 339.168945312 -67.5 339.501953125 c 0
 -66.5 339.834960938 -65 340.001953125 -63 340.001953125 c 0
 -57.6669921875 340.001953125 -51.6669921875 338.334960938 -45 335.001953125 c 0
 -38.3330078125 331.668945312 -31.5 328.168945312 -24.5 324.501953125 c 0
 -17.5 320.834960938 -10.5 317.334960938 -3.5 314.001953125 c 0
 3.5 310.668945312 10.3330078125 309.001953125 17 309.001953125 c 0
 27 309.001953125 33 310.668945312 35 314.001953125 c 0
 53.6669921875 368.001953125 73.6669921875 420.001953125 95 470.001953125 c 0
 116.333007812 520.001953125 145 570.001953125 181 620.001953125 c 1
 172.333007812 629.334960938 168 638.334960938 168 647.001953125 c 2
 169 653.001953125 l 1
 288 728.001953125 l 1
 277 688.001953125 l 1
 385 688.001953125 l 2
 392.333007812 684.668945312 397.333007812 682.501953125 400 681.501953125 c 0
 402.666992188 680.501953125 406.333984375 676.334960938 411.000976562 669.001953125 c 0
 449.66796875 603.001953125 477.334960938 538.668945312 494.001953125 476.001953125 c 0
 510.668945312 413.334960938 519.001953125 348.001953125 519.001953125 280.001953125 c 0
 519.001953125 240.001953125 516.168945312 200.501953125 510.501953125 161.501953125 c 0
 504.834960938 122.501953125 496.66796875 82.6689453125 486.000976562 42.001953125 c 0
 485.333984375 38.6689453125 483.666992188 33.1689453125 481 25.501953125 c 0
 478.333007812 17.8349609375 476 9.66796875 474 1.0009765625 c 0
 470.666992188 -18.33203125 467 -31.6650390625 463 -38.998046875 c 1
 451 9.001953125 l 2
 451 10.3349609375 450.833007812 11.66796875 450.5 13.0009765625 c 0
 450.166992188 14.333984375 450 16.6669921875 450 20 c 2
 424 141 l 1
 421 148 l 2
 419.666992188 151.333007812 418.5 154.5 417.5 157.5 c 0
 416.5 160.5 413.666992188 163.333007812 409 166 c 1
191.998046875 298.00390625 m 0
 196.665039062 296.00390625 205.998046875 293.171875 219.998046875 289.504882812 c 0
 233.998046875 285.837890625 249.331054688 282.170898438 265.998046875 278.50390625 c 0
 282.665039062 274.836914062 298.498046875 271.50390625 313.498046875 268.50390625 c 0
 328.498046875 265.50390625 339.331054688 263.670898438 345.998046875 263.00390625 c 0
 349.998046875 261.670898438 356.165039062 260.170898438 364.498046875 258.50390625 c 2
 381.998046875 255.00390625 l 1
 383.998046875 264.00390625 l 2
 383.998046875 265.336914062 382.998046875 271.836914062 380.998046875 283.50390625 c 0
 378.998046875 295.170898438 376.331054688 308.670898438 372.998046875 324.00390625 c 0
 369.665039062 339.336914062 365.83203125 355.00390625 361.499023438 371.00390625 c 0
 357.166015625 387.00390625 352.666015625 400.00390625 347.999023438 410.00390625 c 0
 335.999023438 436.00390625 321.666015625 463.50390625 304.999023438 492.50390625 c 0
 288.33203125 521.50390625 267.999023438 547.670898438 243.999023438 571.00390625 c 1
 237.33203125 564.336914062 230.33203125 558.00390625 222.999023438 552.00390625 c 0
 215.666015625 546.00390625 210.999023438 540.336914062 208.999023438 535.00390625 c 0
 206.33203125 522.336914062 203.165039062 508.336914062 199.498046875 493.00390625 c 0
 195.831054688 477.670898438 192.498046875 462.00390625 189.498046875 446.00390625 c 0
 186.498046875 430.00390625 183.831054688 414.00390625 181.498046875 398.00390625 c 0
 179.165039062 382.00390625 177.998046875 367.336914062 177.998046875 354.00390625 c 0
 177.998046875 340.00390625 178.998046875 328.00390625 180.998046875 318.00390625 c 0
 182.998046875 308.00390625 186.665039062 301.336914062 191.998046875 298.00390625 c 0
EndSplineSet
EndChar

StartChar: B
Encoding: 66 66 36
Width: 621
GlyphClass: 2
Flags: W
LayerCount: 2
Fore
SplineSet
91 0 m 1
 91 1.3330078125 89.8369140625 3.001953125 87.50390625 5.001953125 c 0
 85.1708984375 7.001953125 83.337890625 8.001953125 82.0048828125 8.001953125 c 2
 30.0048828125 34.001953125 l 1
 30.0048828125 42.001953125 l 1
 91.0048828125 59.001953125 l 1
 91.0048828125 71.001953125 l 2
 92.337890625 75.6689453125 93.337890625 80.6689453125 94.0048828125 86.001953125 c 0
 94.671875 91.3349609375 95.671875 97.001953125 97.0048828125 103.001953125 c 0
 90.337890625 131.668945312 85.0048828125 160.001953125 81.0048828125 188.001953125 c 0
 77.0048828125 216.001953125 73.671875 244.001953125 71.0048828125 272.001953125 c 0
 71.0048828125 273.334960938 69.837890625 275.001953125 67.5048828125 277.001953125 c 0
 65.171875 279.001953125 63.0048828125 280.001953125 61.0048828125 280.001953125 c 2
 10.0048828125 306.001953125 l 1
 10.0048828125 314.001953125 l 1
 71.0048828125 331.001953125 l 1
 72.337890625 345.001953125 74.6708984375 361.501953125 78.00390625 380.501953125 c 0
 81.3369140625 399.501953125 84.669921875 419.334960938 88.0029296875 440.001953125 c 0
 91.3359375 460.668945312 94.3359375 481.3359375 97.0029296875 502.002929688 c 0
 99.669921875 522.669921875 101.002929688 541.669921875 101.002929688 559.002929688 c 1
 93.0029296875 559.002929688 85.8359375 558.002929688 79.5029296875 556.002929688 c 0
 73.169921875 554.002929688 68.0029296875 553.002929688 64.0029296875 553.002929688 c 0
 59.3359375 553.002929688 56.0029296875 554.502929688 54.0029296875 557.502929688 c 0
 52.0029296875 560.502929688 51.0029296875 566.002929688 51.0029296875 574.002929688 c 1
 71.5029296875 591.002929688 l 2
 85.169921875 602.3359375 100.336914062 615.168945312 117.00390625 629.501953125 c 0
 133.670898438 643.834960938 149.50390625 657.66796875 164.50390625 671.000976562 c 0
 179.50390625 684.333984375 189.00390625 693.000976562 193.00390625 697.000976562 c 1
 234.00390625 671.000976562 l 1
 246.00390625 671.66796875 258.670898438 672.16796875 272.00390625 672.500976562 c 0
 285.336914062 672.833984375 298.669921875 673.000976562 312.002929688 673.000976562 c 0
 342.002929688 673.000976562 372.502929688 671.500976562 403.502929688 668.500976562 c 0
 434.502929688 665.500976562 462.3359375 659.000976562 487.002929688 649.000976562 c 0
 511.669921875 639.000976562 531.836914062 624.66796875 547.50390625 606.000976562 c 0
 563.170898438 587.333984375 571.00390625 562.333984375 571.00390625 531.000976562 c 0
 571.00390625 499.000976562 562.670898438 469.16796875 546.00390625 441.500976562 c 0
 529.336914062 413.833984375 507.669921875 388.333984375 481.002929688 365.000976562 c 1
 515.669921875 362.333984375 544.336914062 353.333984375 567.00390625 338.000976562 c 0
 589.670898438 322.66796875 601.00390625 296.334960938 601.00390625 259.001953125 c 0
 601.00390625 241.668945312 597.170898438 224.001953125 589.50390625 206.001953125 c 0
 581.836914062 188.001953125 571.669921875 170.668945312 559.002929688 154.001953125 c 0
 546.3359375 137.334960938 532.168945312 121.66796875 516.501953125 107.000976562 c 0
 500.834960938 92.333984375 484.66796875 79.6669921875 468.000976562 69 c 0
 457.333984375 61 445.000976562 54 431.000976562 48 c 0
 417.000976562 42 402.333984375 36.5 387.000976562 31.5 c 0
 371.66796875 26.5 356.000976562 22 340.000976562 18 c 0
 324.000976562 14 308.66796875 10.3330078125 294.000976562 7 c 0
 293.333984375 6.3330078125 291.666992188 6 289 6 c 0
 287 6 285.666992188 5.6669921875 285 5 c 2
 265 0 l 1
 91 0 l 1
211.00390625 507.001953125 m 1
 211.001953125 459.000976562 l 2
 211.001953125 443.66796875 212.334960938 428.000976562 215.001953125 412.000976562 c 0
 217.668945312 396.000976562 224.001953125 382.333984375 234.001953125 371.000976562 c 1
 250.668945312 377.000976562 269.3359375 384.333984375 290.002929688 393.000976562 c 0
 310.669921875 401.66796875 330.002929688 411.66796875 348.002929688 423.000976562 c 0
 366.002929688 434.333984375 381.169921875 447.333984375 393.502929688 462.000976562 c 0
 405.8359375 476.66796875 412.002929688 492.66796875 412.002929688 510.000976562 c 0
 412.002929688 525.333984375 407.502929688 537.833984375 398.502929688 547.500976562 c 0
 389.502929688 557.16796875 378.3359375 564.834960938 365.002929688 570.501953125 c 0
 351.669921875 576.168945312 337.002929688 580.001953125 321.002929688 582.001953125 c 0
 305.002929688 584.001953125 289.669921875 585.001953125 275.002929688 585.001953125 c 2
 264.002929688 585.001953125 l 2
 258.669921875 585.001953125 252.336914062 584.668945312 245.00390625 584.001953125 c 2
 234.00390625 583.001953125 l 1
 213.00390625 566.001953125 l 1
 213.00390625 507.001953125 l 1
 211.00390625 507.001953125 l 1
244.001953125 257.000976562 m 2
 244.001953125 233.000976562 248.66796875 207.66796875 258.000976562 181.000976562 c 0
 267.333984375 154.333984375 277.000976562 129.000976562 287.000976562 105.000976562 c 1
 301.66796875 111.66796875 316.834960938 119.834960938 332.501953125 129.501953125 c 0
 348.168945312 139.168945312 362.3359375 150.001953125 375.002929688 162.001953125 c 0
 387.669921875 174.001953125 398.002929688 186.834960938 406.002929688 200.501953125 c 0
 414.002929688 214.168945312 418.002929688 228.668945312 418.002929688 244.001953125 c 0
 418.002929688 278.668945312 402.3359375 300.668945312 371.002929688 310.001953125 c 1
 352.3359375 303.334960938 332.168945312 297.16796875 310.501953125 291.500976562 c 0
 288.834960938 285.833984375 267.001953125 281.333984375 245.001953125 278.000976562 c 1
 244.001953125 257.000976562 l 2
EndSplineSet
EndChar

StartChar: C
Encoding: 67 67 37
Width: 474
GlyphClass: 2
Flags: W
LayerCount: 2
Fore
SplineSet
22 377 m 0
 22 406.333007812 23.994140625 432.5 27.994140625 455.5 c 0
 31.994140625 478.5 38.6611328125 504 47.994140625 532 c 1
 47.994140625 536 l 1
 38.6611328125 536 32.828125 535.5 30.4951171875 534.5 c 0
 28.162109375 533.5 23.3291015625 531.333007812 15.99609375 528 c 1
 21.3291015625 541.333007812 28.99609375 553 38.99609375 563 c 2
 69.99609375 594 l 2
 72.6630859375 596 75.330078125 600.833007812 77.9970703125 608.5 c 0
 80.6640625 616.166992188 83.3310546875 624.166992188 85.998046875 632.5 c 0
 88.6650390625 640.833007812 91.6650390625 648.166015625 94.998046875 654.499023438 c 0
 98.3310546875 660.83203125 102.6640625 663.999023438 107.997070312 663.999023438 c 1
 107.997070312 605.999023438 l 2
 107.997070312 601.33203125 109.330078125 598.999023438 111.997070312 598.999023438 c 0
 113.330078125 598.999023438 114.330078125 599.33203125 114.997070312 599.999023438 c 0
 153.6640625 627.999023438 193.997070312 651.499023438 235.997070312 670.499023438 c 0
 277.997070312 689.499023438 324.6640625 698.999023438 375.997070312 698.999023438 c 0
 389.330078125 698.999023438 400.163085938 698.666015625 408.49609375 697.999023438 c 0
 416.829101562 697.33203125 428.99609375 695.33203125 444.99609375 691.999023438 c 0
 447.663085938 691.999023438 449.330078125 690.666015625 449.997070312 687.999023438 c 0
 452.6640625 683.33203125 453.997070312 675.33203125 453.997070312 663.999023438 c 2
 453.997070312 610.999023438 l 1
 452.997070312 606.999023438 l 2
 452.997070312 604.33203125 451.1640625 597.499023438 447.497070312 586.499023438 c 0
 443.830078125 575.499023438 439.330078125 563.999023438 433.997070312 551.999023438 c 0
 428.6640625 539.999023438 422.831054688 529.166015625 416.498046875 519.499023438 c 0
 410.165039062 509.83203125 404.33203125 504.999023438 398.999023438 504.999023438 c 2
 394.999023438 505.999023438 l 1
 375.666015625 516.666015625 357.833007812 525.833007812 341.5 533.5 c 0
 325.166992188 541.166992188 309 547.333984375 293 552.000976562 c 0
 277 556.66796875 260.333007812 560.000976562 243 562.000976562 c 0
 225.666992188 564.000976562 206 565.000976562 184 565.000976562 c 0
 163.333007812 565.000976562 147 564.500976562 135 563.500976562 c 0
 123 562.500976562 114 559.500976562 108 554.500976562 c 0
 102 549.500976562 98.1669921875 542.000976562 96.5 532.000976562 c 0
 94.8330078125 522.000976562 94 508.000976562 94 490.000976562 c 0
 94 455.333984375 98.8330078125 422.666992188 108.5 392 c 0
 118.166992188 361.333007812 135.333984375 332 160.000976562 304 c 0
 194.000976562 268 233.500976562 242.666992188 278.500976562 228 c 0
 323.500976562 213.333007812 372.000976562 204.666015625 424.000976562 201.999023438 c 1
 424.000976562 196.999023438 l 2
 424.000976562 183.666015625 422.66796875 168.999023438 420.000976562 152.999023438 c 0
 417.333984375 136.999023438 414.166992188 120.83203125 410.5 104.499023438 c 0
 406.833007812 88.166015625 403 71.9990234375 399 55.9990234375 c 0
 395 39.9990234375 391.666992188 25.666015625 389 12.9990234375 c 2
 387 7.9990234375 l 2
 385 4.666015625 383.666992188 2.3330078125 383 1 c 0
 382.333007812 -0.3330078125 380 -1 376 -1 c 0
 345.333007812 -1 314.5 3.3330078125 283.5 12 c 0
 252.5 20.6669921875 223.166992188 32.6669921875 195.5 48 c 0
 167.833007812 63.3330078125 143 81.3330078125 121 102 c 0
 99 122.666992188 81.6669921875 145 69 169 c 0
 49.6669921875 203 37 237.166992188 31 271.5 c 0
 25 305.833007812 22 341 22 377 c 0
EndSplineSet
EndChar

StartChar: D
Encoding: 68 68 38
Width: 580
GlyphClass: 2
Flags: W
LayerCount: 2
Fore
SplineSet
73 57 m 1
 71.4990234375 63.00390625 l 1
 70.9990234375 65.00390625 l 2
 70.9990234375 75.00390625 79.666015625 81.00390625 96.9990234375 83.00390625 c 1
 95.666015625 109.00390625 94.666015625 135.836914062 93.9990234375 163.50390625 c 0
 93.33203125 191.170898438 92.9990234375 220.00390625 92.9990234375 250.00390625 c 0
 92.9990234375 292.00390625 93.666015625 333.00390625 94.9990234375 373.00390625 c 0
 96.33203125 413.00390625 98.9990234375 452.00390625 102.999023438 490.00390625 c 1
 86.33203125 484.670898438 71.4990234375 480.170898438 58.4990234375 476.50390625 c 0
 45.4990234375 472.836914062 32.33203125 465.669921875 18.9990234375 455.002929688 c 1
 17.9990234375 460.002929688 l 2
 17.33203125 460.669921875 16.9990234375 464.002929688 16.9990234375 470.002929688 c 2
 16.9990234375 481.002929688 l 2
 16.9990234375 503.002929688 24.666015625 525.3359375 39.9990234375 548.002929688 c 0
 55.33203125 570.669921875 72.9990234375 592.836914062 92.9990234375 614.50390625 c 0
 112.999023438 636.170898438 132.166015625 657.170898438 150.499023438 677.50390625 c 0
 168.83203125 697.836914062 180.999023438 716.669921875 186.999023438 734.002929688 c 1
 195.999023438 721.002929688 l 1
 195.999023438 699.002929688 l 1
 196.999023438 688.002929688 l 1
 208.33203125 689.3359375 219.499023438 690.3359375 230.499023438 691.002929688 c 0
 241.499023438 691.669921875 252.666015625 692.002929688 263.999023438 692.002929688 c 0
 295.999023438 692.002929688 326.33203125 689.002929688 354.999023438 683.002929688 c 0
 383.666015625 677.002929688 409.833007812 667.002929688 433.5 653.002929688 c 0
 457.166992188 639.002929688 478 620.8359375 496 598.502929688 c 0
 514 576.169921875 528.333007812 549.002929688 539 517.002929688 c 2
 543 501.002929688 l 2
 546.333007812 492.3359375 548.833007812 483.8359375 550.5 475.502929688 c 0
 552.166992188 467.169921875 553.666992188 462.336914062 555 461.00390625 c 0
 556.333007812 453.670898438 557.333007812 446.00390625 558 438.00390625 c 0
 558.666992188 430.00390625 559 422.336914062 559 415.00390625 c 0
 559 378.336914062 550 342.669921875 532 308.002929688 c 0
 514 273.3359375 491.166992188 240.668945312 463.5 210.001953125 c 0
 435.833007812 179.334960938 405.5 151.16796875 372.5 125.500976562 c 0
 339.5 99.833984375 307.833007812 77.6669921875 277.5 59 c 0
 247.166992188 40.3330078125 220.5 25.8330078125 197.5 15.5 c 0
 174.5 5.1669921875 159 0 151 0 c 2
 121 -1 l 1
 121 -2 l 1
 120 -2 l 1
 73 57 l 1
197.999023438 505.00390625 m 2
 197.33203125 504.336914062 196.997070312 497.67578125 196.997070312 485.008789062 c 2
 196.997070312 457.008789062 l 2
 196.997070312 441.67578125 197.497070312 426.17578125 198.497070312 410.508789062 c 0
 199.497070312 394.841796875 200.997070312 383.674804688 202.997070312 377.0078125 c 0
 205.6640625 369.0078125 208.997070312 352.674804688 212.997070312 328.0078125 c 0
 216.997070312 303.340820312 221.330078125 276.840820312 225.997070312 248.5078125 c 0
 230.6640625 220.174804688 235.331054688 193.5078125 239.998046875 168.5078125 c 0
 244.665039062 143.5078125 248.665039062 126.674804688 251.998046875 118.0078125 c 1
 273.998046875 124.674804688 293.998046875 135.674804688 311.998046875 151.0078125 c 0
 329.998046875 166.340820312 345.498046875 184.173828125 358.498046875 204.506835938 c 0
 371.498046875 224.83984375 381.498046875 247.172851562 388.498046875 271.505859375 c 0
 395.498046875 295.838867188 398.998046875 320.338867188 398.998046875 345.005859375 c 0
 398.998046875 350.338867188 398.665039062 357.171875 397.998046875 365.504882812 c 0
 397.331054688 373.837890625 396.498046875 382.504882812 395.498046875 391.504882812 c 0
 394.498046875 400.504882812 393.331054688 409.171875 391.998046875 417.504882812 c 0
 390.665039062 425.837890625 389.665039062 432.670898438 388.998046875 438.00390625 c 0
 379.665039062 468.00390625 368.498046875 490.00390625 355.498046875 504.00390625 c 0
 342.498046875 518.00390625 331.331054688 526.670898438 321.998046875 530.00390625 c 0
 314.665039062 532.670898438 305.33203125 535.00390625 293.999023438 537.00390625 c 0
 282.666015625 539.00390625 271.166015625 540.670898438 259.499023438 542.00390625 c 0
 247.83203125 543.336914062 237.499023438 544.50390625 228.499023438 545.50390625 c 0
 219.499023438 546.50390625 213.666015625 547.00390625 210.999023438 547.00390625 c 2
 209.999023438 547.00390625 l 1
 197.999023438 505.00390625 l 2
EndSplineSet
EndChar

StartChar: E
Encoding: 69 69 39
Width: 525
GlyphClass: 2
Flags: W
LayerCount: 2
Fore
SplineSet
61 77 m 1
 59.6669921875 109 58.6611328125 137.829101562 57.994140625 163.49609375 c 0
 57.3271484375 189.163085938 56.994140625 215.330078125 56.994140625 241.997070312 c 2
 58.994140625 263.997070312 l 1
 58.994140625 354.997070312 l 2
 58.3271484375 357.6640625 57.8271484375 360.497070312 57.494140625 363.497070312 c 0
 57.1611328125 366.497070312 56.994140625 370.6640625 56.994140625 375.997070312 c 0
 56.994140625 379.330078125 56.6611328125 382.830078125 55.994140625 386.497070312 c 0
 55.3271484375 390.1640625 54.994140625 392.331054688 54.994140625 392.998046875 c 2
 14.994140625 423.998046875 l 2
 12.994140625 425.998046875 9.8271484375 428.998046875 5.494140625 432.998046875 c 2
 -1.005859375 438.998046875 l 1
 2.994140625 448.998046875 l 1
 5.994140625 450.998046875 l 1
 18.994140625 450.998046875 l 2
 26.994140625 450.998046875 35.8271484375 450.665039062 45.494140625 449.998046875 c 0
 55.1611328125 449.331054688 60.994140625 448.331054688 62.994140625 446.998046875 c 1
 110.994140625 620.998046875 l 1
 107.494140625 621.498046875 l 2
 105.161132812 621.831054688 102.994140625 622.331054688 100.994140625 622.998046875 c 0
 93.6611328125 624.998046875 87.994140625 625.998046875 83.994140625 625.998046875 c 0
 76.6611328125 625.998046875 69.828125 624.998046875 63.4951171875 622.998046875 c 0
 57.162109375 620.998046875 49.9951171875 618.998046875 41.9951171875 616.998046875 c 1
 39.9951171875 622.998046875 l 1
 119.995117188 671.998046875 l 2
 120.662109375 671.998046875 123.162109375 674.331054688 127.495117188 678.998046875 c 0
 131.828125 683.665039062 134.995117188 687.665039062 136.995117188 690.998046875 c 0
 137.662109375 691.665039062 139.162109375 693.498046875 141.495117188 696.498046875 c 0
 143.828125 699.498046875 146.161132812 702.831054688 148.494140625 706.498046875 c 0
 150.827148438 710.165039062 152.994140625 713.498046875 154.994140625 716.498046875 c 0
 156.994140625 719.498046875 158.327148438 721.665039062 158.994140625 722.998046875 c 1
 160.994140625 716.998046875 l 1
 166.994140625 682.998046875 l 1
 167.994140625 680.998046875 l 1
 181.994140625 684.331054688 198.661132812 687.1640625 217.994140625 689.497070312 c 0
 237.327148438 691.830078125 260.994140625 692.997070312 288.994140625 692.997070312 c 0
 309.661132812 692.997070312 329.828125 691.997070312 349.495117188 689.997070312 c 0
 369.162109375 687.997070312 387.329101562 684.830078125 403.99609375 680.497070312 c 0
 420.663085938 676.1640625 434.99609375 670.331054688 446.99609375 662.998046875 c 0
 458.99609375 655.665039062 467.329101562 646.665039062 471.99609375 635.998046875 c 0
 478.663085938 622.665039062 482.663085938 610.998046875 483.99609375 600.998046875 c 0
 485.329101562 590.998046875 488.329101562 577.331054688 492.99609375 559.998046875 c 0
 493.663085938 553.998046875 494.330078125 546.498046875 494.997070312 537.498046875 c 0
 495.6640625 528.498046875 496.331054688 519.665039062 496.998046875 510.998046875 c 0
 497.665039062 502.331054688 498.165039062 494.498046875 498.498046875 487.498046875 c 0
 498.831054688 480.498046875 498.998046875 475.998046875 498.998046875 473.998046875 c 1
 498.998046875 474.998046875 l 1
 489.998046875 474.998046875 l 1
 485.998046875 476.998046875 l 2
 480.665039062 479.665039062 473.665039062 483.498046875 464.998046875 488.498046875 c 0
 456.331054688 493.498046875 447.1640625 498.998046875 437.497070312 504.998046875 c 0
 427.830078125 510.998046875 418.497070312 516.831054688 409.497070312 522.498046875 c 0
 400.497070312 528.165039062 393.6640625 532.998046875 388.997070312 536.998046875 c 2
 385.997070312 538.498046875 l 2
 383.997070312 539.498046875 378.997070312 542.665039062 370.997070312 547.998046875 c 2
 357.997070312 555.998046875 l 2
 345.997070312 562.665039062 333.6640625 569.83203125 320.997070312 577.499023438 c 0
 308.330078125 585.166015625 295.497070312 592.166015625 282.497070312 598.499023438 c 0
 269.497070312 604.83203125 256.6640625 610.165039062 243.997070312 614.498046875 c 0
 231.330078125 618.831054688 218.997070312 620.998046875 206.997070312 620.998046875 c 2
 201.997070312 620.998046875 l 2
 198.6640625 620.998046875 196.331054688 620.331054688 194.998046875 618.998046875 c 0
 192.998046875 618.998046875 191.831054688 618.665039062 191.498046875 617.998046875 c 2
 190.998046875 616.998046875 l 2
 190.331054688 616.998046875 189.998046875 614.998046875 189.998046875 610.998046875 c 0
 189.998046875 605.665039062 189.665039062 602.665039062 188.998046875 601.998046875 c 0
 184.998046875 585.998046875 181.498046875 569.998046875 178.498046875 553.998046875 c 0
 175.498046875 537.998046875 173.165039062 522.998046875 171.498046875 508.998046875 c 0
 169.831054688 494.998046875 168.498046875 482.331054688 167.498046875 470.998046875 c 0
 166.498046875 459.665039062 165.998046875 450.665039062 165.998046875 443.998046875 c 2
 165.998046875 436.998046875 l 2
 165.998046875 436.331054688 166.331054688 435.498046875 166.998046875 434.498046875 c 0
 167.665039062 433.498046875 167.998046875 432.331054688 167.998046875 430.998046875 c 0
 172.665039062 424.331054688 181.998046875 419.998046875 195.998046875 417.998046875 c 0
 209.998046875 415.998046875 226.665039062 414.998046875 245.998046875 414.998046875 c 0
 264.665039062 414.998046875 282.665039062 415.498046875 299.998046875 416.498046875 c 0
 317.331054688 417.498046875 330.998046875 418.665039062 340.998046875 419.998046875 c 2
 414.998046875 431.998046875 l 1
 417.998046875 424.998046875 l 1
 415.998046875 411.665039062 413.998046875 394.998046875 411.998046875 374.998046875 c 0
 409.998046875 354.998046875 408.998046875 334.998046875 408.998046875 314.998046875 c 0
 408.998046875 306.998046875 409.165039062 299.331054688 409.498046875 291.998046875 c 0
 409.831054688 284.665039062 410.998046875 277.998046875 412.998046875 271.998046875 c 1
 372.998046875 279.998046875 335.498046875 288.665039062 300.498046875 297.998046875 c 0
 265.498046875 307.331054688 228.665039062 318.331054688 189.998046875 330.998046875 c 1
 189.998046875 329.665039062 189.831054688 328.165039062 189.498046875 326.498046875 c 0
 189.165039062 324.831054688 188.998046875 322.331054688 188.998046875 318.998046875 c 0
 188.998046875 308.998046875 191.165039062 296.665039062 195.498046875 281.998046875 c 0
 199.831054688 267.331054688 205.331054688 251.998046875 211.998046875 235.998046875 c 0
 218.665039062 219.998046875 225.665039062 203.831054688 232.998046875 187.498046875 c 0
 240.331054688 171.165039062 246.998046875 156.33203125 252.998046875 142.999023438 c 2
 267.998046875 113.999023438 l 1
 468.998046875 191.999023438 l 2
 470.331054688 190.666015625 470.998046875 187.999023438 470.998046875 183.999023438 c 0
 470.998046875 175.999023438 469.165039062 165.499023438 465.498046875 152.499023438 c 0
 461.831054688 139.499023438 457.831054688 126.499023438 453.498046875 113.499023438 c 0
 449.165039062 100.499023438 444.665039062 88.33203125 439.998046875 76.9990234375 c 0
 435.331054688 65.666015625 431.998046875 57.9990234375 429.998046875 53.9990234375 c 0
 427.331054688 50.666015625 422.831054688 46.9990234375 416.498046875 42.9990234375 c 0
 410.165039062 38.9990234375 403.33203125 35.33203125 395.999023438 31.9990234375 c 0
 388.666015625 28.666015625 381.666015625 25.8330078125 374.999023438 23.5 c 0
 368.33203125 21.1669921875 363.33203125 19.6669921875 359.999023438 19 c 0
 359.33203125 19 358.83203125 18.8330078125 358.499023438 18.5 c 2
 357.999023438 18 l 1
 350.999023438 14 l 2
 345.666015625 12.6669921875 340.333007812 11.1669921875 335 9.5 c 0
 329.666992188 7.8330078125 325 6.3330078125 321 5 c 2
 312 1 l 1
 256 1 203 7.6669921875 153 21 c 0
 103 34.3330078125 54 51 6 71 c 1
 61 77 l 1
EndSplineSet
EndChar

StartChar: F
Encoding: 70 70 40
Width: 504
GlyphClass: 2
Flags: W
LayerCount: 2
Fore
SplineSet
55 428 m 2
 55.6669921875 428 57.3310546875 433.831054688 59.998046875 445.498046875 c 0
 62.6650390625 457.165039062 65.6650390625 470.998046875 68.998046875 486.998046875 c 0
 72.3310546875 502.998046875 75.498046875 519.498046875 78.498046875 536.498046875 c 0
 81.498046875 553.498046875 83.6650390625 567.331054688 84.998046875 577.998046875 c 2
 84.998046875 590.998046875 l 1
 21.998046875 590.998046875 l 1
 21.998046875 595.998046875 l 2
 21.998046875 599.331054688 22.6650390625 601.6640625 23.998046875 602.997070312 c 0
 27.998046875 610.997070312 34.8310546875 617.6640625 44.498046875 622.997070312 c 0
 54.1650390625 628.330078125 64.6650390625 633.330078125 75.998046875 637.997070312 c 0
 87.3310546875 642.6640625 98.498046875 647.497070312 109.498046875 652.497070312 c 0
 120.498046875 657.497070312 129.665039062 663.6640625 136.998046875 670.997070312 c 2
 186.998046875 721.997070312 l 1
 202.998046875 721.997070312 l 1
 202.998046875 679.997070312 l 1
 207.665039062 679.997070312 215.998046875 679.6640625 227.998046875 678.997070312 c 0
 239.998046875 678.330078125 252.831054688 677.497070312 266.498046875 676.497070312 c 0
 280.165039062 675.497070312 292.998046875 674.497070312 304.998046875 673.497070312 c 0
 316.998046875 672.497070312 325.331054688 671.6640625 329.998046875 670.997070312 c 0
 331.998046875 670.997070312 337.165039062 670.330078125 345.498046875 668.997070312 c 0
 353.831054688 667.6640625 362.998046875 666.1640625 372.998046875 664.497070312 c 0
 382.998046875 662.830078125 392.831054688 660.997070312 402.498046875 658.997070312 c 0
 412.165039062 656.997070312 418.998046875 655.330078125 422.998046875 653.997070312 c 2
 483.998046875 636.997070312 l 2
 485.331054688 636.997070312 487.1640625 635.997070312 489.497070312 633.997070312 c 0
 491.830078125 631.997070312 492.997070312 630.330078125 492.997070312 628.997070312 c 0
 480.997070312 610.330078125 469.497070312 590.997070312 458.497070312 570.997070312 c 0
 447.497070312 550.997070312 438.6640625 530.6640625 431.997070312 509.997070312 c 1
 428.497070312 509.497070312 l 2
 426.1640625 509.1640625 424.331054688 508.997070312 422.998046875 508.997070312 c 0
 420.998046875 508.997070312 418.831054688 509.1640625 416.498046875 509.497070312 c 0
 414.165039062 509.830078125 412.665039062 509.997070312 411.998046875 509.997070312 c 2
 340.998046875 534.997070312 l 2
 330.998046875 537.6640625 317.998046875 541.1640625 301.998046875 545.497070312 c 0
 285.998046875 549.830078125 270.165039062 553.830078125 254.498046875 557.497070312 c 0
 238.831054688 561.1640625 225.498046875 564.1640625 214.498046875 566.497070312 c 0
 203.498046875 568.830078125 197.998046875 569.663085938 197.998046875 568.99609375 c 2
 186.998046875 560.99609375 l 1
 186.998046875 505.99609375 l 2
 186.998046875 497.329101562 187.331054688 487.49609375 187.998046875 476.49609375 c 0
 188.665039062 465.49609375 189.665039062 455.163085938 190.998046875 445.49609375 c 0
 192.331054688 435.829101562 194.498046875 427.662109375 197.498046875 420.995117188 c 0
 200.498046875 414.328125 203.998046875 410.995117188 207.998046875 410.995117188 c 2
 381.998046875 418.995117188 l 1
 386.998046875 406.995117188 l 2
 390.331054688 398.995117188 394.1640625 389.328125 398.497070312 377.995117188 c 0
 402.830078125 366.662109375 407.330078125 355.162109375 411.997070312 343.495117188 c 0
 416.6640625 331.828125 420.331054688 321.995117188 422.998046875 313.995117188 c 0
 423.665039062 311.995117188 424.33203125 307.828125 424.999023438 301.495117188 c 0
 425.666015625 295.162109375 425.999023438 290.995117188 425.999023438 288.995117188 c 1
 198.999023438 295.995117188 l 1
 198.999023438 273.995117188 202.166015625 251.828125 208.499023438 229.495117188 c 0
 214.83203125 207.162109375 221.999023438 185.329101562 229.999023438 163.99609375 c 0
 237.999023438 142.663085938 245.166015625 122.330078125 251.499023438 102.997070312 c 0
 257.83203125 83.6640625 260.999023438 66.3310546875 260.999023438 50.998046875 c 2
 260.999023438 48.998046875 l 2
 260.999023438 45.6650390625 260.666015625 42.6650390625 259.999023438 39.998046875 c 0
 259.33203125 37.3310546875 255.665039062 35.3310546875 248.998046875 33.998046875 c 2
 105.998046875 -0.001953125 l 1
 95.998046875 7.998046875 l 2
 95.3310546875 8.6650390625 93.8310546875 12.33203125 91.498046875 18.9990234375 c 0
 89.1650390625 25.666015625 86.498046875 33.4990234375 83.498046875 42.4990234375 c 0
 80.498046875 51.4990234375 77.3310546875 60.666015625 73.998046875 69.9990234375 c 0
 70.6650390625 79.33203125 67.6650390625 86.9990234375 64.998046875 92.9990234375 c 0
 62.3310546875 102.999023438 59.3310546875 115.499023438 55.998046875 130.499023438 c 0
 52.6650390625 145.499023438 49.6650390625 160.83203125 46.998046875 176.499023438 c 0
 44.3310546875 192.166015625 41.8310546875 207.666015625 39.498046875 222.999023438 c 0
 37.1650390625 238.33203125 35.6650390625 251.665039062 34.998046875 262.998046875 c 2
 34.998046875 339.998046875 l 2
 34.998046875 343.331054688 35.1650390625 345.831054688 35.498046875 347.498046875 c 0
 35.8310546875 349.165039062 35.998046875 350.665039062 35.998046875 351.998046875 c 0
 35.998046875 353.331054688 35.8310546875 354.331054688 35.498046875 354.998046875 c 0
 35.1650390625 355.665039062 34.998046875 356.33203125 34.998046875 356.999023438 c 0
 34.998046875 357.666015625 33.6650390625 359.833007812 30.998046875 363.5 c 0
 28.3310546875 367.166992188 25.3310546875 371.166992188 21.998046875 375.5 c 0
 18.6650390625 379.833007812 15.33203125 384 11.9990234375 388 c 0
 8.666015625 392 6.3330078125 395 5 397 c 2
 -17 433 l 1
 55 428 l 2
EndSplineSet
EndChar

StartChar: G
Encoding: 71 71 41
Width: 539
GlyphClass: 2
Flags: W
LayerCount: 2
Fore
SplineSet
379 21 m 1
 355 19 332.998046875 18.001953125 312.998046875 18.001953125 c 0
 210.998046875 18.001953125 136.831054688 41.001953125 90.498046875 87.001953125 c 0
 44.1650390625 133.001953125 20.998046875 204.334960938 20.998046875 301.001953125 c 0
 20.998046875 355.001953125 28.498046875 405.668945312 43.498046875 453.001953125 c 0
 58.498046875 500.334960938 84.998046875 546.001953125 122.998046875 590.001953125 c 1
 106.331054688 594.668945312 89.3310546875 598.3359375 71.998046875 601.002929688 c 0
 54.6650390625 603.669921875 37.6650390625 606.002929688 20.998046875 608.002929688 c 1
 20.998046875 617.002929688 l 1
 81.998046875 644.002929688 l 2
 95.998046875 650.002929688 110.831054688 656.669921875 126.498046875 664.002929688 c 0
 142.165039062 671.3359375 158.165039062 678.3359375 174.498046875 685.002929688 c 0
 190.831054688 691.669921875 207.331054688 697.169921875 223.998046875 701.502929688 c 0
 240.665039062 705.8359375 256.998046875 708.002929688 272.998046875 708.002929688 c 0
 279.665039062 708.002929688 287.665039062 707.002929688 296.998046875 705.002929688 c 2
 327.998046875 699.002929688 l 1
 325.998046875 697.002929688 323.998046875 692.3359375 321.998046875 685.002929688 c 0
 319.998046875 677.669921875 318.665039062 673.002929688 317.998046875 671.002929688 c 2
 317.998046875 663.002929688 l 1
 342.498046875 656.002929688 l 2
 354.165039062 652.669921875 366.665039062 649.169921875 379.998046875 645.502929688 c 0
 393.331054688 641.8359375 405.831054688 638.168945312 417.498046875 634.501953125 c 0
 429.165039062 630.834960938 437.33203125 628.001953125 441.999023438 626.001953125 c 0
 453.33203125 622.001953125 464.33203125 617.334960938 474.999023438 612.001953125 c 0
 485.666015625 606.668945312 494.999023438 599.3359375 502.999023438 590.002929688 c 1
 486.999023438 572.669921875 470.666015625 553.502929688 453.999023438 532.502929688 c 0
 437.33203125 511.502929688 422.33203125 491.002929688 408.999023438 471.002929688 c 1
 399.999023438 471.002929688 l 1
 393.999023438 476.3359375 384.999023438 485.8359375 372.999023438 499.502929688 c 0
 360.999023438 513.169921875 347.666015625 527.002929688 332.999023438 541.002929688 c 0
 318.33203125 555.002929688 303.165039062 567.502929688 287.498046875 578.502929688 c 0
 271.831054688 589.502929688 257.6640625 595.002929688 244.997070312 595.002929688 c 0
 240.330078125 595.002929688 237.663085938 594.669921875 236.99609375 594.002929688 c 0
 225.663085938 592.002929688 215.330078125 581.669921875 205.997070312 563.002929688 c 0
 196.6640625 544.3359375 188.831054688 523.502929688 182.498046875 500.502929688 c 0
 176.165039062 477.502929688 171.33203125 454.8359375 167.999023438 432.502929688 c 0
 164.666015625 410.169921875 162.999023438 394.669921875 162.999023438 386.002929688 c 0
 162.999023438 356.002929688 166.999023438 326.3359375 174.999023438 297.002929688 c 0
 182.999023438 267.669921875 195.33203125 241.669921875 211.999023438 219.002929688 c 0
 228.666015625 196.3359375 249.833007812 178.002929688 275.5 164.002929688 c 0
 301.166992188 150.002929688 331.666992188 143.002929688 367 143.002929688 c 1
 367 159.002929688 364.5 175.502929688 359.5 192.502929688 c 0
 354.5 209.502929688 348 226.169921875 340 242.502929688 c 0
 332 258.8359375 323.333007812 274.668945312 314 290.001953125 c 0
 304.666992188 305.334960938 295.666992188 319.66796875 287 333.000976562 c 1
 321 336.333984375 353.166992188 341.666992188 383.5 349 c 0
 413.833007812 356.333007812 443.333007812 366 472 378 c 1
 478 375.333007812 483 370.666015625 487 363.999023438 c 0
 491 357.33203125 494.166992188 349.665039062 496.5 340.998046875 c 0
 498.833007812 332.331054688 500.5 323.331054688 501.5 313.998046875 c 0
 502.5 304.665039062 503 295.665039062 503 286.998046875 c 2
 503 261.998046875 l 1
 493 156.998046875 l 1
 526 156.998046875 l 1
 526 142.998046875 521.5 127.498046875 512.5 110.498046875 c 0
 503.5 93.498046875 492.5 76.8310546875 479.5 60.498046875 c 0
 466.5 44.1650390625 452.833007812 28.83203125 438.5 14.4990234375 c 0
 424.166992188 0.166015625 411.333984375 -11.6669921875 400.000976562 -21 c 1
 393.333984375 -17.6669921875 388.666992188 -11.1669921875 386 -1.5 c 0
 383.333007812 8.1669921875 381 15.6669921875 379 21 c 1
EndSplineSet
EndChar

StartChar: H
Encoding: 72 72 42
Width: 572
GlyphClass: 2
Flags: W
LayerCount: 2
Fore
SplineSet
36 299 m 0
 34.6669921875 299.666992188 32.3330078125 301.5 29 304.5 c 0
 25.6669921875 307.5 22.333984375 310.666992188 19.0009765625 314 c 0
 15.66796875 317.333007812 12.66796875 320.5 10.0009765625 323.5 c 0
 7.333984375 326.5 5.6669921875 328.666992188 5 330 c 2
 4.5 331.5 l 2
 4.1669921875 332.5 4 333.666992188 4 335 c 0
 4 335.666992188 4.1669921875 336.5 4.5 337.5 c 2
 5 339 l 2
 5.6669921875 339.666992188 8 341.833984375 12 345.500976562 c 0
 16 349.16796875 20.5 353.334960938 25.5 358.001953125 c 0
 30.5 362.668945312 35.1669921875 367.001953125 39.5 371.001953125 c 0
 43.8330078125 375.001953125 46.3330078125 377.668945312 47 379.001953125 c 0
 55 395.001953125 61.1669921875 414.834960938 65.5 438.501953125 c 0
 69.8330078125 462.168945312 74 487.001953125 78 513.001953125 c 0
 82 539.001953125 86.1669921875 564.834960938 90.5 590.501953125 c 0
 94.8330078125 616.168945312 101 639.001953125 109 659.001953125 c 0
 110.333007812 663.668945312 112.666015625 669.3359375 115.999023438 676.002929688 c 0
 119.33203125 682.669921875 122.665039062 689.169921875 125.998046875 695.502929688 c 0
 129.331054688 701.8359375 132.331054688 707.3359375 134.998046875 712.002929688 c 2
 138.998046875 719.002929688 l 1
 148.998046875 719.002929688 l 1
 191.998046875 399.002929688 l 1
 370.998046875 399.002929688 l 1
 372.998046875 411.669921875 374.331054688 424.336914062 374.998046875 437.00390625 c 0
 375.665039062 449.670898438 375.998046875 462.670898438 375.998046875 476.00390625 c 0
 375.998046875 497.336914062 372.998046875 518.836914062 366.998046875 540.50390625 c 0
 360.998046875 562.170898438 354.665039062 585.00390625 347.998046875 609.00390625 c 0
 346.665039062 613.00390625 344.83203125 619.670898438 342.499023438 629.00390625 c 0
 340.166015625 638.336914062 338.999023438 645.00390625 338.999023438 649.00390625 c 2
 336.999023438 660.00390625 l 2
 336.999023438 668.00390625 344.666015625 674.50390625 359.999023438 679.50390625 c 0
 375.33203125 684.50390625 392.83203125 688.50390625 412.499023438 691.50390625 c 0
 432.166015625 694.50390625 451.499023438 696.50390625 470.499023438 697.50390625 c 0
 489.499023438 698.50390625 502.666015625 699.00390625 509.999023438 699.00390625 c 2
 519.999023438 699.00390625 l 1
 521.999023438 684.336914062 523.666015625 671.836914062 524.999023438 661.50390625 c 0
 526.33203125 651.170898438 527.499023438 641.50390625 528.499023438 632.50390625 c 0
 529.499023438 623.50390625 530.166015625 614.50390625 530.499023438 605.50390625 c 0
 530.83203125 596.50390625 530.999023438 586.336914062 530.999023438 575.00390625 c 2
 530.999023438 549.00390625 l 2
 530.999023438 543.00390625 530.499023438 532.00390625 529.499023438 516.00390625 c 0
 528.499023438 500.00390625 527.499023438 483.336914062 526.499023438 466.00390625 c 0
 525.499023438 448.670898438 524.33203125 432.170898438 522.999023438 416.50390625 c 0
 521.666015625 400.836914062 520.666015625 390.00390625 519.999023438 384.00390625 c 1
 561.999023438 384.00390625 l 1
 561.999023438 378.00390625 l 2
 561.999023438 373.336914062 561.666015625 370.669921875 560.999023438 370.002929688 c 2
 540.999023438 299.002929688 l 1
 550.999023438 194.002929688 l 1
 530.33203125 194.002929688 513.33203125 189.502929688 499.999023438 180.502929688 c 0
 486.666015625 171.502929688 475.166015625 160.002929688 465.499023438 146.002929688 c 0
 455.83203125 132.002929688 447.33203125 117.169921875 439.999023438 101.502929688 c 0
 432.666015625 85.8359375 424.999023438 71.0029296875 416.999023438 57.0029296875 c 0
 408.999023438 43.0029296875 399.83203125 31.5029296875 389.499023438 22.5029296875 c 0
 379.166015625 13.5029296875 366.333007812 9.0029296875 351 9.0029296875 c 2
 345 10.0029296875 l 1
 348 22.0029296875 l 2
 352 38.0029296875 355.5 52.169921875 358.5 64.5029296875 c 0
 361.5 76.8359375 364 88.6689453125 366 100.001953125 c 0
 368 111.334960938 369.5 122.834960938 370.5 134.501953125 c 0
 371.5 146.168945312 372 159.668945312 372 175.001953125 c 2
 372 220.001953125 l 1
 366 229.334960938 356.166992188 237.16796875 342.5 243.500976562 c 0
 328.833007812 249.833984375 314 254.833984375 298 258.500976562 c 0
 282 262.16796875 266.166992188 264.834960938 250.5 266.501953125 c 0
 234.833007812 268.168945312 221.666015625 269.001953125 210.999023438 269.001953125 c 2
 200.999023438 269.001953125 l 1
 201.666015625 263.001953125 203.499023438 252.501953125 206.499023438 237.501953125 c 0
 209.499023438 222.501953125 212.666015625 206.501953125 215.999023438 189.501953125 c 0
 219.33203125 172.501953125 222.499023438 156.501953125 225.499023438 141.501953125 c 0
 228.499023438 126.501953125 230.666015625 116.001953125 231.999023438 110.001953125 c 0
 233.33203125 100.668945312 234.665039062 93.6689453125 235.998046875 89.001953125 c 0
 237.331054688 84.3349609375 238.6640625 80.8349609375 239.997070312 78.501953125 c 0
 241.330078125 76.1689453125 242.330078125 74.1689453125 242.997070312 72.501953125 c 0
 243.6640625 70.8349609375 243.997070312 68.3349609375 243.997070312 65.001953125 c 0
 243.997070312 63.6689453125 243.830078125 61.6689453125 243.497070312 59.001953125 c 0
 243.1640625 56.3349609375 242.997070312 53.3349609375 242.997070312 50.001953125 c 2
 240.997070312 30.001953125 l 1
 239.997070312 29.501953125 l 2
 239.330078125 29.1689453125 238.330078125 29.001953125 236.997070312 29.001953125 c 0
 229.6640625 27.001953125 219.331054688 24.501953125 205.998046875 21.501953125 c 0
 192.665039062 18.501953125 178.83203125 15.501953125 164.499023438 12.501953125 c 0
 150.166015625 9.501953125 136.833007812 6.8349609375 124.5 4.501953125 c 0
 112.166992188 2.1689453125 103.666992188 0.6689453125 99 0.001953125 c 0
 97.6669921875 0.001953125 95.6669921875 -0.1650390625 93 -0.498046875 c 0
 90.3330078125 -0.8310546875 88.3330078125 -0.998046875 87 -0.998046875 c 0
 79.6669921875 -0.998046875 75.6669921875 -0.498046875 75 0.501953125 c 0
 74.3330078125 1.501953125 73 4.3349609375 71 9.001953125 c 2
 69 16.001953125 l 2
 69 16.6689453125 68.6669921875 17.1689453125 68 17.501953125 c 0
 67.3330078125 17.8349609375 67 18.66796875 67 20.0009765625 c 0
 61 44.66796875 56 68.16796875 52 90.5009765625 c 0
 48 112.833984375 44.8330078125 135.166992188 42.5 157.5 c 0
 40.1669921875 179.833007812 38.5 202.5 37.5 225.5 c 0
 36.5 248.5 36 273 36 299 c 0
EndSplineSet
EndChar

StartChar: I
Encoding: 73 73 43
Width: 230
GlyphClass: 2
Flags: W
LayerCount: 2
Fore
SplineSet
21 211 m 2
 21 247 22.4990234375 288.501953125 25.4990234375 335.501953125 c 0
 28.4990234375 382.501953125 35.33203125 429.168945312 45.9990234375 475.501953125 c 0
 56.666015625 521.834960938 71.8330078125 565.16796875 91.5 605.500976562 c 0
 111.166992188 645.833984375 138 678.000976562 172 702.000976562 c 1
 172 661.000976562 l 1
 173 651.000976562 l 1
 169.666992188 615.000976562 166.833984375 579.16796875 164.500976562 543.500976562 c 0
 162.16796875 507.833984375 161.000976562 471.000976562 161.000976562 433.000976562 c 2
 161.000976562 391.000976562 l 1
 162.000976562 384.000976562 l 2
 162.66796875 364.000976562 165.16796875 339.16796875 169.500976562 309.500976562 c 0
 173.833984375 279.833984375 178.666992188 249.166992188 184 217.5 c 0
 189.333007812 185.833007812 194.833007812 155.5 200.5 126.5 c 0
 206.166992188 97.5 210.666992188 74 214 56 c 1
 213 37 l 1
 66 0 l 1
 60 0 l 2
 56 -0 52.6669921875 2.8330078125 50 8.5 c 0
 47.3330078125 14.1669921875 45 20.5 43 27.5 c 0
 41 34.5 39.3330078125 41 38 47 c 2
 36 56 l 2
 32 76 28.5 92 25.5 104 c 0
 22.5 116 21 127.666992188 21 139 c 2
 21 211 l 2
EndSplineSet
EndChar

StartChar: J
Encoding: 74 74 44
Width: 542
GlyphClass: 2
Flags: W
LayerCount: 2
Fore
SplineSet
10 80 m 0
 10 94 12.166015625 110.1640625 16.4990234375 128.497070312 c 0
 20.83203125 146.830078125 26.6650390625 165.163085938 33.998046875 183.49609375 c 0
 41.3310546875 201.829101562 49.498046875 218.829101562 58.498046875 234.49609375 c 0
 67.498046875 250.163085938 76.998046875 262.330078125 86.998046875 270.997070312 c 1
 89.998046875 270.997070312 l 1
 101.331054688 263.6640625 111.831054688 252.497070312 121.498046875 237.497070312 c 0
 131.165039062 222.497070312 140.665039062 209.997070312 149.998046875 199.997070312 c 0
 166.665039062 182.6640625 187.665039062 165.997070312 212.998046875 149.997070312 c 0
 238.331054688 133.997070312 263.6640625 119.997070312 288.997070312 107.997070312 c 0
 289.6640625 107.330078125 292.997070312 106.997070312 298.997070312 106.997070312 c 2
 328.997070312 106.997070312 l 2
 336.330078125 106.997070312 341.997070312 115.6640625 345.997070312 132.997070312 c 0
 349.997070312 150.330078125 352.997070312 170.330078125 354.997070312 192.997070312 c 0
 356.997070312 215.6640625 358.1640625 237.497070312 358.497070312 258.497070312 c 0
 358.830078125 279.497070312 358.997070312 293.997070312 358.997070312 301.997070312 c 0
 358.997070312 334.6640625 356.997070312 366.331054688 352.997070312 396.998046875 c 0
 348.997070312 427.665039062 343.497070312 457.83203125 336.497070312 487.499023438 c 0
 329.497070312 517.166015625 321.330078125 546.666015625 311.997070312 575.999023438 c 0
 302.6640625 605.33203125 292.6640625 635.33203125 281.997070312 665.999023438 c 2
 272.997070312 696.999023438 l 1
 272.997070312 704.999023438 l 1
 342.330078125 680.33203125 410.663085938 659.665039062 477.99609375 642.998046875 c 0
 482.663085938 641.665039062 486.830078125 637.83203125 490.497070312 631.499023438 c 0
 494.1640625 625.166015625 497.331054688 617.999023438 499.998046875 609.999023438 c 0
 502.665039062 601.999023438 504.665039062 594.33203125 505.998046875 586.999023438 c 0
 507.331054688 579.666015625 507.998046875 574.666015625 507.998046875 571.999023438 c 2
 507.998046875 274.999023438 l 2
 507.998046875 273.666015625 506.331054688 266.833007812 502.998046875 254.5 c 0
 499.665039062 242.166992188 495.83203125 227.5 491.499023438 210.5 c 0
 487.166015625 193.5 482.333007812 176.166992188 477 158.5 c 0
 471.666992188 140.833007812 467 126.666015625 463 115.999023438 c 2
 454 88.9990234375 l 1
 454 79.9990234375 l 1
 520 61.9990234375 l 1
 523.5 61.4990234375 l 2
 525.833007812 61.166015625 527.666015625 60.9990234375 528.999023438 60.9990234375 c 1
 528.999023438 53.9990234375 l 2
 528.999023438 47.33203125 524.33203125 41.33203125 514.999023438 35.9990234375 c 0
 505.666015625 30.666015625 493.833007812 25.9990234375 479.5 21.9990234375 c 0
 465.166992188 17.9990234375 449.166992188 14.4990234375 431.5 11.4990234375 c 0
 413.833007812 8.4990234375 397 6.166015625 381 4.4990234375 c 0
 365 2.83203125 350.5 1.4990234375 337.5 0.4990234375 c 0
 324.5 -0.5009765625 315.333007812 -1.0009765625 310 -1.0009765625 c 2
 275 -0.0009765625 l 2
 268.333007812 -0.0009765625 257.666015625 0.4990234375 242.999023438 1.4990234375 c 0
 228.33203125 2.4990234375 204.33203125 3.666015625 170.999023438 4.9990234375 c 0
 165.666015625 5.666015625 161.833007812 6.3330078125 159.5 7 c 0
 157.166992188 7.6669921875 151 9 141 11 c 0
 136.333007812 12.3330078125 132.333007812 13.3330078125 129 14 c 0
 125.666992188 14.6669921875 122.666992188 16 120 18 c 0
 116 18 110.666992188 19 104 21 c 0
 97.3330078125 23 92.666015625 24.6669921875 89.9990234375 26 c 2
 84.9990234375 29 l 1
 63.666015625 34.3330078125 46.8330078125 40 34.5 46 c 0
 22.1669921875 52 16 58.3330078125 16 65 c 2
 16 68 l 1
 12 72.6669921875 10 76.6669921875 10 80 c 0
EndSplineSet
EndChar

StartChar: K
Encoding: 75 75 45
Width: 574
GlyphClass: 2
Flags: W
LayerCount: 2
Fore
SplineSet
57 296 m 2
 57 297.333007812 55.833984375 299.165039062 53.5009765625 301.498046875 c 0
 51.16796875 303.831054688 49.0009765625 304.998046875 47.0009765625 304.998046875 c 2
 -2.9990234375 304.998046875 l 1
 -36.9990234375 310.998046875 l 1
 -16.9990234375 319.665039062 1.833984375 329.83203125 19.5009765625 341.499023438 c 0
 37.16796875 353.166015625 52.66796875 366.666015625 66.0009765625 381.999023438 c 1
 66.0009765625 385.999023438 l 2
 66.0009765625 390.666015625 65.833984375 395.666015625 65.5009765625 400.999023438 c 0
 65.16796875 406.33203125 65.0009765625 413.33203125 65.0009765625 421.999023438 c 2
 65.0009765625 426.999023438 l 2
 65.66796875 432.33203125 66.3349609375 437.999023438 67.001953125 443.999023438 c 0
 67.6689453125 449.999023438 69.001953125 456.666015625 71.001953125 463.999023438 c 0
 73.6689453125 474.666015625 76.6689453125 485.666015625 80.001953125 496.999023438 c 0
 83.3349609375 508.33203125 86.501953125 518.999023438 89.501953125 528.999023438 c 0
 92.501953125 538.999023438 95.1689453125 547.666015625 97.501953125 554.999023438 c 0
 99.8349609375 562.33203125 101.66796875 567.665039062 103.000976562 570.998046875 c 0
 105.66796875 580.331054688 111.334960938 592.998046875 120.001953125 608.998046875 c 0
 128.668945312 624.998046875 137.668945312 640.831054688 147.001953125 656.498046875 c 0
 156.334960938 672.165039062 165.001953125 685.998046875 173.001953125 697.998046875 c 0
 181.001953125 709.998046875 185.668945312 716.665039062 187.001953125 717.998046875 c 2
 217.001953125 729.998046875 l 1
 216.334960938 723.331054688 213.66796875 711.831054688 209.000976562 695.498046875 c 0
 204.333984375 679.165039062 199.500976562 661.83203125 194.500976562 643.499023438 c 0
 189.500976562 625.166015625 184.66796875 607.666015625 180.000976562 590.999023438 c 0
 175.333984375 574.33203125 172.666992188 561.999023438 172 553.999023438 c 2
 171 535.999023438 l 2
 171 529.33203125 171.833007812 521.665039062 173.5 512.998046875 c 0
 175.166992188 504.331054688 177.166992188 496.331054688 179.5 488.998046875 c 0
 181.833007812 481.665039062 184 475.33203125 186 469.999023438 c 2
 189 461.999023438 l 1
 198 449.999023438 l 1
 221.333007812 457.33203125 241.666015625 470.999023438 258.999023438 490.999023438 c 0
 276.33203125 510.999023438 291.33203125 533.166015625 303.999023438 557.499023438 c 0
 316.666015625 581.83203125 326.833007812 606.33203125 334.5 630.999023438 c 0
 342.166992188 655.666015625 348 676.333007812 352 693 c 0
 353.333007812 694.333007812 355.666015625 695.833007812 358.999023438 697.5 c 0
 362.33203125 699.166992188 364.665039062 700 365.998046875 700 c 2
 371.998046875 700 l 2
 384.665039062 698 397.665039062 692.333007812 410.998046875 683 c 0
 424.331054688 673.666992188 436.998046875 662.833984375 448.998046875 650.500976562 c 0
 460.998046875 638.16796875 471.831054688 625.66796875 481.498046875 613.000976562 c 0
 491.165039062 600.333984375 498.998046875 589.666992188 504.998046875 581 c 1
 502.998046875 567 l 2
 498.998046875 556.333007812 491.331054688 544.166015625 479.998046875 530.499023438 c 0
 468.665039062 516.83203125 455.998046875 503.499023438 441.998046875 490.499023438 c 0
 427.998046875 477.499023438 413.331054688 465.499023438 397.998046875 454.499023438 c 0
 382.665039062 443.499023438 368.998046875 435.33203125 356.998046875 429.999023438 c 0
 352.331054688 426.666015625 343.498046875 421.333007812 330.498046875 414 c 0
 317.498046875 406.666992188 303.498046875 399 288.498046875 391 c 0
 273.498046875 383 259.165039062 375.666992188 245.498046875 369 c 0
 231.831054688 362.333007812 221.998046875 358 215.998046875 356 c 1
 213.998046875 346 l 2
 213.998046875 345.333007812 216.998046875 343.166015625 222.998046875 339.499023438 c 0
 228.998046875 335.83203125 236.165039062 331.33203125 244.498046875 325.999023438 c 0
 252.831054688 320.666015625 261.6640625 315.166015625 270.997070312 309.499023438 c 0
 280.330078125 303.83203125 287.997070312 298.999023438 293.997070312 294.999023438 c 2
 296.997070312 292.999023438 l 1
 340.330078125 268.999023438 382.330078125 246.999023438 422.997070312 226.999023438 c 0
 463.6640625 206.999023438 507.997070312 188.666015625 555.997070312 171.999023438 c 0
 559.997070312 168.666015625 562.497070312 165.999023438 563.497070312 163.999023438 c 0
 564.497070312 161.999023438 564.997070312 159.33203125 564.997070312 155.999023438 c 2
 563.997070312 149.999023438 l 2
 561.997070312 139.999023438 556.830078125 128.666015625 548.497070312 115.999023438 c 0
 540.1640625 103.33203125 530.331054688 90.83203125 518.998046875 78.4990234375 c 0
 507.665039062 66.166015625 495.33203125 54.9990234375 481.999023438 44.9990234375 c 0
 468.666015625 34.9990234375 455.999023438 27.666015625 443.999023438 22.9990234375 c 1
 407.999023438 40.33203125 375.33203125 64.33203125 345.999023438 94.9990234375 c 0
 316.666015625 125.666015625 289.333007812 155.666015625 264 184.999023438 c 2
 245 207.999023438 l 2
 240.333007812 216.666015625 236 220.999023438 232 220.999023438 c 0
 228 220.999023438 226 217.33203125 226 209.999023438 c 2
 226 205.999023438 l 2
 226 195.999023438 228.166992188 183.666015625 232.5 168.999023438 c 0
 236.833007812 154.33203125 242 139.499023438 248 124.499023438 c 0
 254 109.499023438 260.166992188 95.33203125 266.5 81.9990234375 c 0
 272.833007812 68.666015625 278 58.3330078125 282 51 c 1
 270 44 l 1
 90 5 l 1
 77 8 l 1
 77 7.3330078125 74.6669921875 15.3330078125 70 32 c 0
 65.3330078125 48.6669921875 61 77 57 117 c 1
 57 296 l 2
EndSplineSet
EndChar

StartChar: L
Encoding: 76 76 46
Width: 519
GlyphClass: 2
Flags: W
LayerCount: 2
Fore
SplineSet
181 19 m 1
 179.998046875 19.50390625 l 2
 179.331054688 19.8369140625 178.998046875 20.669921875 178.998046875 22.0029296875 c 0
 178.331054688 22.669921875 176.998046875 25.169921875 174.998046875 29.5029296875 c 0
 172.998046875 33.8359375 170.998046875 36.6689453125 168.998046875 38.001953125 c 2
 164.998046875 38.001953125 l 2
 132.998046875 38.001953125 102.831054688 36.8349609375 74.498046875 34.501953125 c 0
 46.1650390625 32.1689453125 17.6650390625 26.001953125 -11.001953125 16.001953125 c 1
 -11.001953125 19.001953125 l 1
 2.998046875 36.3349609375 19.1650390625 51.66796875 37.498046875 65.0009765625 c 0
 55.8310546875 78.333984375 74.998046875 90.333984375 94.998046875 101.000976562 c 0
 96.998046875 103.000976562 99.998046875 104.66796875 103.998046875 106.000976562 c 0
 107.998046875 107.333984375 111.831054688 108.666992188 115.498046875 110 c 0
 119.165039062 111.333007812 122.498046875 112.833007812 125.498046875 114.5 c 0
 128.498046875 116.166992188 129.998046875 118.333984375 129.998046875 121.000976562 c 2
 128.998046875 125.000976562 l 1
 64.998046875 249.66796875 32.998046875 376.66796875 32.998046875 506.000976562 c 2
 32.998046875 559.000976562 l 1
 38.998046875 621.000976562 l 2
 39.6650390625 621.66796875 40.6650390625 624.500976562 41.998046875 629.500976562 c 0
 43.3310546875 634.500976562 44.998046875 640.16796875 46.998046875 646.500976562 c 0
 48.998046875 652.833984375 50.8310546875 659.166992188 52.498046875 665.5 c 0
 54.1650390625 671.833007812 55.6650390625 676.666015625 56.998046875 679.999023438 c 0
 56.998046875 683.33203125 57.8310546875 687.499023438 59.498046875 692.499023438 c 0
 61.1650390625 697.499023438 64.33203125 699.999023438 68.9990234375 699.999023438 c 0
 75.666015625 699.999023438 85.4990234375 698.166015625 98.4990234375 694.499023438 c 0
 111.499023438 690.83203125 124.999023438 686.499023438 138.999023438 681.499023438 c 0
 152.999023438 676.499023438 166.499023438 671.666015625 179.499023438 666.999023438 c 0
 192.499023438 662.33203125 202.666015625 658.999023438 209.999023438 656.999023438 c 2
 229.499023438 650.499023438 l 2
 238.499023438 647.499023438 247.999023438 644.499023438 257.999023438 641.499023438 c 0
 267.999023438 638.499023438 277.499023438 635.499023438 286.499023438 632.499023438 c 2
 305.999023438 625.999023438 l 1
 308.999023438 623.999023438 l 1
 270.33203125 559.33203125 242.33203125 494.83203125 224.999023438 430.499023438 c 0
 207.666015625 366.166015625 198.999023438 297.666015625 198.999023438 224.999023438 c 2
 198.999023438 184.999023438 l 2
 198.999023438 183.666015625 199.33203125 181.166015625 199.999023438 177.499023438 c 0
 200.666015625 173.83203125 201.499023438 169.499023438 202.499023438 164.499023438 c 0
 203.499023438 159.499023438 204.499023438 154.666015625 205.499023438 149.999023438 c 0
 206.499023438 145.33203125 206.999023438 141.999023438 206.999023438 139.999023438 c 0
 208.33203125 136.666015625 209.165039062 133.833007812 209.498046875 131.5 c 0
 209.831054688 129.166992188 211.998046875 128 215.998046875 128 c 0
 218.665039062 128.666992188 224.33203125 130 232.999023438 132 c 0
 241.666015625 134 250.833007812 136.166992188 260.5 138.5 c 0
 270.166992188 140.833007812 279.333984375 143 288.000976562 145 c 0
 296.66796875 147 302.66796875 148.333007812 306.000976562 149 c 0
 324.66796875 154.333007812 343.500976562 157.666015625 362.500976562 158.999023438 c 0
 381.500976562 160.33203125 399.66796875 160.999023438 417.000976562 160.999023438 c 2
 505.000976562 154.999023438 l 1
 505.000976562 152.999023438 l 1
 492.333984375 135.666015625 481.000976562 117.833007812 471.000976562 99.5 c 0
 461.000976562 81.1669921875 452.000976562 62.6669921875 444.000976562 44 c 0
 442.66796875 40.6669921875 441.16796875 36 439.500976562 30 c 0
 437.833984375 24 436.000976562 18 434.000976562 12 c 0
 432.000976562 6 430.16796875 0.8330078125 428.500976562 -3.5 c 0
 426.833984375 -7.8330078125 425.666992188 -10 425 -10 c 2
 424 -10 l 1
 389.333007812 1.3330078125 356.5 10 325.5 16 c 0
 294.5 22 261 27.3330078125 225 32 c 1
 220 32 l 2
 217.333007812 32 216 31.3330078125 216 30 c 2
 216 -30 l 1
 181 19 l 1
EndSplineSet
EndChar

StartChar: M
Encoding: 77 77 47
Width: 657
GlyphClass: 2
Flags: W
LayerCount: 2
Fore
SplineSet
617 139 m 1
 611.99609375 93.001953125 l 2
 611.99609375 87.6689453125 611.49609375 80.3359375 610.49609375 71.0029296875 c 0
 609.49609375 61.669921875 608.49609375 52.5029296875 607.49609375 43.5029296875 c 0
 606.49609375 34.5029296875 605.329101562 26.669921875 603.99609375 20.0029296875 c 0
 602.663085938 13.3359375 601.663085938 9.6689453125 600.99609375 9.001953125 c 2
 591.99609375 0.001953125 l 1
 570.663085938 7.3349609375 549.330078125 13.66796875 527.997070312 19.0009765625 c 0
 506.6640625 24.333984375 484.6640625 29.6669921875 461.997070312 35 c 2
 450.997070312 37 l 1
 449.997070312 56 l 2
 449.997070312 75.3330078125 451.6640625 95.5 454.997070312 116.5 c 0
 458.330078125 137.5 462.163085938 158.833007812 466.49609375 180.5 c 0
 470.829101562 202.166992188 474.662109375 223.5 477.995117188 244.5 c 0
 481.328125 265.5 482.995117188 285.666992188 482.995117188 305 c 2
 479.995117188 358 l 1
 470.662109375 353.333007812 462.162109375 345.166015625 454.495117188 333.499023438 c 0
 446.828125 321.83203125 439.495117188 308.83203125 432.495117188 294.499023438 c 0
 425.495117188 280.166015625 418.828125 265.166015625 412.495117188 249.499023438 c 0
 406.162109375 233.83203125 399.662109375 219.665039062 392.995117188 206.998046875 c 2
 387.995117188 187.998046875 l 2
 378.662109375 157.998046875 370.329101562 127.831054688 362.99609375 97.498046875 c 0
 355.663085938 67.1650390625 349.99609375 34.6650390625 345.99609375 -0.001953125 c 1
 337.99609375 2.6650390625 329.99609375 12.1650390625 321.99609375 28.498046875 c 0
 313.99609375 44.8310546875 305.49609375 64.998046875 296.49609375 88.998046875 c 0
 287.49609375 112.998046875 278.329101562 138.831054688 268.99609375 166.498046875 c 0
 259.663085938 194.165039062 249.830078125 220.665039062 239.497070312 245.998046875 c 0
 229.1640625 271.331054688 218.497070312 293.6640625 207.497070312 312.997070312 c 0
 196.497070312 332.330078125 184.997070312 345.330078125 172.997070312 351.997070312 c 1
 170.997070312 288.997070312 l 2
 170.997070312 269.6640625 172.6640625 250.331054688 175.997070312 230.998046875 c 0
 179.330078125 211.665039062 182.997070312 192.165039062 186.997070312 172.498046875 c 0
 190.997070312 152.831054688 194.6640625 133.331054688 197.997070312 113.998046875 c 0
 201.330078125 94.6650390625 202.997070312 75.33203125 202.997070312 55.9990234375 c 2
 201.997070312 36.9990234375 l 1
 190.997070312 34.9990234375 l 2
 168.997070312 29.666015625 147.330078125 24.3330078125 125.997070312 19 c 0
 104.6640625 13.6669921875 82.9970703125 7.333984375 60.9970703125 0.0009765625 c 1
 50.9970703125 9.0009765625 l 2
 50.9970703125 9.66796875 50.4970703125 13.3349609375 49.4970703125 20.001953125 c 0
 48.4970703125 26.6689453125 47.330078125 34.501953125 45.9970703125 43.501953125 c 0
 44.6640625 52.501953125 43.4970703125 61.6689453125 42.4970703125 71.001953125 c 0
 41.4970703125 80.3349609375 40.9970703125 87.66796875 40.9970703125 93.0009765625 c 2
 36.9970703125 156.000976562 l 2
 36.9970703125 185.333984375 38.330078125 214.333984375 40.9970703125 243.000976562 c 0
 43.6640625 271.66796875 46.6640625 300.16796875 49.9970703125 328.500976562 c 0
 53.330078125 356.833984375 56.330078125 385.333984375 58.9970703125 414.000976562 c 0
 61.6640625 442.66796875 62.9970703125 471.66796875 62.9970703125 501.000976562 c 0
 62.9970703125 511.66796875 60.1640625 521.334960938 54.4970703125 530.001953125 c 0
 48.830078125 538.668945312 42.830078125 547.168945312 36.4970703125 555.501953125 c 0
 30.1640625 563.834960938 24.1640625 572.001953125 18.4970703125 580.001953125 c 0
 12.830078125 588.001953125 9.9970703125 596.668945312 9.9970703125 606.001953125 c 0
 9.9970703125 607.334960938 15.830078125 611.834960938 27.4970703125 619.501953125 c 0
 39.1640625 627.168945312 52.4970703125 635.668945312 67.4970703125 645.001953125 c 0
 82.4970703125 654.334960938 97.330078125 663.334960938 111.997070312 672.001953125 c 0
 126.6640625 680.668945312 136.997070312 687.001953125 142.997070312 691.001953125 c 0
 145.6640625 692.334960938 149.497070312 694.16796875 154.497070312 696.500976562 c 0
 159.497070312 698.833984375 162.330078125 700.000976562 162.997070312 700.000976562 c 0
 168.997070312 698.66796875 176.6640625 690.334960938 185.997070312 675.001953125 c 0
 195.330078125 659.668945312 205.497070312 640.501953125 216.497070312 617.501953125 c 0
 227.497070312 594.501953125 238.6640625 569.168945312 249.997070312 541.501953125 c 0
 261.330078125 513.834960938 271.997070312 487.16796875 281.997070312 461.500976562 c 0
 291.997070312 435.833984375 300.830078125 412.500976562 308.497070312 391.500976562 c 0
 316.1640625 370.500976562 321.6640625 355.000976562 324.997070312 345.000976562 c 1
 327.997070312 345.000976562 l 1
 331.330078125 355.000976562 336.830078125 370.66796875 344.497070312 392.000976562 c 0
 352.1640625 413.333984375 360.997070312 437.000976562 370.997070312 463.000976562 c 0
 380.997070312 489.000976562 391.6640625 515.66796875 402.997070312 543.000976562 c 0
 414.330078125 570.333984375 425.330078125 595.333984375 435.997070312 618.000976562 c 0
 446.6640625 640.66796875 456.831054688 659.66796875 466.498046875 675.000976562 c 0
 476.165039062 690.333984375 483.998046875 698.666992188 489.998046875 700 c 0
 490.665039062 700 493.498046875 698.833007812 498.498046875 696.5 c 0
 503.498046875 694.166992188 507.331054688 692.333984375 509.998046875 691.000976562 c 0
 515.331054688 687.000976562 525.331054688 680.500976562 539.998046875 671.500976562 c 0
 554.665039062 662.500976562 569.498046875 653.500976562 584.498046875 644.500976562 c 0
 599.498046875 635.500976562 612.831054688 627.333984375 624.498046875 620.000976562 c 0
 636.165039062 612.66796875 641.998046875 608.000976562 641.998046875 606.000976562 c 0
 641.998046875 596.66796875 639.331054688 588.000976562 633.998046875 580.000976562 c 0
 628.665039062 572.000976562 622.83203125 563.833984375 616.499023438 555.500976562 c 0
 610.166015625 547.16796875 604.333007812 538.66796875 599 530.000976562 c 0
 593.666992188 521.333984375 591 511.666992188 591 501 c 0
 591 471.666992188 592.333007812 442.666992188 595 414 c 0
 597.666992188 385.333007812 600.666992188 356.833007812 604 328.5 c 0
 607.333007812 300.166992188 610.333007812 271.666992188 613 243 c 0
 615.666992188 214.333007812 617 185.333007812 617 156 c 2
 617 139 l 1
EndSplineSet
EndChar

StartChar: N
Encoding: 78 78 48
Width: 522
GlyphClass: 2
Flags: W
LayerCount: 2
Fore
SplineSet
63 503 m 2
 63 513.666992188 60.1630859375 523.3359375 54.49609375 532.002929688 c 0
 48.8291015625 540.669921875 42.8291015625 549.169921875 36.49609375 557.502929688 c 0
 30.1630859375 565.8359375 24.1630859375 574.002929688 18.49609375 582.002929688 c 0
 12.8291015625 590.002929688 9.99609375 598.669921875 9.99609375 608.002929688 c 0
 9.99609375 609.3359375 15.8291015625 613.8359375 27.49609375 621.502929688 c 0
 39.1630859375 629.169921875 52.49609375 637.669921875 67.49609375 647.002929688 c 0
 82.49609375 656.3359375 97.3291015625 665.3359375 111.99609375 674.002929688 c 0
 126.663085938 682.669921875 136.99609375 689.002929688 142.99609375 693.002929688 c 0
 145.663085938 694.3359375 149.49609375 696.168945312 154.49609375 698.501953125 c 0
 159.49609375 700.834960938 162.329101562 702.001953125 162.99609375 702.001953125 c 0
 169.663085938 701.334960938 178.330078125 692.66796875 188.997070312 676.000976562 c 0
 199.6640625 659.333984375 211.1640625 638.500976562 223.497070312 613.500976562 c 0
 235.830078125 588.500976562 248.497070312 560.833984375 261.497070312 530.500976562 c 0
 274.497070312 500.16796875 286.6640625 471.000976562 297.997070312 443.000976562 c 0
 309.330078125 415.000976562 319.330078125 389.66796875 327.997070312 367.000976562 c 0
 336.6640625 344.333984375 342.6640625 328.333984375 345.997070312 319.000976562 c 1
 346.6640625 321.66796875 347.6640625 327.500976562 348.997070312 336.500976562 c 0
 350.330078125 345.500976562 351.830078125 355.500976562 353.497070312 366.500976562 c 0
 355.1640625 377.500976562 356.497070312 388.16796875 357.497070312 398.500976562 c 0
 358.497070312 408.833984375 358.997070312 416.666992188 358.997070312 422 c 0
 359.6640625 422.666992188 359.997070312 426.333984375 359.997070312 433.000976562 c 2
 359.997070312 444.000976562 l 1
 359.997070312 467.000976562 l 2
 359.997070312 499.66796875 356.997070312 533.000976562 350.997070312 567.000976562 c 0
 344.997070312 601.000976562 338.330078125 633.333984375 330.997070312 664.000976562 c 1
 341.6640625 665.333984375 353.497070312 667.500976562 366.497070312 670.500976562 c 0
 379.497070312 673.500976562 392.830078125 676.500976562 406.497070312 679.500976562 c 0
 420.1640625 682.500976562 433.831054688 685.16796875 447.498046875 687.500976562 c 0
 461.165039062 689.833984375 473.665039062 691.000976562 484.998046875 691.000976562 c 2
 488.998046875 691.000976562 l 2
 490.331054688 689.66796875 492.331054688 686.66796875 494.998046875 682.000976562 c 0
 497.665039062 677.333984375 498.998046875 674.333984375 498.998046875 673.000976562 c 2
 498.998046875 576.000976562 l 2
 498.998046875 525.333984375 497.165039062 475.166992188 493.498046875 425.5 c 0
 489.831054688 375.833007812 482.998046875 326.833007812 472.998046875 278.5 c 0
 462.998046875 230.166992188 449.665039062 182.666992188 432.998046875 136 c 0
 416.331054688 89.3330078125 394.998046875 44 368.998046875 0 c 1
 360.998046875 2.6669921875 352.331054688 13 342.998046875 31 c 0
 333.665039062 49 323.83203125 70.8330078125 313.499023438 96.5 c 0
 303.166015625 122.166992188 292.333007812 150.166992188 281 180.5 c 0
 269.666992188 210.833007812 258 239.666015625 246 266.999023438 c 0
 234 294.33203125 221.833007812 318.33203125 209.5 338.999023438 c 0
 197.166992188 359.666015625 185 373.333007812 173 380 c 1
 159 291 l 1
 190 56 l 1
 189 37 l 1
 165 31.6669921875 141.166992188 26.1669921875 117.5 20.5 c 0
 93.8330078125 14.8330078125 70.3330078125 8 47 0 c 1
 36 9 l 2
 36 9.6669921875 35.5 13.333984375 34.5 20.0009765625 c 0
 33.5 26.66796875 32.5 34.5009765625 31.5 43.5009765625 c 0
 30.5 52.5009765625 29.5 61.66796875 28.5 71.0009765625 c 0
 27.5 80.333984375 27 87.6669921875 27 93 c 2
 25 101 l 1
 25 156 l 1
 63 503 l 2
EndSplineSet
EndChar

